<?xml version="1.0" encoding="utf-8"?>
<COLLADA version="1.4.1" xmlns="http://www.collada.org/2005/11/COLLADASchema">
  <asset>
    <created>2016-04-14T12:57:28Z</created>
    <modified>2016-04-14T12:57:28Z</modified>
  </asset>
  <library_images>
    <image id="d01_pattern_id" name="d01_pattern">
      <init_from>./d01_pattern.png</init_from>
    </image>
    <image id="d01_floor_side_id" name="d01_floor_side">
      <init_from>./d01_floor_side.png</init_from>
    </image>
    <image id="d01_wall01_id" name="d01_wall01">
      <init_from>./d01_wall01.png</init_from>
    </image>
    <image id="d01_zyutan_id" name="d01_zyutan">
      <init_from>./d01_zyutan.png</init_from>
    </image>
    <image id="d01_zyutan_02_id" name="d01_zyutan_02">
      <init_from>./d01_zyutan_02.png</init_from>
    </image>
    <image id="d01_obj_c_id" name="d01_obj_c">
      <init_from>./d01_obj_c.png</init_from>
    </image>
    <image id="d01_obj_f_id" name="d01_obj_f">
      <init_from>./d01_obj_f.png</init_from>
    </image>
    <image id="d01_obj_k_id" name="d01_obj_k">
      <init_from>./d01_obj_k.png</init_from>
    </image>
    <image id="d01_obj_m_id" name="d01_obj_m">
      <init_from>./d01_obj_m.png</init_from>
    </image>
    <image id="d01_obj_t_id" name="d01_obj_t">
      <init_from>./d01_obj_t.png</init_from>
    </image>
    <image id="d01_01_sign_id" name="d01_01_sign">
      <init_from>./d01_01_sign.png</init_from>
    </image>
    <image id="d01_stair_id" name="d01_stair">
      <init_from>./d01_stair.png</init_from>
    </image>
    <image id="d01_river_id" name="d01_river">
      <init_from>./d01_river.png</init_from>
    </image>
    <image id="d01_side_river_id" name="d01_side_river">
      <init_from>./d01_side_river.png</init_from>
    </image>
    <image id="d01_dome_sky_id" name="d01_dome_sky">
      <init_from>./d01_dome_sky.png</init_from>
    </image>
    <image id="d01_dome_sky2_id" name="d01_dome_sky2">
      <init_from>./d01_dome_sky2.png</init_from>
    </image>
    <image id="d01_dome_id" name="d01_dome">
      <init_from>./d01_dome.png</init_from>
    </image>
    <image id="d01_landscape_id" name="d01_landscape">
      <init_from>./d01_landscape.png</init_from>
    </image>
  </library_images>
  <library_materials>
    <material id="dome_sky_mat_id" name="dome_sky_mat">
      <instance_effect url="#eff_dome_sky_id" />
    </material>
    <material id="dome_wall_mat_id" name="dome_wall_mat">
      <instance_effect url="#eff_dome_wall_id" />
    </material>
    <material id="landscape_mat_id" name="landscape_mat">
      <instance_effect url="#eff_landscape_id" />
    </material>
  </library_materials>
  <library_effects>
    <effect id="eff_dome_sky_id" name="eff_dome_sky">
      <profile_COMMON>
        <newparam sid="img_surface">
          <surface type="2D">
            <init_from>d01_dome_sky_id</init_from>
            <format>PNG</format>
          </surface>
        </newparam>
        <newparam sid="img_sampler">
          <sampler2D>
            <source>img_surface</source>
            <wrap_s>WRAP</wrap_s>
            <wrap_t>WRAP</wrap_t>
            <minfilter>NONE</minfilter>
            <magfilter>LINEAR</magfilter>
            <mipfilter>LINEAR</mipfilter>
          </sampler2D>
        </newparam>
        <technique sid="img_technique">
          <phong>
            <emission>
              <color>0 0 0 1</color>
            </emission>
            <ambient>
              <color>0 0 0 1</color>
            </ambient>
            <diffuse>
              <texture texture="img_sampler" texcoord="uv" />
            </diffuse>
            <specular>
              <color>1 1 1 1</color>
            </specular>
          </phong>
        </technique>
      </profile_COMMON>
    </effect>
    <effect id="eff_dome_wall_id" name="eff_dome_wall">
      <profile_COMMON>
        <newparam sid="img_surface">
          <surface type="2D">
            <init_from>d01_dome_id</init_from>
            <format>PNG</format>
          </surface>
        </newparam>
        <newparam sid="img_sampler">
          <sampler2D>
            <source>img_surface</source>
            <wrap_s>WRAP</wrap_s>
            <wrap_t>WRAP</wrap_t>
            <minfilter>NONE</minfilter>
            <magfilter>LINEAR</magfilter>
            <mipfilter>LINEAR</mipfilter>
          </sampler2D>
        </newparam>
        <technique sid="img_technique">
          <phong>
            <emission>
              <color>0 0 0 1</color>
            </emission>
            <ambient>
              <color>0 0 0 1</color>
            </ambient>
            <diffuse>
              <texture texture="img_sampler" texcoord="uv" />
            </diffuse>
            <specular>
              <color>1 1 1 1</color>
            </specular>
          </phong>
        </technique>
      </profile_COMMON>
    </effect>
    <effect id="eff_landscape_id" name="eff_landscape">
      <profile_COMMON>
        <newparam sid="img_surface">
          <surface type="2D">
            <init_from>d01_landscape_id</init_from>
            <format>PNG</format>
          </surface>
        </newparam>
        <newparam sid="img_sampler">
          <sampler2D>
            <source>img_surface</source>
            <wrap_s>WRAP</wrap_s>
            <wrap_t>WRAP</wrap_t>
            <minfilter>NONE</minfilter>
            <magfilter>LINEAR</magfilter>
            <mipfilter>LINEAR</mipfilter>
          </sampler2D>
        </newparam>
        <technique sid="img_technique">
          <phong>
            <emission>
              <color>0 0 0 1</color>
            </emission>
            <ambient>
              <color>0 0 0 1</color>
            </ambient>
            <diffuse>
              <texture texture="img_sampler" texcoord="uv" />
            </diffuse>
            <specular>
              <color>1 1 1 1</color>
            </specular>
          </phong>
        </technique>
      </profile_COMMON>
    </effect>
  </library_effects>
  <library_geometries>
    <geometry id="mesh_0_d01_dome_id" name="mesh_0_d01_dome">
      <mesh>
        <source id="mesh_0_d01_dome_position_id" name="mesh_0_d01_dome_position">
          <float_array id="mesh_0_d01_dome_position_array_id" count="396">4586.83 3397.056 -21.66016 8844.767 3397.056 -1005.42 8846.521 4584.256 3885.92 6717.55 4584.256 4377.8 1706.94 3397.056 1910.68 5277.61 4584.256 5343.97 -192.0703 3397.056 4817.51 4328.1 4584.256 6797.38 -192.0703 3397.056 12773.74 -919.8799 3397.056 8777.01 3964.2 4584.256 8777.13 4328.1 4584.256 10775.49 4586.83 3397.056 17597.89 1706.94 3397.056 15711.44 5277.61 4584.256 12244.35 6717.55 4584.256 13187.57 8844.767 3397.056 18590.96 8846.521 4584.256 13684.1 13036.91 3397.056 17597.89 10942.59 4584.256 13187.57 15896.5 3397.056 15711.45 12372.39 4584.256 12244.35 17789.8 3397.056 12773.75 13319.04 4584.256 10775.5 17789.8 3397.056 4817.52 18483.02 3397.056 8777.023 13665.65 4584.256 8777.137 13319.04 4584.256 6797.39 13036.92 3397.056 -21.65039 15896.5 3397.056 1910.69 12372.39 4584.256 5343.97 10942.6 4584.256 4377.8 3698.25 2305.666 -2019.35 8850.521 2305.666 -3187.75 8844.767 3397.056 -1005.42 4586.83 3397.056 -21.66016 93.91992 2305.666 449.2695 1706.94 3397.056 1910.68 -2173.25 2305.666 3975.21 -3029.65 2305.666 8777.518 -2173.25 2305.666 13627.49 3698.24 2305.666 19590.45 93.91992 2305.666 17191.98 8850.521 2305.666 20759.45 13925.33 2305.666 19590.55 17364.09 2305.666 17191.99 19688.65 2305.666 13627.51 20590.35 2305.666 8777.534 19688.65 2305.666 3975.23 13925.34 2305.666 -2019.35 17364.1 2305.666 449.2803 3203.79 1073.076 -3214.65 8854.191 1073.076 -4486.05 -733.1104 1073.076 -389.3096 -3269.25 1073.076 3491.15 -4277.55 1073.076 8776.216 -3269.25 1073.076 14111.01 3203.78 1073.076 20785.65 -733.1104 1073.076 18031.75 8854.191 1073.076 22057.75 14422.29 1073.076 20785.65 18307.92 1073.076 18031.76 20854.85 1073.076 14111.03 21841.95 1073.076 8776.234 20854.85 1073.076 3491.17 14422.3 1073.076 -3214.65 18307.93 1073.076 -389.2998 8850.521 2305.666 -3187.75 3013.65 -345 -3623.55 8856.402 -345 -4938.25 -1057.27 -345 -702.04 -3688.25 -345 3310.52 -4740.15 -345 8775.499 -3688.25 -345 14291.9 -1057.27 -345 18346.11 3013.64 -345 21193.75 8856.403 -345 22509.25 14614.05 -345 21193.75 18631.96 -345 18346.12 21265.55 -345 14291.92 22286.25 -345 8775.519 21265.55 -345 3310.54 18631.97 -345 -702.0303 14614.07 -345 -3623.55 17789.8 3397.056 12773.75 18483.02 3397.056 8777.023 20590.35 2305.666 8777.534 19688.65 2305.666 13627.51 15896.5 3397.056 1910.69 17364.1 2305.666 449.2803 19688.65 2305.666 3975.23 17789.8 3397.056 4817.52 -192.0703 3397.056 4817.51 -919.8799 3397.056 8777.01 -3029.65 2305.666 8777.518 -2173.25 2305.666 3975.21 1706.94 3397.056 15711.44 93.91992 2305.666 17191.98 -2173.25 2305.666 13627.49 -192.0703 3397.056 12773.74 -4277.55 1073.076 8776.216 -3269.25 1073.076 3491.15 -733.1104 1073.076 18031.75 -3269.25 1073.076 14111.01 -1057.27 -345 -702.04 -733.1104 1073.076 -389.3096 -3688.25 -345 3310.52 -4740.15 -345 8775.499 -3688.25 -345 14291.9 8848.273 4813.256 8777.25 3964.2 4584.256 8777.13 4328.1 4584.256 6797.38 5277.61 4584.256 12244.35 4328.1 4584.256 10775.49 13665.65 4584.256 8777.137 13319.04 4584.256 10775.5 12372.39 4584.256 5343.97 13319.04 4584.256 6797.39 8846.521 4584.256 3885.92 6717.55 4584.256 4377.8 5277.61 4584.256 5343.97 6717.55 4584.256 13187.57 8846.521 4584.256 13684.1 10942.59 4584.256 13187.57 12372.39 4584.256 12244.35 10942.6 4584.256 4377.8 -192.0703 3397.056 4817.51 -919.8799 3397.056 8777.01 17789.8 3397.056 12773.75 18483.02 3397.056 8777.023 17789.8 3397.056 4817.52 15896.5 3397.056 1910.69</float_array>
          <technique_common>
            <accessor source="#mesh_0_d01_dome_position_array_id" count="132" stride="3">
              <param name="X" type="float" />
              <param name="Y" type="float" />
              <param name="Z" type="float" />
            </accessor>
          </technique_common>
        </source>
        <source id="mesh_0_d01_dome_uv0_id" name="mesh_0_d01_dome_uv0">
          <float_array id="mesh_0_d01_dome_uv0_array_id" count="264">-0.996094 -0.703125 -0.535156 -0.703125 -0.0390625 -1.09961 -0.269531 -1.09961 -1.40207 -0.864222 -0.472521 -1.18016 -0.996094 -0.703125 -0.269531 -1.09961 -0.0196665 -0.829201 -0.535156 -0.703125 -0.0390625 -1.09961 0.218682 -1.16265 1.02734 -0.836205 0.57314 -0.710129 0.515086 -1.10311 0.742188 -1.16615 1.53516 -0.703125 0.996094 -1.09961 2.0528 -0.731142 1.25492 -1.11362 2.42928 -0.962281 1.44316 -1.22919 2.0528 -0.731142 1.25492 -1.11362 1.02734 -0.836205 1.53516 -0.703125 0.996094 -1.09961 0.742188 -1.16615 -0.0196665 -0.829201 0.57314 -0.710129 0.515086 -1.10311 0.218682 -1.16265 -1.26091 -0.263606 -0.671875 -0.347656 -0.535156 -0.703125 -0.996094 -0.703125 -1.83984 -0.494745 -1.40207 -0.864222 -1.26091 -0.263606 -0.671875 -0.347656 0.068155 -0.375673 1.06641 -0.347656 0.496094 -0.347656 1.62823 -0.27061 2.26239 -0.515757 2.81641 -0.466728 2.26239 -0.515757 1.62823 -0.27061 1.06641 -0.347656 0.068155 -0.375673 0.496094 -0.347656 -1.408 0.112067 -0.517782 0.00700421 -1.83984 0 -1.408 0.112067 -0.517782 0.00700421 0.0541466 0.0840505 0.954339 0.0560336 0.496094 0 1.7566 0.112067 2.23438 0 2.81641 0 2.23438 0 1.7566 0.112067 0.954339 0.0560336 0.0541466 0.0840505 0.496094 0 -0.671875 -0.347656 -1.25391 0.378906 -0.671875 0.378906 -1.83984 0.378906 -1.25391 0.378906 -0.671875 0.378906 -0.0859375 0.378906 0.496094 0.378906 1.06641 0.378906 1.64453 0.378906 2.23438 0.378906 2.81641 0.378906 2.23438 0.378906 1.64453 0.378906 1.06641 0.378906 0.496094 0.378906 -0.0859375 0.378906 2.0528 -0.731142 1.53516 -0.703125 1.62823 -0.27061 2.26239 -0.515757 0.57314 -0.710129 0.496094 -0.347656 1.06641 -0.347656 1.02734 -0.836205 -0.996094 -0.703125 -0.535156 -0.703125 -0.671875 -0.347656 -1.26091 -0.263606 0.57314 -0.710129 0.496094 -0.347656 0.068155 -0.375673 -0.0196665 -0.829201 -0.517782 0.00700421 -1.408 0.112067 0.496094 0 0.0541466 0.0840505 -1.83984 0.378906 -1.83984 0 -1.25391 0.378906 -0.671875 0.378906 -0.0859375 0.378906 0.457031 -1.49609 -0.0390625 -1.09961 -0.269531 -1.09961 0.515086 -1.10311 0.218682 -1.16265 0.996094 -1.09961 1.25492 -1.11362 0.515086 -1.10311 0.742188 -1.16615 -0.0390625 -1.09961 -0.269531 -1.09961 -0.472521 -1.18016 0.742188 -1.16615 0.996094 -1.09961 1.25492 -1.11362 1.44316 -1.22919 0.218682 -1.16265 -0.996094 -0.703125 -0.535156 -0.703125 2.0528 -0.731142 1.53516 -0.703125 1.02734 -0.836205 0.57314 -0.710129</float_array>
          <technique_common>
            <accessor source="#mesh_0_d01_dome_uv0_array_id" count="132" stride="2">
              <param name="S" type="float" />
              <param name="T" type="float" />
            </accessor>
          </technique_common>
        </source>
        <source id="mesh_0_d01_dome_uv1_id" name="mesh_0_d01_dome_uv1">
          <float_array id="mesh_0_d01_dome_uv1_array_id" count="264">0.344507 0.820572 0.502054 0.856414 0.502119 0.678207 0.423345 0.660286 0.237948 0.750171 0.370066 0.625086 0.167683 0.644266 0.334934 0.572133 0.167683 0.354395 0.140754 0.500009 0.321469 0.500004 0.334934 0.427198 0.344507 0.178636 0.237948 0.247365 0.370066 0.373683 0.423345 0.339318 0.502054 0.142455 0.502119 0.321228 0.657167 0.178636 0.579675 0.339318 0.762975 0.247365 0.632579 0.373682 0.833028 0.354395 0.667606 0.427197 0.833028 0.644266 0.858678 0.500008 0.680431 0.500004 0.667606 0.572133 0.657167 0.820572 0.762975 0.750171 0.632579 0.625085 0.579676 0.660286 0.311628 0.893355 0.502267 0.935925 0.502054 0.856414 0.344507 0.820572 0.178265 0.803415 0.237948 0.750171 0.0943785 0.674954 0.0626918 0.49999 0.0943785 0.32329 0.311628 0.106039 0.178265 0.193425 0.502267 0.0634488 0.690039 0.106039 0.817276 0.193424 0.903287 0.32329 0.936652 0.49999 0.903287 0.674953 0.69004 0.893354 0.817277 0.803415 0.293333 0.936902 0.502403 0.983226 0.147664 0.833967 0.0538232 0.69259 0.0165184 0.500038 0.0538231 0.305674 0.293333 0.0624951 0.147664 0.162829 0.502403 0.0161472 0.708427 0.0624948 0.852199 0.162829 0.946437 0.305673 0.98296 0.500037 0.946437 0.692589 0.708428 0.936902 0.8522 0.833967 0.502267 0.935925 -0.723035 2.49461 0.386867 2.50289 -1.49764 2.28 -1.99963 1.92007 -2.2028 1.37412 -2.00669 0.776504 -1.50988 0.296387 -0.73898 -0.0897857 0.369234 -0.355407 1.46298 -0.345184 2.22748 -0.137098 2.72999 0.227111 2.92728 0.7791 2.73705 1.37068 2.23972 1.84651 1.47893 2.23921 0.833028 0.354395 0.858678 0.500008 0.936652 0.49999 0.903287 0.32329 0.762975 0.750171 0.817277 0.803415 0.903287 0.674953 0.833028 0.644266 0.167683 0.644266 0.140754 0.500009 0.0626918 0.49999 0.0943785 0.674954 0.237948 0.247365 0.178265 0.193425 0.0943785 0.32329 0.167683 0.354395 0.0165184 0.500038 0.0538232 0.69259 0.147664 0.162829 0.0538231 0.305674 -1.49764 2.28 0.147664 0.833967 -1.99963 1.92007 -2.2028 1.37412 -2.00669 0.776504 0.502184 0.5 0.321469 0.500004 0.334934 0.572133 0.370066 0.373683 0.334934 0.427198 0.680431 0.500004 0.667606 0.427197 0.632579 0.625085 0.667606 0.572133 0.502119 0.678207 0.423345 0.660286 0.370066 0.625086 0.423345 0.339318 0.502119 0.321228 0.579675 0.339318 0.632579 0.373682 0.579676 0.660286 0.167683 0.644266 0.140754 0.500009 0.833028 0.354395 0.858678 0.500008 0.833028 0.644266 0.762975 0.750171</float_array>
          <technique_common>
            <accessor source="#mesh_0_d01_dome_uv1_array_id" count="132" stride="2">
              <param name="S" type="float" />
              <param name="T" type="float" />
            </accessor>
          </technique_common>
        </source>
        <vertices id="mesh_0_d01_dome_vertices_id">
          <input semantic="POSITION" source="#mesh_0_d01_dome_position_id" />
        </vertices>
        <triangles material="dome_wall" count="144">
          <input semantic="VERTEX" source="#mesh_0_d01_dome_vertices_id" offset="0" />
          <input semantic="TEXCOORD" source="#mesh_0_d01_dome_uv0_id" offset="0" set="0" />
          <input semantic="TEXCOORD" source="#mesh_0_d01_dome_uv1_id" offset="0" set="1" />
          <p>0 1 2 2 3 0 4 0 3 3 5 4 6 4 5 5 7 6 8 9 10 10 11 8 12 13 14 14 15 12 16 12 15 15 17 16 18 16 17 17 19 18 20 18 19 19 21 20 22 20 21 21 23 22 24 25 26 26 27 24 28 29 30 30 31 28 28 31 2 2 1 28 1 0 32 32 33 34 35 4 36 36 32 35 37 6 38 38 36 37 39 9 8 8 40 39 13 12 41 41 42 13 12 16 43 43 41 12 16 18 44 44 43 16 18 20 45 45 44 18 20 22 46 46 45 20 47 25 24 24 48 47 29 28 49 49 50 29 28 34 33 33 49 28 33 32 51 51 52 33 32 36 53 53 51 32 36 38 54 54 53 36 55 39 40 40 56 55 42 41 57 57 58 42 41 43 59 59 57 41 43 44 60 60 59 43 44 45 61 61 60 44 45 46 62 62 61 45 63 47 48 48 64 63 50 49 65 65 66 50 49 67 52 52 65 49 52 51 68 68 69 52 51 53 70 70 68 51 71 54 55 55 72 71 73 56 58 58 74 73 58 57 75 75 74 58 57 59 76 76 75 57 59 60 77 77 76 59 60 61 78 78 77 60 79 62 63 63 80 79 81 64 66 66 82 81 66 65 83 83 82 66 65 52 69 69 83 65 84 85 86 86 87 84 88 89 90 90 91 88 87 86 63 63 62 87 89 66 64 64 90 89 78 61 62 62 79 78 80 63 64 64 81 80 92 93 94 94 95 92 96 97 98 98 99 96 95 94 100 100 101 95 97 102 103 103 98 97 104 105 101 101 106 104 107 100 103 103 108 107 109 110 111 109 112 113 109 114 115 109 116 117 118 109 119 119 109 120 120 109 111 110 109 113 112 109 121 121 109 122 122 109 123 123 109 124 124 109 115 114 109 117 116 109 125 125 109 118 126 111 110 110 127 126 99 113 112 112 96 99 128 115 114 114 129 128 130 117 116 116 131 130</p>
        </triangles>
      </mesh>
    </geometry>
    <geometry id="mesh_1_d01_dome_id" name="mesh_1_d01_dome">
      <mesh>
        <source id="mesh_1_d01_dome_position_id" name="mesh_1_d01_dome_position">
          <float_array id="mesh_1_d01_dome_position_array_id" count="51">3013.65 -345 -3623.55 8848.273 -345 8777.255 8856.402 -345 -4938.25 -1057.27 -345 18346.11 -3688.25 -345 14291.9 8856.403 -345 22509.25 14614.05 -345 21193.75 18631.96 -345 18346.12 3013.64 -345 21193.75 21265.55 -345 14291.92 14614.07 -345 -3623.55 -1057.27 -345 -702.04 -3688.25 -345 3310.52 18631.97 -345 -702.0303 21265.55 -345 3310.54 -4740.15 -345 8775.499 22286.25 -345 8775.519</float_array>
          <technique_common>
            <accessor source="#mesh_1_d01_dome_position_array_id" count="17" stride="3">
              <param name="X" type="float" />
              <param name="Y" type="float" />
              <param name="Z" type="float" />
            </accessor>
          </technique_common>
        </source>
        <source id="mesh_1_d01_dome_uv0_id" name="mesh_1_d01_dome_uv0">
          <float_array id="mesh_1_d01_dome_uv0_array_id" count="34">0.596848 3.97559 1.77877 1.59985 1.78042 4.22747 -0.227799 -0.233351 -0.760763 0.543354 1.78042 -1.03092 2.94674 -0.778908 3.76065 -0.233354 0.596846 -0.778906 4.29415 0.54335 2.94675 3.97559 -0.227798 3.41589 -0.760762 2.64717 3.76066 3.41589 4.29415 2.64716 -0.973835 1.60019 4.50091 1.60018</float_array>
          <technique_common>
            <accessor source="#mesh_1_d01_dome_uv0_array_id" count="17" stride="2">
              <param name="S" type="float" />
              <param name="T" type="float" />
            </accessor>
          </technique_common>
        </source>
        <source id="mesh_1_d01_dome_uv1_id" name="mesh_1_d01_dome_uv1">
          <float_array id="mesh_1_d01_dome_uv1_array_id" count="34">-0.188749 1.91358 0.493688 0.518945 0.49464 2.06144 -0.664898 -0.557203 -0.97263 -0.101252 0.494639 -1.0254 1.16807 -0.877463 1.63802 -0.557205 -0.188751 -0.877461 1.94606 -0.101254 1.16808 1.91358 -0.664897 1.58502 -0.972629 1.13375 1.63802 1.58502 1.94606 1.13375 -1.09566 0.519142 2.06544 0.519139</float_array>
          <technique_common>
            <accessor source="#mesh_1_d01_dome_uv1_array_id" count="17" stride="2">
              <param name="S" type="float" />
              <param name="T" type="float" />
            </accessor>
          </technique_common>
        </source>
        <vertices id="mesh_1_d01_dome_vertices_id">
          <input semantic="POSITION" source="#mesh_1_d01_dome_position_id" />
        </vertices>
        <triangles material="dome_sky" count="16">
          <input semantic="VERTEX" source="#mesh_1_d01_dome_vertices_id" offset="0" />
          <input semantic="TEXCOORD" source="#mesh_1_d01_dome_uv0_id" offset="0" set="0" />
          <input semantic="TEXCOORD" source="#mesh_1_d01_dome_uv1_id" offset="0" set="1" />
          <p>0 1 2 3 1 4 5 6 1 6 7 1 8 5 1 7 9 1 3 8 1 1 10 2 0 11 1 11 12 1 1 13 10 1 14 13 1 15 4 12 15 1 9 16 1 1 16 14</p>
        </triangles>
      </mesh>
    </geometry>
    <geometry id="mesh_2_d01_dome_id" name="mesh_2_d01_dome">
      <mesh>
        <source id="mesh_2_d01_dome_position_id" name="mesh_2_d01_dome_position">
          <float_array id="mesh_2_d01_dome_position_array_id" count="474">19416.95 499.361 8777.25 18776 401.885 5142.37 18551.55 -304.933 5224.06 19178.05 -304.933 8777.25 16930.52 401.885 1945.91 16747.55 -304.933 2099.44 14103.09 401.885 -426.5898 13983.66 -304.933 -219.7402 10634.73 401.885 -1688.95 10593.25 -304.933 -1453.75 6943.77 292.546 -1688.95 6985.25 -304.933 -1453.75 6943.77 292.546 -1688.95 3475.41 401.885 -426.5898 3594.84 -304.933 -219.7402 6985.25 -304.933 -1453.75 647.98 401.885 1945.91 830.9502 -304.933 2099.44 -1197.5 401.885 5142.37 -973.0498 -304.933 5224.06 -1838.45 401.885 8777.248 -1599.55 -304.933 8777.248 -1197.5 401.885 12412.13 -973.0498 -304.933 12330.44 647.98 401.885 15608.59 830.9502 -304.933 15455.06 3475.41 401.885 17981.08 3594.83 -304.933 17774.23 6943.77 308.046 19243.45 6985.24 -304.933 19008.25 10634.72 492.922 19243.45 10593.25 -175.358 19008.25 14103.08 518.097 17981.09 13983.66 -154.8116 17774.24 16930.52 401.885 15608.59 16747.55 -304.933 15455.06 18776 401.885 12412.14 18551.55 -304.933 12330.44 19416.95 499.361 8777.25 19178.05 -304.933 8777.25 18908.65 1653.346 8777.25 18298.36 1513.076 5316.22 18776 401.885 5142.37 16541.15 1513.076 2272.63 16930.52 401.885 1945.91 13848.94 1513.076 13.59961 14103.09 401.885 -426.5898 10546.46 1513.076 -1188.4 10634.73 401.885 -1688.95 7032.04 1397.596 -1188.4 6943.77 292.546 -1688.95 7032.04 1397.596 -1188.4 3729.56 1513.076 13.59961 3475.41 401.885 -426.5898 6943.77 292.546 -1688.95 1037.35 1513.076 2272.63 647.98 401.885 1945.91 -719.8604 1771.486 5316.22 -1197.5 401.885 5142.37 -1330.15 1513.076 8777.248 -1838.45 401.885 8777.248 -719.8701 1672.366 12238.28 -1197.5 401.885 12412.13 1037.35 1513.076 15281.86 647.98 401.885 15608.59 3729.55 1683.806 17540.89 3475.41 401.885 17981.08 7032.03 1385.106 18742.9 6943.77 308.046 19243.45 10546.46 1468.326 18742.9 10634.72 492.922 19243.45 13848.94 1601.246 17540.9 14103.08 518.097 17981.09 16541.14 1513.076 15281.87 16930.52 401.885 15608.59 18298.36 1513.076 12238.29 18776 401.885 12412.14 18908.65 1653.346 8777.25 19416.95 499.361 8777.25 17095.14 242.394 7312.7 16093.32 242.394 4560.24 15875.62 -355.576 4685.93 16847.57 -355.576 7356.35 14210.53 242.394 2316.42 14048.95 -355.576 2508.99 11673.85 242.394 851.8599 11587.88 -355.576 1088.09 8789.249 111.243 343.2305 8789.249 -355.576 594.6099 5904.64 296.147 851.8599 5990.62 -355.576 1088.09 5904.64 296.147 851.8599 3367.97 242.394 2316.41 3529.55 -355.576 2508.99 5990.62 -355.576 1088.09 1485.17 242.394 4560.24 1702.88 -355.576 4685.93 483.3604 242.394 7312.7 730.9302 -355.576 7356.35 483.3604 242.394 10241.8 730.9302 -355.576 10198.15 1485.17 242.394 12994.26 1702.88 -355.576 12868.56 3367.96 242.394 15238.08 3529.55 -355.576 15045.51 5904.64 242.394 16702.63 5990.62 -355.576 16466.41 8789.246 242.394 17211.27 8789.246 -355.576 16959.88 11673.85 242.394 16702.64 11587.87 -355.576 16466.41 14210.53 178.537 15238.09 14048.94 -355.576 15045.51 16093.32 242.394 12994.26 15875.62 -355.576 12868.57 17095.14 242.394 10241.81 16847.57 -355.576 10198.15 17095.14 242.394 7312.7 16847.57 -355.576 7356.35 16860.2 890.459 7354.13 15886.72 890.459 4679.53 16093.32 242.394 4560.24 14057.19 890.459 2499.17 14210.53 242.394 2316.42 11592.26 1005.126 1076.05 11673.85 242.394 851.8599 8789.249 819.5 583.6299 8789.249 111.243 343.2305 5986.24 1035.666 1076.05 5904.64 296.147 851.8599 5986.24 1035.666 1076.05 3521.31 890.459 2499.17 3367.97 242.394 2316.41 5904.64 296.147 851.8599 1691.78 1048.986 4679.53 1485.17 242.394 4560.24 718.2998 890.459 7354.13 483.3604 242.394 7312.7 718.2998 890.459 10200.38 483.3604 242.394 10241.8 1691.78 977.6461 12874.98 1485.17 242.394 12994.26 3521.31 890.459 15055.34 3367.96 242.394 15238.08 5986.24 1016.836 16478.46 5904.64 242.394 16702.63 8789.246 788.572 16972.71 8789.246 242.394 17211.27 11592.26 890.459 16478.47 11673.85 242.394 16702.64 14057.18 996.2661 15055.34 14210.53 178.537 15238.09 15886.72 890.459 12874.99 16093.32 242.394 12994.26 16860.19 1030.806 10200.39 17095.14 242.394 10241.81 16860.2 890.459 7354.13 17095.14 242.394 7312.7</float_array>
          <technique_common>
            <accessor source="#mesh_2_d01_dome_position_array_id" count="158" stride="3">
              <param name="X" type="float" />
              <param name="Y" type="float" />
              <param name="Z" type="float" />
            </accessor>
          </technique_common>
        </source>
        <source id="mesh_2_d01_dome_normal_id" name="mesh_2_d01_dome_normal">
          <float_array id="mesh_2_d01_dome_normal_array_id" count="474">-0.990305 -0.138144 -0.0145542 -0.932776 -0.143792 0.330535 -0.914293 0.306882 0.264371 -0.954152 0.295184 -0.0496063 -0.765536 -0.145027 0.626835 -0.76085 0.319629 0.564752 -0.504978 -0.145028 0.850861 -0.521808 0.319629 0.790919 -0.185647 -0.147897 0.971423 -0.219829 0.319628 0.92169 0.162293 -0.151226 0.975085 0.097619 0.351959 0.930911 0.162293 -0.151226 0.975085 0.48076 -0.14532 0.864726 0.429958 0.335138 0.838343 0.097619 0.351959 0.930911 0.750246 -0.145028 0.645056 0.688293 0.319629 0.651222 0.925556 -0.132825 0.354547 0.869515 0.319628 0.376539 0.990275 -0.138514 0.0130141 0.94586 0.319629 0.0564394 0.935788 -0.137258 -0.324748 0.908121 0.31963 -0.270467 0.766432 -0.140945 -0.626671 0.76085 0.319628 -0.564753 0.509769 -0.138915 -0.849022 0.521809 0.319626 -0.79092 0.182731 -0.148253 -0.971921 0.221562 0.347102 -0.91128 -0.153828 -0.156953 -0.975552 -0.121192 0.344149 -0.931061 -0.483812 -0.152108 -0.861852 -0.41904 0.334526 -0.844096 -0.753134 -0.14563 -0.641546 -0.682871 0.324603 -0.654462 -0.92664 -0.142563 -0.34787 -0.869515 0.319626 -0.37654 -0.990305 -0.138144 -0.0145542 -0.954152 0.295184 -0.0496063 -0.9115 -0.407249 0.0575845 -0.832228 -0.415208 0.367422 -0.932776 -0.143792 0.330535 -0.660129 -0.415342 0.625876 -0.765536 -0.145027 0.626835 -0.406257 -0.415342 0.813908 -0.504978 -0.145028 0.850861 -0.0949017 -0.416344 0.904241 -0.185647 -0.147897 0.971423 0.208051 -0.416117 0.88519 0.162293 -0.151226 0.975085 0.208051 -0.416117 0.88519 0.497922 -0.415442 0.761237 0.48076 -0.14532 0.864726 0.162293 -0.151226 0.975085 0.739176 -0.38941 0.549526 0.750246 -0.145028 0.645056 0.889093 -0.368468 0.27156 0.925556 -0.132825 0.354547 0.914797 -0.39877 -0.064257 0.990275 -0.138514 0.0130141 0.848336 -0.385259 -0.363184 0.935788 -0.137258 -0.324748 0.662449 -0.397736 -0.634797 0.766432 -0.140945 -0.626671 0.410265 -0.386689 -0.825926 0.509769 -0.138915 -0.849022 0.10413 -0.436764 -0.893529 0.182731 -0.148253 -0.971921 -0.202082 -0.447995 -0.870898 -0.153828 -0.156953 -0.975552 -0.503131 -0.421619 -0.754385 -0.483812 -0.152108 -0.861852 -0.733082 -0.41526 -0.538655 -0.753134 -0.14563 -0.641546 -0.871968 -0.410506 -0.266752 -0.92664 -0.142563 -0.34787 -0.9115 -0.407249 0.0575845 -0.990305 -0.138144 -0.0145542 -0.985733 0.00981427 0.168028 -0.867159 0.0101869 0.497927 -0.824728 0.386954 0.412421 -0.916047 0.386952 0.105476 -0.644562 0.0101844 0.764485 -0.633934 0.386954 0.669622 -0.352039 0.00991733 0.935933 -0.366679 0.386954 0.846057 -0.00109426 0.00914341 0.999958 -0.0693125 0.440992 0.894831 0.333671 0.00888141 0.942648 0.281092 0.391331 0.876269 0.333671 0.00888141 0.942648 0.640054 0.00993425 0.768266 0.547338 0.377295 0.747041 0.281092 0.391331 0.876269 0.863352 0.00939261 0.504515 0.769531 0.386955 0.508024 0.983681 0.0097695 0.179653 0.896877 0.386955 0.214192 0.985164 0.01019 -0.171312 0.916046 0.386956 -0.105475 0.86798 0.00973877 -0.496503 0.824727 0.386956 -0.41242 0.646167 0.00995759 -0.763131 0.633934 0.386956 -0.669622 0.346416 0.00955004 -0.938032 0.366679 0.386954 -0.846058 0.00349022 0.010403 -0.99994 0.0551975 0.386955 -0.920445 -0.339234 0.010665 -0.940642 -0.262943 0.386955 -0.883814 -0.639428 0.00964866 -0.76879 -0.537225 0.4117 -0.736133 -0.862173 0.00974805 -0.506521 -0.769 0.399013 -0.499427 -0.983894 0.00947874 -0.178502 -0.896877 0.386953 -0.214192 -0.985733 0.00981427 0.168028 -0.916047 0.386952 0.105476 -0.911678 -0.344796 0.223515 -0.783362 -0.344915 0.517086 -0.867159 0.0101869 0.497927 -0.561528 -0.32748 0.759897 -0.644562 0.0101844 0.764485 -0.267185 -0.305877 0.913812 -0.352039 0.00991733 0.935933 0.0506976 -0.315299 0.947637 -0.00109426 0.00914341 0.999958 0.371554 -0.318939 0.871909 0.333671 0.00888141 0.942648 0.371554 -0.318939 0.871909 0.656765 -0.321131 0.682301 0.640054 0.00993425 0.768266 0.333671 0.00888141 0.942648 0.849112 -0.30176 0.433532 0.863352 0.00939261 0.504515 0.933229 -0.344781 0.101044 0.983681 0.0097695 0.179653 0.91734 -0.331499 -0.220443 0.985164 0.01019 -0.171312 0.793271 -0.319841 -0.518096 0.86798 0.00973877 -0.496503 0.559063 -0.325713 -0.76247 0.646167 0.00995759 -0.763131 0.27787 -0.32349 -0.904512 0.346416 0.00955004 -0.938032 -0.067333 -0.379083 -0.92291 0.00349022 0.010403 -0.99994 -0.379893 -0.319911 -0.86795 -0.339234 0.010665 -0.940642 -0.648315 -0.298912 -0.700242 -0.639428 0.00964866 -0.76879 -0.848975 -0.32371 -0.417675 -0.862173 0.00974805 -0.506521 -0.944878 -0.306179 -0.116014 -0.983894 0.00947874 -0.178502 -0.911678 -0.344796 0.223515 -0.985733 0.00981427 0.168028</float_array>
          <technique_common>
            <accessor source="#mesh_2_d01_dome_normal_array_id" count="158" stride="3">
              <param name="X" type="float" />
              <param name="Y" type="float" />
              <param name="Z" type="float" />
            </accessor>
          </technique_common>
        </source>
        <source id="mesh_2_d01_dome_uv0_id" name="mesh_2_d01_dome_uv0">
          <float_array id="mesh_2_d01_dome_uv0_array_id" count="316">12.9948 0.417777 13.9948 0.411822 13.9941 0 12.9946 0 14.994 0.411895 14.9937 0 15.9936 0.411895 15.9933 0 16.9935 0.411967 16.9928 0 17.9942 0.406109 17.9924 0 -0.000831616 0.406037 0.999711 0.411985 0.999733 0 0.000165267 0 1.99962 0.411875 1.9993 0 2.99923 0.421184 2.99887 0 3.99876 0.411862 3.99844 0 4.99835 0.418129 4.998 0 5.9979 0.411868 5.99757 0 6.99777 0.418571 6.99714 0 7.99682 0.405684 7.99671 0 8.99592 0.40297 8.99628 0 9.99646 0.408996 9.99585 0 10.9961 0.411941 10.9954 0 11.995 0.411838 11.995 0 12.9948 0.417777 12.9946 0 12.9948 0.978778 13.994 0.976501 13.9948 0.411822 14.9938 0.9763 14.994 0.411895 15.9933 0.9763 15.9936 0.411895 16.9929 0.977089 16.9935 0.411967 18.002 0.972844 17.9942 0.406109 0.00100976 0.974522 0.999983 0.976285 0.999711 0.411985 -0.000831616 0.406037 1.99914 0.975599 1.99962 0.411875 2.99922 0.984452 2.99923 0.421184 3.9982 0.977094 3.99876 0.411862 4.99828 0.981805 4.99835 0.418129 5.99739 0.976635 5.9979 0.411868 6.99739 0.982766 6.99777 0.418571 7.99659 0.974356 7.99682 0.405684 8.99648 0.969349 8.99592 0.40297 9.99604 0.975124 9.99646 0.408996 10.9953 0.976142 10.9961 0.411941 11.995 0.975493 11.995 0.411838 12.9948 0.978778 12.9948 0.417777 12.9946 0.499874 13.9941 0.499874 13.9941 0 12.9946 0 14.9937 0.499874 14.9937 0 15.9933 0.499874 15.9933 0 16.9928 0.499874 16.9928 0 17.9924 0.499874 17.9924 0 0.000165267 0.499874 0.999733 0.499874 0.999733 0 0.000165267 0 1.9993 0.499874 1.9993 0 2.99887 0.499874 2.99887 0 3.99844 0.499874 3.99844 0 4.998 0.499874 4.998 0 5.99757 0.499874 5.99757 0 6.99714 0.499874 6.99714 0 7.99671 0.499874 7.99671 0 8.99628 0.499874 8.99628 0 9.99585 0.499874 9.99585 0 10.9954 0.499874 10.9954 0 11.995 0.499874 11.995 0 12.9946 0.499874 12.9946 0 12.9946 0.999748 13.9941 0.999748 13.9941 0.499874 14.9937 0.999748 14.9937 0.499874 15.9933 0.999748 15.9933 0.499874 16.9928 0.999748 16.9928 0.499874 17.9924 0.999748 17.9924 0.499874 0.000165267 0.999748 0.999733 0.999748 0.999733 0.499874 0.000165267 0.499874 1.9993 0.999748 1.9993 0.499874 2.99887 0.999748 2.99887 0.499874 3.99844 0.999748 3.99844 0.499874 4.998 0.999748 4.998 0.499874 5.99757 0.999748 5.99757 0.499874 6.99714 0.999748 6.99714 0.499874 7.99671 0.999748 7.99671 0.499874 8.99628 0.999748 8.99628 0.499874 9.99585 0.999748 9.99585 0.499874 10.9954 0.999748 10.9954 0.499874 11.995 0.999748 11.995 0.499874 12.9946 0.999748 12.9946 0.499874</float_array>
          <technique_common>
            <accessor source="#mesh_2_d01_dome_uv0_array_id" count="158" stride="2">
              <param name="S" type="float" />
              <param name="T" type="float" />
            </accessor>
          </technique_common>
        </source>
        <source id="mesh_2_d01_dome_uv1_id" name="mesh_2_d01_dome_uv1">
          <float_array id="mesh_2_d01_dome_uv1_array_id" count="316">11600 1.07693 10900.2 3970.03 10900.4 3967.43 11600 0 8885.65 7457.63 8886.12 7456.34 5799.12 10046.9 5800 10045.9 2011.83 11424.5 2014.32 11423.8 -2016.09 11424.5 -2014.32 11423.8 -2016.09 11424.5 -5800.04 10046.1 -5800 10045.9 -2014.32 11423.8 -8887.3 7455.66 -8886.12 7456.34 -10901.3 3966.24 -10900.4 3967.43 -11600.5 -1.28871 -11600 0.00175155 -10900.4 -3968.89 -10900.4 -3967.43 -8885.65 -7457.62 -8886.12 -7456.33 -5797.97 -10047.4 -5800 -10045.9 -2014.09 -11424.9 -2014.32 -11423.8 2012.93 -11424.2 2014.31 -11423.8 5802.19 -10044.8 5799.99 -10045.9 8888.47 -7454.67 8886.11 -7456.34 10901.1 -3967.55 10900.4 -3967.44 11600 1.07693 11600 0 11580.8 1.06731 10882.3 3960.46 10900.2 3970.03 8871.13 7444.2 8885.65 7457.63 5790.06 10029.4 5799.12 10046.9 2010.65 11404.8 2011.83 11424.5 -2010.55 11404.7 -2016.09 11424.5 -2010.55 11404.7 -5791.28 10028.8 -5800.04 10046.1 -2016.09 11424.5 -8871.05 7444.54 -8887.3 7455.66 -10882.8 3959.54 -10901.3 3966.24 -11580.7 0.940598 -11600.5 -1.28871 -10881.9 -3961.85 -10900.4 -3968.89 -8871.83 -7443.39 -8885.65 -7457.62 -5789.51 -10029.7 -5797.97 -10047.4 -2011.39 -11404.5 -2014.09 -11424.9 2011.79 -11404.9 2012.93 -11424.2 5791.08 -10028.9 5802.19 -10044.8 8871.09 -7444.08 8888.47 -7454.67 10882.4 -3960.76 10901.1 -3967.55 11580.8 1.06731 11600 1.07693 11600 0 10900.4 3967.43 10900.4 3967.43 11600 0 8886.12 7456.34 8886.12 7456.34 5800 10045.9 5800 10045.9 2014.32 11423.8 2014.32 11423.8 -2014.32 11423.8 -2014.32 11423.8 -2014.32 11423.8 -5800 10045.9 -5800 10045.9 -2014.32 11423.8 -8886.12 7456.34 -8886.12 7456.34 -10900.4 3967.43 -10900.4 3967.43 -11600 0.00175155 -11600 0.00175155 -10900.4 -3967.43 -10900.4 -3967.43 -8886.12 -7456.33 -8886.12 -7456.33 -5800 -10045.9 -5800 -10045.9 -2014.32 -11423.8 -2014.32 -11423.8 2014.31 -11423.8 2014.31 -11423.8 5799.99 -10045.9 5799.99 -10045.9 8886.11 -7456.34 8886.11 -7456.34 10900.4 -3967.44 10900.4 -3967.44 11600 0 11600 0 11600 0 10900.4 3967.43 10900.4 3967.43 8886.12 7456.34 8886.12 7456.34 5800 10045.9 5800 10045.9 2014.32 11423.8 2014.32 11423.8 -2014.32 11423.8 -2014.32 11423.8 -2014.32 11423.8 -5800 10045.9 -5800 10045.9 -2014.32 11423.8 -8886.12 7456.34 -8886.12 7456.34 -10900.4 3967.43 -10900.4 3967.43 -11600 0.00175155 -11600 0.00175155 -10900.4 -3967.43 -10900.4 -3967.43 -8886.12 -7456.33 -8886.12 -7456.33 -5800 -10045.9 -5800 -10045.9 -2014.32 -11423.8 -2014.32 -11423.8 2014.31 -11423.8 2014.31 -11423.8 5799.99 -10045.9 5799.99 -10045.9 8886.11 -7456.34 8886.11 -7456.34 10900.4 -3967.44 10900.4 -3967.44 11600 0 11600 0</float_array>
          <technique_common>
            <accessor source="#mesh_2_d01_dome_uv1_array_id" count="158" stride="2">
              <param name="S" type="float" />
              <param name="T" type="float" />
            </accessor>
          </technique_common>
        </source>
        <source id="mesh_2_d01_dome_color_id" name="mesh_2_d01_dome_color">
          <float_array id="mesh_2_d01_dome_color_array_id" count="632">1 1 1 1 1 1 1 1 1 1 1 0.6 1 1 1 0.6 1 1 1 1 1 1 1 0.6 1 1 1 1 1 1 1 0.6 1 1 1 1 1 1 1 0.6 1 1 1 1 1 1 1 0.6 1 1 1 1 1 1 1 1 1 1 1 0.6 1 1 1 0.6 1 1 1 1 1 1 1 0.6 1 1 1 1 1 1 1 0.6 1 1 1 1 1 1 1 0.6 1 1 1 1 1 1 1 0.6 1 1 1 1 1 1 1 0.6 1 1 1 1 1 1 1 0.6 1 1 1 1 1 1 1 0.6 1 1 1 1 1 1 1 0.6 1 1 1 1 1 1 1 0.6 1 1 1 1 1 1 1 0.6 1 1 1 1 1 1 1 0.6 1 1 1 1 1 1 1 0.6 1 1 1 0.8 1 1 1 0.8 1 1 1 1 1 1 1 0.8 1 1 1 1 1 1 1 0.8 1 1 1 1 1 1 1 0.8 1 1 1 1 1 1 1 0.8 1 1 1 1 1 1 1 0.8 1 1 1 0.8 1 1 1 1 1 1 1 1 1 1 1 0.8 1 1 1 1 1 1 1 0.8 1 1 1 1 1 1 1 0.8 1 1 1 1 1 1 1 0.8 1 1 1 1 1 1 1 0.8 1 1 1 1 1 1 1 0.8 1 1 1 1 1 1 1 0.8 1 1 1 1 1 1 1 0.8 1 1 1 1 1 1 1 0.8 1 1 1 1 1 1 1 0.8 1 1 1 1 1 1 1 0.8 1 1 1 1 1 1 1 0.8 1 1 1 1 1 1 1 1 1 1 1 1 1 1 1 0.6 1 1 1 0.6 1 1 1 1 1 1 1 0.6 1 1 1 1 1 1 1 0.6 1 1 1 1 1 1 1 0.6 1 1 1 1 1 1 1 0.6 1 1 1 1 1 1 1 1 1 1 1 0.6 1 1 1 0.6 1 1 1 1 1 1 1 0.6 1 1 1 1 1 1 1 0.6 1 1 1 1 1 1 1 0.6 1 1 1 1 1 1 1 0.6 1 1 1 1 1 1 1 0.6 1 1 1 1 1 1 1 0.6 1 1 1 1 1 1 1 0.6 1 1 1 1 1 1 1 0.6 1 1 1 1 1 1 1 0.6 1 1 1 1 1 1 1 0.6 1 1 1 1 1 1 1 0.6 1 1 1 1 1 1 1 0.6 1 1 1 1 1 1 1 1 1 1 1 1 1 1 1 1 1 1 1 1 1 1 1 1 1 1 1 1 1 1 1 1 1 1 1 1 1 1 1 1 1 1 1 1 1 1 1 1 1 1 1 1 1 1 1 1 1 1 1 1 1 1 1 1 1 1 1 1 1 1 1 1 1 1 1 1 1 1 1 1 1 1 1 1 1 1 1 1 1 1 1 1 1 1 1 1 1 1 1 1 1 1 1 1 1 1 1 1 1 1 1 1 1 1 1 1 1 1 1 1 1 1 1 1 1 1 1 1 1 1 1 1 1 1 1 1 1 1 1 1 1 1 1 1 1 1 1 1 1 1 1 1 1 1 1 1</float_array>
          <technique_common>
            <accessor source="#mesh_2_d01_dome_color_array_id" count="158" stride="4">
              <param name="R" type="float" />
              <param name="G" type="float" />
              <param name="B" type="float" />
              <param name="A" type="float" />
            </accessor>
          </technique_common>
        </source>
        <vertices id="mesh_2_d01_dome_vertices_id">
          <input semantic="POSITION" source="#mesh_2_d01_dome_position_id" />
        </vertices>
        <triangles material="landscape" count="144">
          <input semantic="VERTEX" source="#mesh_2_d01_dome_vertices_id" offset="0" />
          <input semantic="NORMAL" source="#mesh_2_d01_dome_normal_id" offset="0" />
          <input semantic="COLOR" source="#mesh_2_d01_dome_color_id" offset="0" />
          <input semantic="TEXCOORD" source="#mesh_2_d01_dome_uv0_id" offset="0" set="0" />
          <input semantic="TEXCOORD" source="#mesh_2_d01_dome_uv1_id" offset="0" set="1" />
          <p>0 1 2 2 3 0 1 4 5 5 2 1 4 6 7 7 5 4 6 8 9 9 7 6 8 10 11 11 9 8 12 13 14 14 15 12 13 16 17 17 14 13 16 18 19 19 17 16 18 20 21 21 19 18 20 22 23 23 21 20 22 24 25 25 23 22 24 26 27 27 25 24 26 28 29 29 27 26 28 30 31 31 29 28 30 32 33 33 31 30 32 34 35 35 33 32 34 36 37 37 35 34 36 38 39 39 37 36 40 41 42 42 38 40 41 43 44 44 42 41 43 45 46 46 44 43 45 47 48 48 46 45 47 49 50 50 48 47 51 52 53 53 54 51 52 55 56 56 53 52 55 57 58 58 56 55 57 59 60 60 58 57 59 61 62 62 60 59 61 63 64 64 62 61 63 65 66 66 64 63 65 67 68 68 66 65 67 69 70 70 68 67 69 71 72 72 70 69 71 73 74 74 72 71 73 75 76 76 74 73 75 77 78 78 76 75 79 80 81 81 82 79 80 83 84 84 81 80 83 85 86 86 84 83 85 87 88 88 86 85 87 89 90 90 88 87 91 92 93 93 94 91 92 95 96 96 93 92 95 97 98 98 96 95 97 99 100 100 98 97 99 101 102 102 100 99 101 103 104 104 102 101 103 105 106 106 104 103 105 107 108 108 106 105 107 109 110 110 108 107 109 111 112 112 110 109 111 113 114 114 112 111 113 115 116 116 114 113 115 117 118 118 116 115 119 120 121 121 117 119 120 122 123 123 121 120 122 124 125 125 123 122 124 126 127 127 125 124 126 128 129 129 127 126 130 131 132 132 133 130 131 134 135 135 132 131 134 136 137 137 135 134 136 138 139 139 137 136 138 140 141 141 139 138 140 142 143 143 141 140 142 144 145 145 143 142 144 146 147 147 145 144 146 148 149 149 147 146 148 150 151 151 149 148 150 152 153 153 151 150 152 154 155 155 153 152 154 156 157 157 155 154</p>
        </triangles>
      </mesh>
    </geometry>
  </library_geometries>
  <library_controllers>
    <controller id="mesh_0_d01_dome_ctrl_id">
      <skin source="#mesh_0_d01_dome_id">
        <bind_shape_matrix>1 0 0 0 0 1 0 0 0 0 1 0 0 0 0 1</bind_shape_matrix>
        <source id="mesh_0_d01_dome_ctrl_joint_names_id">
          <Name_array id="mesh_0_d01_dome_ctrl_joint_names_array_id" count="1">d01_dome</Name_array>
          <technique_common>
            <accessor source="#mesh_0_d01_dome_ctrl_joint_names_array_id" count="1" stride="1">
              <param name="JOINT" type="Name" />
            </accessor>
          </technique_common>
        </source>
        <source id="mesh_0_d01_dome_ctrl_inv_bind_poses_id">
          <float_array id="mesh_0_d01_dome_ctrl_inv_bind_poses_array_id" count="16">1 0 0 -8789.25 0 1 0 101.024 0 0 1 -8777.25 0 0 0 1</float_array>
          <technique_common>
            <accessor source="#mesh_0_d01_dome_ctrl_inv_bind_poses_array_id" count="1" stride="16">
              <param name="TRANSFORM" type="float4x4" />
            </accessor>
          </technique_common>
        </source>
        <source id="mesh_0_d01_dome_ctrl_weights_id">
          <float_array id="mesh_0_d01_dome_ctrl_weights_array_id" count="1">1</float_array>
          <technique_common>
            <accessor source="#mesh_0_d01_dome_ctrl_weights_array_id" count="1" stride="1">
              <param name="WEIGHT" type="float" />
            </accessor>
          </technique_common>
        </source>
        <joints>
          <input semantic="JOINT" source="#mesh_0_d01_dome_ctrl_joint_names_id" />
          <input semantic="INV_BIND_MATRIX" source="#mesh_0_d01_dome_ctrl_inv_bind_poses_id" />
        </joints>
        <vertex_weights count="132">
          <input semantic="JOINT" source="#mesh_0_d01_dome_ctrl_joint_names_id" offset="0" />
          <input semantic="WEIGHT" source="#mesh_0_d01_dome_ctrl_weights_id" offset="1" />
          <vcount>1 1 1 1 1 1 1 1 1 1 1 1 1 1 1 1 1 1 1 1 1 1 1 1 1 1 1 1 1 1 1 1 1 1 1 1 1 1 1 1 1 1 1 1 1 1 1 1 1 1 1 1 1 1 1 1 1 1 1 1 1 1 1 1 1 1 1 1 1 1 1 1 1 1 1 1 1 1 1 1 1 1 1 1 1 1 1 1 1 1 1 1 1 1 1 1 1 1 1 1 1 1 1 1 1 1 1 1 1 1 1 1 1 1 1 1 1 1 1 1 1 1 1 1 1 1 1 1 1 1 1 1</vcount>
          <v>0 0 0 0 0 0 0 0 0 0 0 0 0 0 0 0 0 0 0 0 0 0 0 0 0 0 0 0 0 0 0 0 0 0 0 0 0 0 0 0 0 0 0 0 0 0 0 0 0 0 0 0 0 0 0 0 0 0 0 0 0 0 0 0 0 0 0 0 0 0 0 0 0 0 0 0 0 0 0 0 0 0 0 0 0 0 0 0 0 0 0 0 0 0 0 0 0 0 0 0 0 0 0 0 0 0 0 0 0 0 0 0 0 0 0 0 0 0 0 0 0 0 0 0 0 0 0 0 0 0 0 0 0 0 0 0 0 0 0 0 0 0 0 0 0 0 0 0 0 0 0 0 0 0 0 0 0 0 0 0 0 0 0 0 0 0 0 0 0 0 0 0 0 0 0 0 0 0 0 0 0 0 0 0 0 0 0 0 0 0 0 0 0 0 0 0 0 0 0 0 0 0 0 0 0 0 0 0 0 0 0 0 0 0 0 0 0 0 0 0 0 0 0 0 0 0 0 0 0 0 0 0 0 0 0 0 0 0 0 0 0 0 0 0 0 0 0 0 0 0 0 0 0 0 0 0 0 0 0 0 0 0 0 0</v>
        </vertex_weights>
      </skin>
    </controller>
    <controller id="mesh_1_d01_dome_ctrl_id">
      <skin source="#mesh_1_d01_dome_id">
        <bind_shape_matrix>1 0 0 0 0 1 0 0 0 0 1 0 0 0 0 1</bind_shape_matrix>
        <source id="mesh_1_d01_dome_ctrl_joint_names_id">
          <Name_array id="mesh_1_d01_dome_ctrl_joint_names_array_id" count="1">d01_dome</Name_array>
          <technique_common>
            <accessor source="#mesh_1_d01_dome_ctrl_joint_names_array_id" count="1" stride="1">
              <param name="JOINT" type="Name" />
            </accessor>
          </technique_common>
        </source>
        <source id="mesh_1_d01_dome_ctrl_inv_bind_poses_id">
          <float_array id="mesh_1_d01_dome_ctrl_inv_bind_poses_array_id" count="16">1 0 0 -8789.25 0 1 0 101.024 0 0 1 -8777.25 0 0 0 1</float_array>
          <technique_common>
            <accessor source="#mesh_1_d01_dome_ctrl_inv_bind_poses_array_id" count="1" stride="16">
              <param name="TRANSFORM" type="float4x4" />
            </accessor>
          </technique_common>
        </source>
        <source id="mesh_1_d01_dome_ctrl_weights_id">
          <float_array id="mesh_1_d01_dome_ctrl_weights_array_id" count="1">1</float_array>
          <technique_common>
            <accessor source="#mesh_1_d01_dome_ctrl_weights_array_id" count="1" stride="1">
              <param name="WEIGHT" type="float" />
            </accessor>
          </technique_common>
        </source>
        <joints>
          <input semantic="JOINT" source="#mesh_1_d01_dome_ctrl_joint_names_id" />
          <input semantic="INV_BIND_MATRIX" source="#mesh_1_d01_dome_ctrl_inv_bind_poses_id" />
        </joints>
        <vertex_weights count="17">
          <input semantic="JOINT" source="#mesh_1_d01_dome_ctrl_joint_names_id" offset="0" />
          <input semantic="WEIGHT" source="#mesh_1_d01_dome_ctrl_weights_id" offset="1" />
          <vcount>1 1 1 1 1 1 1 1 1 1 1 1 1 1 1 1 1</vcount>
          <v>0 0 0 0 0 0 0 0 0 0 0 0 0 0 0 0 0 0 0 0 0 0 0 0 0 0 0 0 0 0 0 0 0 0</v>
        </vertex_weights>
      </skin>
    </controller>
    <controller id="mesh_2_d01_dome_ctrl_id">
      <skin source="#mesh_2_d01_dome_id">
        <bind_shape_matrix>1 0 0 0 0 1 0 0 0 0 1 0 0 0 0 1</bind_shape_matrix>
        <source id="mesh_2_d01_dome_ctrl_joint_names_id">
          <Name_array id="mesh_2_d01_dome_ctrl_joint_names_array_id" count="1">d01_dome</Name_array>
          <technique_common>
            <accessor source="#mesh_2_d01_dome_ctrl_joint_names_array_id" count="1" stride="1">
              <param name="JOINT" type="Name" />
            </accessor>
          </technique_common>
        </source>
        <source id="mesh_2_d01_dome_ctrl_inv_bind_poses_id">
          <float_array id="mesh_2_d01_dome_ctrl_inv_bind_poses_array_id" count="16">1 0 0 -8789.25 0 1 0 101.024 0 0 1 -8777.25 0 0 0 1</float_array>
          <technique_common>
            <accessor source="#mesh_2_d01_dome_ctrl_inv_bind_poses_array_id" count="1" stride="16">
              <param name="TRANSFORM" type="float4x4" />
            </accessor>
          </technique_common>
        </source>
        <source id="mesh_2_d01_dome_ctrl_weights_id">
          <float_array id="mesh_2_d01_dome_ctrl_weights_array_id" count="1">1</float_array>
          <technique_common>
            <accessor source="#mesh_2_d01_dome_ctrl_weights_array_id" count="1" stride="1">
              <param name="WEIGHT" type="float" />
            </accessor>
          </technique_common>
        </source>
        <joints>
          <input semantic="JOINT" source="#mesh_2_d01_dome_ctrl_joint_names_id" />
          <input semantic="INV_BIND_MATRIX" source="#mesh_2_d01_dome_ctrl_inv_bind_poses_id" />
        </joints>
        <vertex_weights count="158">
          <input semantic="JOINT" source="#mesh_2_d01_dome_ctrl_joint_names_id" offset="0" />
          <input semantic="WEIGHT" source="#mesh_2_d01_dome_ctrl_weights_id" offset="1" />
          <vcount>1 1 1 1 1 1 1 1 1 1 1 1 1 1 1 1 1 1 1 1 1 1 1 1 1 1 1 1 1 1 1 1 1 1 1 1 1 1 1 1 1 1 1 1 1 1 1 1 1 1 1 1 1 1 1 1 1 1 1 1 1 1 1 1 1 1 1 1 1 1 1 1 1 1 1 1 1 1 1 1 1 1 1 1 1 1 1 1 1 1 1 1 1 1 1 1 1 1 1 1 1 1 1 1 1 1 1 1 1 1 1 1 1 1 1 1 1 1 1 1 1 1 1 1 1 1 1 1 1 1 1 1 1 1 1 1 1 1 1 1 1 1 1 1 1 1 1 1 1 1 1 1 1 1 1 1 1 1</vcount>
          <v>0 0 0 0 0 0 0 0 0 0 0 0 0 0 0 0 0 0 0 0 0 0 0 0 0 0 0 0 0 0 0 0 0 0 0 0 0 0 0 0 0 0 0 0 0 0 0 0 0 0 0 0 0 0 0 0 0 0 0 0 0 0 0 0 0 0 0 0 0 0 0 0 0 0 0 0 0 0 0 0 0 0 0 0 0 0 0 0 0 0 0 0 0 0 0 0 0 0 0 0 0 0 0 0 0 0 0 0 0 0 0 0 0 0 0 0 0 0 0 0 0 0 0 0 0 0 0 0 0 0 0 0 0 0 0 0 0 0 0 0 0 0 0 0 0 0 0 0 0 0 0 0 0 0 0 0 0 0 0 0 0 0 0 0 0 0 0 0 0 0 0 0 0 0 0 0 0 0 0 0 0 0 0 0 0 0 0 0 0 0 0 0 0 0 0 0 0 0 0 0 0 0 0 0 0 0 0 0 0 0 0 0 0 0 0 0 0 0 0 0 0 0 0 0 0 0 0 0 0 0 0 0 0 0 0 0 0 0 0 0 0 0 0 0 0 0 0 0 0 0 0 0 0 0 0 0 0 0 0 0 0 0 0 0 0 0 0 0 0 0 0 0 0 0 0 0 0 0 0 0 0 0 0 0 0 0 0 0 0 0 0 0 0 0 0 0 0 0 0 0 0 0 0 0 0 0 0 0 0 0 0 0 0 0 0 0</v>
        </vertex_weights>
      </skin>
    </controller>
  </library_controllers>
  <library_visual_scenes>
    <visual_scene id="vs_d01_dome_id" name="vs_d01_dome">
      <node id="d01_dome_bone_id" name="d01_dome" sid="d01_dome" type="JOINT">
        <matrix>1 0 0 8789.25 0 1 0 -101.024 0 0 1 8777.25 0 0 0 1</matrix>
      </node>
      <node id="vsn_mesh_0_d01_dome_id" name="vsn_mesh_0_d01_dome" type="NODE">
        <matrix>1 0 0 0 0 1 0 0 0 0 1 0 0 0 0 1</matrix>
        <instance_controller url="#mesh_0_d01_dome_ctrl_id">
          <skeleton>#d01_dome_bone_id</skeleton>
          <bind_material>
            <technique_common>
              <instance_material symbol="dome_wall" target="#dome_wall_mat_id" />
            </technique_common>
          </bind_material>
        </instance_controller>
      </node>
      <node id="vsn_mesh_1_d01_dome_id" name="vsn_mesh_1_d01_dome" type="NODE">
        <matrix>1 0 0 0 0 1 0 0 0 0 1 0 0 0 0 1</matrix>
        <instance_controller url="#mesh_1_d01_dome_ctrl_id">
          <skeleton>#d01_dome_bone_id</skeleton>
          <bind_material>
            <technique_common>
              <instance_material symbol="dome_sky" target="#dome_sky_mat_id" />
            </technique_common>
          </bind_material>
        </instance_controller>
      </node>
      <node id="vsn_mesh_2_d01_dome_id" name="vsn_mesh_2_d01_dome" type="NODE">
        <matrix>1 0 0 0 0 1 0 0 0 0 1 0 0 0 0 1</matrix>
        <instance_controller url="#mesh_2_d01_dome_ctrl_id">
          <skeleton>#d01_dome_bone_id</skeleton>
          <bind_material>
            <technique_common>
              <instance_material symbol="landscape" target="#landscape_mat_id" />
            </technique_common>
          </bind_material>
        </instance_controller>
      </node>
    </visual_scene>
  </library_visual_scenes>
  <scene>
    <instance_visual_scene url="#vs_d01_dome_id" />
  </scene>
</COLLADA>