version 1
nodes
0 "d01_dome" -1
end
skeleton
time 0
0 8789.25 -101.024 8777.25 0 0 0
end
triangles
d01_dome
0 4586.83 3397.056 -21.66016 0 0 0 -0.996094 -0.703125 1 0 1
0 8844.767 3397.056 -1005.42 0 0 0 -0.535156 -0.703125 1 0 1
0 8846.521 4584.256 3885.92 0 0 0 -0.0390625 -1.09961 1 0 1
d01_dome
0 8846.521 4584.256 3885.92 0 0 0 -0.0390625 -1.09961 1 0 1
0 6717.55 4584.256 4377.8 0 0 0 -0.269531 -1.09961 1 0 1
0 4586.83 3397.056 -21.66016 0 0 0 -0.996094 -0.703125 1 0 1
d01_dome
0 1706.94 3397.056 1910.68 0 0 0 -1.40207 -0.864222 1 0 1
0 4586.83 3397.056 -21.66016 0 0 0 -0.996094 -0.703125 1 0 1
0 6717.55 4584.256 4377.8 0 0 0 -0.269531 -1.09961 1 0 1
d01_dome
0 6717.55 4584.256 4377.8 0 0 0 -0.269531 -1.09961 1 0 1
0 5277.61 4584.256 5343.97 0 0 0 -0.472521 -1.18016 1 0 1
0 1706.94 3397.056 1910.68 0 0 0 -1.40207 -0.864222 1 0 1
d01_dome
0 -192.0703 3397.056 4817.51 0 0 0 -0.996094 -0.703125 1 0 1
0 1706.94 3397.056 1910.68 0 0 0 -1.40207 -0.864222 1 0 1
0 5277.61 4584.256 5343.97 0 0 0 -0.472521 -1.18016 1 0 1
d01_dome
0 5277.61 4584.256 5343.97 0 0 0 -0.472521 -1.18016 1 0 1
0 4328.1 4584.256 6797.38 0 0 0 -0.269531 -1.09961 1 0 1
0 -192.0703 3397.056 4817.51 0 0 0 -0.996094 -0.703125 1 0 1
d01_dome
0 -192.0703 3397.056 12773.74 0 0 0 -0.0196665 -0.829201 1 0 1
0 -919.8799 3397.056 8777.01 0 0 0 -0.535156 -0.703125 1 0 1
0 3964.2 4584.256 8777.13 0 0 0 -0.0390625 -1.09961 1 0 1
d01_dome
0 3964.2 4584.256 8777.13 0 0 0 -0.0390625 -1.09961 1 0 1
0 4328.1 4584.256 10775.49 0 0 0 0.218682 -1.16265 1 0 1
0 -192.0703 3397.056 12773.74 0 0 0 -0.0196665 -0.829201 1 0 1
d01_dome
0 4586.83 3397.056 17597.89 0 0 0 1.02734 -0.836205 1 0 1
0 1706.94 3397.056 15711.44 0 0 0 0.57314 -0.710129 1 0 1
0 5277.61 4584.256 12244.35 0 0 0 0.515086 -1.10311 1 0 1
d01_dome
0 5277.61 4584.256 12244.35 0 0 0 0.515086 -1.10311 1 0 1
0 6717.55 4584.256 13187.57 0 0 0 0.742188 -1.16615 1 0 1
0 4586.83 3397.056 17597.89 0 0 0 1.02734 -0.836205 1 0 1
d01_dome
0 8844.767 3397.056 18590.96 0 0 0 1.53516 -0.703125 1 0 1
0 4586.83 3397.056 17597.89 0 0 0 1.02734 -0.836205 1 0 1
0 6717.55 4584.256 13187.57 0 0 0 0.742188 -1.16615 1 0 1
d01_dome
0 6717.55 4584.256 13187.57 0 0 0 0.742188 -1.16615 1 0 1
0 8846.521 4584.256 13684.1 0 0 0 0.996094 -1.09961 1 0 1
0 8844.767 3397.056 18590.96 0 0 0 1.53516 -0.703125 1 0 1
d01_dome
0 13036.91 3397.056 17597.89 0 0 0 2.0528 -0.731142 1 0 1
0 8844.767 3397.056 18590.96 0 0 0 1.53516 -0.703125 1 0 1
0 8846.521 4584.256 13684.1 0 0 0 0.996094 -1.09961 1 0 1
d01_dome
0 8846.521 4584.256 13684.1 0 0 0 0.996094 -1.09961 1 0 1
0 10942.59 4584.256 13187.57 0 0 0 1.25492 -1.11362 1 0 1
0 13036.91 3397.056 17597.89 0 0 0 2.0528 -0.731142 1 0 1
d01_dome
0 15896.5 3397.056 15711.45 0 0 0 2.42928 -0.962281 1 0 1
0 13036.91 3397.056 17597.89 0 0 0 2.0528 -0.731142 1 0 1
0 10942.59 4584.256 13187.57 0 0 0 1.25492 -1.11362 1 0 1
d01_dome
0 10942.59 4584.256 13187.57 0 0 0 1.25492 -1.11362 1 0 1
0 12372.39 4584.256 12244.35 0 0 0 1.44316 -1.22919 1 0 1
0 15896.5 3397.056 15711.45 0 0 0 2.42928 -0.962281 1 0 1
d01_dome
0 17789.8 3397.056 12773.75 0 0 0 2.0528 -0.731142 1 0 1
0 15896.5 3397.056 15711.45 0 0 0 2.42928 -0.962281 1 0 1
0 12372.39 4584.256 12244.35 0 0 0 1.44316 -1.22919 1 0 1
d01_dome
0 12372.39 4584.256 12244.35 0 0 0 1.44316 -1.22919 1 0 1
0 13319.04 4584.256 10775.5 0 0 0 1.25492 -1.11362 1 0 1
0 17789.8 3397.056 12773.75 0 0 0 2.0528 -0.731142 1 0 1
d01_dome
0 17789.8 3397.056 4817.52 0 0 0 1.02734 -0.836205 1 0 1
0 18483.02 3397.056 8777.023 0 0 0 1.53516 -0.703125 1 0 1
0 13665.65 4584.256 8777.137 0 0 0 0.996094 -1.09961 1 0 1
d01_dome
0 13665.65 4584.256 8777.137 0 0 0 0.996094 -1.09961 1 0 1
0 13319.04 4584.256 6797.39 0 0 0 0.742188 -1.16615 1 0 1
0 17789.8 3397.056 4817.52 0 0 0 1.02734 -0.836205 1 0 1
d01_dome
0 13036.92 3397.056 -21.65039 0 0 0 -0.0196665 -0.829201 1 0 1
0 15896.5 3397.056 1910.69 0 0 0 0.57314 -0.710129 1 0 1
0 12372.39 4584.256 5343.97 0 0 0 0.515086 -1.10311 1 0 1
d01_dome
0 12372.39 4584.256 5343.97 0 0 0 0.515086 -1.10311 1 0 1
0 10942.6 4584.256 4377.8 0 0 0 0.218682 -1.16265 1 0 1
0 13036.92 3397.056 -21.65039 0 0 0 -0.0196665 -0.829201 1 0 1
d01_dome
0 13036.92 3397.056 -21.65039 0 0 0 -0.0196665 -0.829201 1 0 1
0 10942.6 4584.256 4377.8 0 0 0 0.218682 -1.16265 1 0 1
0 8846.521 4584.256 3885.92 0 0 0 -0.0390625 -1.09961 1 0 1
d01_dome
0 8846.521 4584.256 3885.92 0 0 0 -0.0390625 -1.09961 1 0 1
0 8844.767 3397.056 -1005.42 0 0 0 -0.535156 -0.703125 1 0 1
0 13036.92 3397.056 -21.65039 0 0 0 -0.0196665 -0.829201 1 0 1
d01_dome
0 8844.767 3397.056 -1005.42 0 0 0 -0.535156 -0.703125 1 0 1
0 4586.83 3397.056 -21.66016 0 0 0 -0.996094 -0.703125 1 0 1
0 3698.25 2305.666 -2019.35 0 0 0 -1.26091 -0.263606 1 0 1
d01_dome
0 3698.25 2305.666 -2019.35 0 0 0 -1.26091 -0.263606 1 0 1
0 8850.521 2305.666 -3187.75 0 0 0 -0.671875 -0.347656 1 0 1
0 8844.767 3397.056 -1005.42 0 0 0 -0.535156 -0.703125 1 0 1
d01_dome
0 4586.83 3397.056 -21.66016 0 0 0 -0.996094 -0.703125 1 0 1
0 1706.94 3397.056 1910.68 0 0 0 -1.40207 -0.864222 1 0 1
0 93.91992 2305.666 449.2695 0 0 0 -1.83984 -0.494745 1 0 1
d01_dome
0 93.91992 2305.666 449.2695 0 0 0 -1.83984 -0.494745 1 0 1
0 3698.25 2305.666 -2019.35 0 0 0 -1.26091 -0.263606 1 0 1
0 4586.83 3397.056 -21.66016 0 0 0 -0.996094 -0.703125 1 0 1
d01_dome
0 1706.94 3397.056 1910.68 0 0 0 -1.40207 -0.864222 1 0 1
0 -192.0703 3397.056 4817.51 0 0 0 -0.996094 -0.703125 1 0 1
0 -2173.25 2305.666 3975.21 0 0 0 -1.26091 -0.263606 1 0 1
d01_dome
0 -2173.25 2305.666 3975.21 0 0 0 -1.26091 -0.263606 1 0 1
0 93.91992 2305.666 449.2695 0 0 0 -1.83984 -0.494745 1 0 1
0 1706.94 3397.056 1910.68 0 0 0 -1.40207 -0.864222 1 0 1
d01_dome
0 -3029.65 2305.666 8777.518 0 0 0 -0.671875 -0.347656 1 0 1
0 -919.8799 3397.056 8777.01 0 0 0 -0.535156 -0.703125 1 0 1
0 -192.0703 3397.056 12773.74 0 0 0 -0.0196665 -0.829201 1 0 1
d01_dome
0 -192.0703 3397.056 12773.74 0 0 0 -0.0196665 -0.829201 1 0 1
0 -2173.25 2305.666 13627.49 0 0 0 0.068155 -0.375673 1 0 1
0 -3029.65 2305.666 8777.518 0 0 0 -0.671875 -0.347656 1 0 1
d01_dome
0 1706.94 3397.056 15711.44 0 0 0 0.57314 -0.710129 1 0 1
0 4586.83 3397.056 17597.89 0 0 0 1.02734 -0.836205 1 0 1
0 3698.24 2305.666 19590.45 0 0 0 1.06641 -0.347656 1 0 1
d01_dome
0 3698.24 2305.666 19590.45 0 0 0 1.06641 -0.347656 1 0 1
0 93.91992 2305.666 17191.98 0 0 0 0.496094 -0.347656 1 0 1
0 1706.94 3397.056 15711.44 0 0 0 0.57314 -0.710129 1 0 1
d01_dome
0 4586.83 3397.056 17597.89 0 0 0 1.02734 -0.836205 1 0 1
0 8844.767 3397.056 18590.96 0 0 0 1.53516 -0.703125 1 0 1
0 8850.521 2305.666 20759.45 0 0 0 1.62823 -0.27061 1 0 1
d01_dome
0 8850.521 2305.666 20759.45 0 0 0 1.62823 -0.27061 1 0 1
0 3698.24 2305.666 19590.45 0 0 0 1.06641 -0.347656 1 0 1
0 4586.83 3397.056 17597.89 0 0 0 1.02734 -0.836205 1 0 1
d01_dome
0 8844.767 3397.056 18590.96 0 0 0 1.53516 -0.703125 1 0 1
0 13036.91 3397.056 17597.89 0 0 0 2.0528 -0.731142 1 0 1
0 13925.33 2305.666 19590.55 0 0 0 2.26239 -0.515757 1 0 1
d01_dome
0 13925.33 2305.666 19590.55 0 0 0 2.26239 -0.515757 1 0 1
0 8850.521 2305.666 20759.45 0 0 0 1.62823 -0.27061 1 0 1
0 8844.767 3397.056 18590.96 0 0 0 1.53516 -0.703125 1 0 1
d01_dome
0 13036.91 3397.056 17597.89 0 0 0 2.0528 -0.731142 1 0 1
0 15896.5 3397.056 15711.45 0 0 0 2.42928 -0.962281 1 0 1
0 17364.09 2305.666 17191.99 0 0 0 2.81641 -0.466728 1 0 1
d01_dome
0 17364.09 2305.666 17191.99 0 0 0 2.81641 -0.466728 1 0 1
0 13925.33 2305.666 19590.55 0 0 0 2.26239 -0.515757 1 0 1
0 13036.91 3397.056 17597.89 0 0 0 2.0528 -0.731142 1 0 1
d01_dome
0 15896.5 3397.056 15711.45 0 0 0 2.42928 -0.962281 1 0 1
0 17789.8 3397.056 12773.75 0 0 0 2.0528 -0.731142 1 0 1
0 19688.65 2305.666 13627.51 0 0 0 2.26239 -0.515757 1 0 1
d01_dome
0 19688.65 2305.666 13627.51 0 0 0 2.26239 -0.515757 1 0 1
0 17364.09 2305.666 17191.99 0 0 0 2.81641 -0.466728 1 0 1
0 15896.5 3397.056 15711.45 0 0 0 2.42928 -0.962281 1 0 1
d01_dome
0 20590.35 2305.666 8777.534 0 0 0 1.62823 -0.27061 1 0 1
0 18483.02 3397.056 8777.023 0 0 0 1.53516 -0.703125 1 0 1
0 17789.8 3397.056 4817.52 0 0 0 1.02734 -0.836205 1 0 1
d01_dome
0 17789.8 3397.056 4817.52 0 0 0 1.02734 -0.836205 1 0 1
0 19688.65 2305.666 3975.23 0 0 0 1.06641 -0.347656 1 0 1
0 20590.35 2305.666 8777.534 0 0 0 1.62823 -0.27061 1 0 1
d01_dome
0 15896.5 3397.056 1910.69 0 0 0 0.57314 -0.710129 1 0 1
0 13036.92 3397.056 -21.65039 0 0 0 -0.0196665 -0.829201 1 0 1
0 13925.34 2305.666 -2019.35 0 0 0 0.068155 -0.375673 1 0 1
d01_dome
0 13925.34 2305.666 -2019.35 0 0 0 0.068155 -0.375673 1 0 1
0 17364.1 2305.666 449.2803 0 0 0 0.496094 -0.347656 1 0 1
0 15896.5 3397.056 1910.69 0 0 0 0.57314 -0.710129 1 0 1
d01_dome
0 13036.92 3397.056 -21.65039 0 0 0 -0.0196665 -0.829201 1 0 1
0 8844.767 3397.056 -1005.42 0 0 0 -0.535156 -0.703125 1 0 1
0 8850.521 2305.666 -3187.75 0 0 0 -0.671875 -0.347656 1 0 1
d01_dome
0 8850.521 2305.666 -3187.75 0 0 0 -0.671875 -0.347656 1 0 1
0 13925.34 2305.666 -2019.35 0 0 0 0.068155 -0.375673 1 0 1
0 13036.92 3397.056 -21.65039 0 0 0 -0.0196665 -0.829201 1 0 1
d01_dome
0 8850.521 2305.666 -3187.75 0 0 0 -0.671875 -0.347656 1 0 1
0 3698.25 2305.666 -2019.35 0 0 0 -1.26091 -0.263606 1 0 1
0 3203.79 1073.076 -3214.65 0 0 0 -1.408 0.112067 1 0 1
d01_dome
0 3203.79 1073.076 -3214.65 0 0 0 -1.408 0.112067 1 0 1
0 8854.191 1073.076 -4486.05 0 0 0 -0.517782 0.00700421 1 0 1
0 8850.521 2305.666 -3187.75 0 0 0 -0.671875 -0.347656 1 0 1
d01_dome
0 3698.25 2305.666 -2019.35 0 0 0 -1.26091 -0.263606 1 0 1
0 93.91992 2305.666 449.2695 0 0 0 -1.83984 -0.494745 1 0 1
0 -733.1104 1073.076 -389.3096 0 0 0 -1.83984 0 1 0 1
d01_dome
0 -733.1104 1073.076 -389.3096 0 0 0 -1.83984 0 1 0 1
0 3203.79 1073.076 -3214.65 0 0 0 -1.408 0.112067 1 0 1
0 3698.25 2305.666 -2019.35 0 0 0 -1.26091 -0.263606 1 0 1
d01_dome
0 93.91992 2305.666 449.2695 0 0 0 -1.83984 -0.494745 1 0 1
0 -2173.25 2305.666 3975.21 0 0 0 -1.26091 -0.263606 1 0 1
0 -3269.25 1073.076 3491.15 0 0 0 -1.408 0.112067 1 0 1
d01_dome
0 -3269.25 1073.076 3491.15 0 0 0 -1.408 0.112067 1 0 1
0 -733.1104 1073.076 -389.3096 0 0 0 -1.83984 0 1 0 1
0 93.91992 2305.666 449.2695 0 0 0 -1.83984 -0.494745 1 0 1
d01_dome
0 -4277.55 1073.076 8776.216 0 0 0 -0.517782 0.00700421 1 0 1
0 -3029.65 2305.666 8777.518 0 0 0 -0.671875 -0.347656 1 0 1
0 -2173.25 2305.666 13627.49 0 0 0 0.068155 -0.375673 1 0 1
d01_dome
0 -2173.25 2305.666 13627.49 0 0 0 0.068155 -0.375673 1 0 1
0 -3269.25 1073.076 14111.01 0 0 0 0.0541466 0.0840505 1 0 1
0 -4277.55 1073.076 8776.216 0 0 0 -0.517782 0.00700421 1 0 1
d01_dome
0 93.91992 2305.666 17191.98 0 0 0 0.496094 -0.347656 1 0 1
0 3698.24 2305.666 19590.45 0 0 0 1.06641 -0.347656 1 0 1
0 3203.78 1073.076 20785.65 0 0 0 0.954339 0.0560336 1 0 1
d01_dome
0 3203.78 1073.076 20785.65 0 0 0 0.954339 0.0560336 1 0 1
0 -733.1104 1073.076 18031.75 0 0 0 0.496094 0 1 0 1
0 93.91992 2305.666 17191.98 0 0 0 0.496094 -0.347656 1 0 1
d01_dome
0 3698.24 2305.666 19590.45 0 0 0 1.06641 -0.347656 1 0 1
0 8850.521 2305.666 20759.45 0 0 0 1.62823 -0.27061 1 0 1
0 8854.191 1073.076 22057.75 0 0 0 1.7566 0.112067 1 0 1
d01_dome
0 8854.191 1073.076 22057.75 0 0 0 1.7566 0.112067 1 0 1
0 3203.78 1073.076 20785.65 0 0 0 0.954339 0.0560336 1 0 1
0 3698.24 2305.666 19590.45 0 0 0 1.06641 -0.347656 1 0 1
d01_dome
0 8850.521 2305.666 20759.45 0 0 0 1.62823 -0.27061 1 0 1
0 13925.33 2305.666 19590.55 0 0 0 2.26239 -0.515757 1 0 1
0 14422.29 1073.076 20785.65 0 0 0 2.23438 0 1 0 1
d01_dome
0 14422.29 1073.076 20785.65 0 0 0 2.23438 0 1 0 1
0 8854.191 1073.076 22057.75 0 0 0 1.7566 0.112067 1 0 1
0 8850.521 2305.666 20759.45 0 0 0 1.62823 -0.27061 1 0 1
d01_dome
0 13925.33 2305.666 19590.55 0 0 0 2.26239 -0.515757 1 0 1
0 17364.09 2305.666 17191.99 0 0 0 2.81641 -0.466728 1 0 1
0 18307.92 1073.076 18031.76 0 0 0 2.81641 0 1 0 1
d01_dome
0 18307.92 1073.076 18031.76 0 0 0 2.81641 0 1 0 1
0 14422.29 1073.076 20785.65 0 0 0 2.23438 0 1 0 1
0 13925.33 2305.666 19590.55 0 0 0 2.26239 -0.515757 1 0 1
d01_dome
0 17364.09 2305.666 17191.99 0 0 0 2.81641 -0.466728 1 0 1
0 19688.65 2305.666 13627.51 0 0 0 2.26239 -0.515757 1 0 1
0 20854.85 1073.076 14111.03 0 0 0 2.23438 0 1 0 1
d01_dome
0 20854.85 1073.076 14111.03 0 0 0 2.23438 0 1 0 1
0 18307.92 1073.076 18031.76 0 0 0 2.81641 0 1 0 1
0 17364.09 2305.666 17191.99 0 0 0 2.81641 -0.466728 1 0 1
d01_dome
0 21841.95 1073.076 8776.234 0 0 0 1.7566 0.112067 1 0 1
0 20590.35 2305.666 8777.534 0 0 0 1.62823 -0.27061 1 0 1
0 19688.65 2305.666 3975.23 0 0 0 1.06641 -0.347656 1 0 1
d01_dome
0 19688.65 2305.666 3975.23 0 0 0 1.06641 -0.347656 1 0 1
0 20854.85 1073.076 3491.17 0 0 0 0.954339 0.0560336 1 0 1
0 21841.95 1073.076 8776.234 0 0 0 1.7566 0.112067 1 0 1
d01_dome
0 17364.1 2305.666 449.2803 0 0 0 0.496094 -0.347656 1 0 1
0 13925.34 2305.666 -2019.35 0 0 0 0.068155 -0.375673 1 0 1
0 14422.3 1073.076 -3214.65 0 0 0 0.0541466 0.0840505 1 0 1
d01_dome
0 14422.3 1073.076 -3214.65 0 0 0 0.0541466 0.0840505 1 0 1
0 18307.93 1073.076 -389.2998 0 0 0 0.496094 0 1 0 1
0 17364.1 2305.666 449.2803 0 0 0 0.496094 -0.347656 1 0 1
d01_dome
0 13925.34 2305.666 -2019.35 0 0 0 0.068155 -0.375673 1 0 1
0 8850.521 2305.666 -3187.75 0 0 0 -0.671875 -0.347656 1 0 1
0 8854.191 1073.076 -4486.05 0 0 0 -0.517782 0.00700421 1 0 1
d01_dome
0 8854.191 1073.076 -4486.05 0 0 0 -0.517782 0.00700421 1 0 1
0 14422.3 1073.076 -3214.65 0 0 0 0.0541466 0.0840505 1 0 1
0 13925.34 2305.666 -2019.35 0 0 0 0.068155 -0.375673 1 0 1
d01_dome
0 8854.191 1073.076 -4486.05 0 0 0 -0.517782 0.00700421 1 0 1
0 3203.79 1073.076 -3214.65 0 0 0 -1.408 0.112067 1 0 1
0 3013.65 -345 -3623.55 0 0 0 -1.25391 0.378906 1 0 1
d01_dome
0 3013.65 -345 -3623.55 0 0 0 -1.25391 0.378906 1 0 1
0 8856.402 -345 -4938.25 0 0 0 -0.671875 0.378906 1 0 1
0 8854.191 1073.076 -4486.05 0 0 0 -0.517782 0.00700421 1 0 1
d01_dome
0 3203.79 1073.076 -3214.65 0 0 0 -1.408 0.112067 1 0 1
0 -733.1104 1073.076 -389.3096 0 0 0 -1.83984 0 1 0 1
0 -1057.27 -345 -702.04 0 0 0 -1.83984 0.378906 1 0 1
d01_dome
0 -1057.27 -345 -702.04 0 0 0 -1.83984 0.378906 1 0 1
0 3013.65 -345 -3623.55 0 0 0 -1.25391 0.378906 1 0 1
0 3203.79 1073.076 -3214.65 0 0 0 -1.408 0.112067 1 0 1
d01_dome
0 -3688.25 -345 3310.52 0 0 0 -1.25391 0.378906 1 0 1
0 -3269.25 1073.076 3491.15 0 0 0 -1.408 0.112067 1 0 1
0 -4277.55 1073.076 8776.216 0 0 0 -0.517782 0.00700421 1 0 1
d01_dome
0 -4277.55 1073.076 8776.216 0 0 0 -0.517782 0.00700421 1 0 1
0 -4740.15 -345 8775.499 0 0 0 -0.671875 0.378906 1 0 1
0 -3688.25 -345 3310.52 0 0 0 -1.25391 0.378906 1 0 1
d01_dome
0 -3688.25 -345 14291.9 0 0 0 -0.0859375 0.378906 1 0 1
0 -3269.25 1073.076 14111.01 0 0 0 0.0541466 0.0840505 1 0 1
0 -733.1104 1073.076 18031.75 0 0 0 0.496094 0 1 0 1
d01_dome
0 -733.1104 1073.076 18031.75 0 0 0 0.496094 0 1 0 1
0 -1057.27 -345 18346.11 0 0 0 0.496094 0.378906 1 0 1
0 -3688.25 -345 14291.9 0 0 0 -0.0859375 0.378906 1 0 1
d01_dome
0 -733.1104 1073.076 18031.75 0 0 0 0.496094 0 1 0 1
0 3203.78 1073.076 20785.65 0 0 0 0.954339 0.0560336 1 0 1
0 3013.64 -345 21193.75 0 0 0 1.06641 0.378906 1 0 1
d01_dome
0 3013.64 -345 21193.75 0 0 0 1.06641 0.378906 1 0 1
0 -1057.27 -345 18346.11 0 0 0 0.496094 0.378906 1 0 1
0 -733.1104 1073.076 18031.75 0 0 0 0.496094 0 1 0 1
d01_dome
0 3203.78 1073.076 20785.65 0 0 0 0.954339 0.0560336 1 0 1
0 8854.191 1073.076 22057.75 0 0 0 1.7566 0.112067 1 0 1
0 8856.403 -345 22509.25 0 0 0 1.64453 0.378906 1 0 1
d01_dome
0 8856.403 -345 22509.25 0 0 0 1.64453 0.378906 1 0 1
0 3013.64 -345 21193.75 0 0 0 1.06641 0.378906 1 0 1
0 3203.78 1073.076 20785.65 0 0 0 0.954339 0.0560336 1 0 1
d01_dome
0 8854.191 1073.076 22057.75 0 0 0 1.7566 0.112067 1 0 1
0 14422.29 1073.076 20785.65 0 0 0 2.23438 0 1 0 1
0 14614.05 -345 21193.75 0 0 0 2.23438 0.378906 1 0 1
d01_dome
0 14614.05 -345 21193.75 0 0 0 2.23438 0.378906 1 0 1
0 8856.403 -345 22509.25 0 0 0 1.64453 0.378906 1 0 1
0 8854.191 1073.076 22057.75 0 0 0 1.7566 0.112067 1 0 1
d01_dome
0 14422.29 1073.076 20785.65 0 0 0 2.23438 0 1 0 1
0 18307.92 1073.076 18031.76 0 0 0 2.81641 0 1 0 1
0 18631.96 -345 18346.12 0 0 0 2.81641 0.378906 1 0 1
d01_dome
0 18631.96 -345 18346.12 0 0 0 2.81641 0.378906 1 0 1
0 14614.05 -345 21193.75 0 0 0 2.23438 0.378906 1 0 1
0 14422.29 1073.076 20785.65 0 0 0 2.23438 0 1 0 1
d01_dome
0 21265.55 -345 14291.92 0 0 0 2.23438 0.378906 1 0 1
0 20854.85 1073.076 14111.03 0 0 0 2.23438 0 1 0 1
0 21841.95 1073.076 8776.234 0 0 0 1.7566 0.112067 1 0 1
d01_dome
0 21841.95 1073.076 8776.234 0 0 0 1.7566 0.112067 1 0 1
0 22286.25 -345 8775.519 0 0 0 1.64453 0.378906 1 0 1
0 21265.55 -345 14291.92 0 0 0 2.23438 0.378906 1 0 1
d01_dome
0 21265.55 -345 3310.54 0 0 0 1.06641 0.378906 1 0 1
0 20854.85 1073.076 3491.17 0 0 0 0.954339 0.0560336 1 0 1
0 18307.93 1073.076 -389.2998 0 0 0 0.496094 0 1 0 1
d01_dome
0 18307.93 1073.076 -389.2998 0 0 0 0.496094 0 1 0 1
0 18631.97 -345 -702.0303 0 0 0 0.496094 0.378906 1 0 1
0 21265.55 -345 3310.54 0 0 0 1.06641 0.378906 1 0 1
d01_dome
0 18307.93 1073.076 -389.2998 0 0 0 0.496094 0 1 0 1
0 14422.3 1073.076 -3214.65 0 0 0 0.0541466 0.0840505 1 0 1
0 14614.07 -345 -3623.55 0 0 0 -0.0859375 0.378906 1 0 1
d01_dome
0 14614.07 -345 -3623.55 0 0 0 -0.0859375 0.378906 1 0 1
0 18631.97 -345 -702.0303 0 0 0 0.496094 0.378906 1 0 1
0 18307.93 1073.076 -389.2998 0 0 0 0.496094 0 1 0 1
d01_dome
0 14422.3 1073.076 -3214.65 0 0 0 0.0541466 0.0840505 1 0 1
0 8854.191 1073.076 -4486.05 0 0 0 -0.517782 0.00700421 1 0 1
0 8856.402 -345 -4938.25 0 0 0 -0.671875 0.378906 1 0 1
d01_dome
0 8856.402 -345 -4938.25 0 0 0 -0.671875 0.378906 1 0 1
0 14614.07 -345 -3623.55 0 0 0 -0.0859375 0.378906 1 0 1
0 14422.3 1073.076 -3214.65 0 0 0 0.0541466 0.0840505 1 0 1
d01_dome
0 17789.8 3397.056 12773.75 0 0 0 2.0528 -0.731142 1 0 1
0 18483.02 3397.056 8777.023 0 0 0 1.53516 -0.703125 1 0 1
0 20590.35 2305.666 8777.534 0 0 0 1.62823 -0.27061 1 0 1
d01_dome
0 20590.35 2305.666 8777.534 0 0 0 1.62823 -0.27061 1 0 1
0 19688.65 2305.666 13627.51 0 0 0 2.26239 -0.515757 1 0 1
0 17789.8 3397.056 12773.75 0 0 0 2.0528 -0.731142 1 0 1
d01_dome
0 15896.5 3397.056 1910.69 0 0 0 0.57314 -0.710129 1 0 1
0 17364.1 2305.666 449.2803 0 0 0 0.496094 -0.347656 1 0 1
0 19688.65 2305.666 3975.23 0 0 0 1.06641 -0.347656 1 0 1
d01_dome
0 19688.65 2305.666 3975.23 0 0 0 1.06641 -0.347656 1 0 1
0 17789.8 3397.056 4817.52 0 0 0 1.02734 -0.836205 1 0 1
0 15896.5 3397.056 1910.69 0 0 0 0.57314 -0.710129 1 0 1
d01_dome
0 19688.65 2305.666 13627.51 0 0 0 2.26239 -0.515757 1 0 1
0 20590.35 2305.666 8777.534 0 0 0 1.62823 -0.27061 1 0 1
0 21841.95 1073.076 8776.234 0 0 0 1.7566 0.112067 1 0 1
d01_dome
0 21841.95 1073.076 8776.234 0 0 0 1.7566 0.112067 1 0 1
0 20854.85 1073.076 14111.03 0 0 0 2.23438 0 1 0 1
0 19688.65 2305.666 13627.51 0 0 0 2.26239 -0.515757 1 0 1
d01_dome
0 17364.1 2305.666 449.2803 0 0 0 0.496094 -0.347656 1 0 1
0 18307.93 1073.076 -389.2998 0 0 0 0.496094 0 1 0 1
0 20854.85 1073.076 3491.17 0 0 0 0.954339 0.0560336 1 0 1
d01_dome
0 20854.85 1073.076 3491.17 0 0 0 0.954339 0.0560336 1 0 1
0 19688.65 2305.666 3975.23 0 0 0 1.06641 -0.347656 1 0 1
0 17364.1 2305.666 449.2803 0 0 0 0.496094 -0.347656 1 0 1
d01_dome
0 18631.96 -345 18346.12 0 0 0 2.81641 0.378906 1 0 1
0 18307.92 1073.076 18031.76 0 0 0 2.81641 0 1 0 1
0 20854.85 1073.076 14111.03 0 0 0 2.23438 0 1 0 1
d01_dome
0 20854.85 1073.076 14111.03 0 0 0 2.23438 0 1 0 1
0 21265.55 -345 14291.92 0 0 0 2.23438 0.378906 1 0 1
0 18631.96 -345 18346.12 0 0 0 2.81641 0.378906 1 0 1
d01_dome
0 22286.25 -345 8775.519 0 0 0 1.64453 0.378906 1 0 1
0 21841.95 1073.076 8776.234 0 0 0 1.7566 0.112067 1 0 1
0 20854.85 1073.076 3491.17 0 0 0 0.954339 0.0560336 1 0 1
d01_dome
0 20854.85 1073.076 3491.17 0 0 0 0.954339 0.0560336 1 0 1
0 21265.55 -345 3310.54 0 0 0 1.06641 0.378906 1 0 1
0 22286.25 -345 8775.519 0 0 0 1.64453 0.378906 1 0 1
d01_dome
0 -192.0703 3397.056 4817.51 0 0 0 -0.996094 -0.703125 1 0 1
0 -919.8799 3397.056 8777.01 0 0 0 -0.535156 -0.703125 1 0 1
0 -3029.65 2305.666 8777.518 0 0 0 -0.671875 -0.347656 1 0 1
d01_dome
0 -3029.65 2305.666 8777.518 0 0 0 -0.671875 -0.347656 1 0 1
0 -2173.25 2305.666 3975.21 0 0 0 -1.26091 -0.263606 1 0 1
0 -192.0703 3397.056 4817.51 0 0 0 -0.996094 -0.703125 1 0 1
d01_dome
0 1706.94 3397.056 15711.44 0 0 0 0.57314 -0.710129 1 0 1
0 93.91992 2305.666 17191.98 0 0 0 0.496094 -0.347656 1 0 1
0 -2173.25 2305.666 13627.49 0 0 0 0.068155 -0.375673 1 0 1
d01_dome
0 -2173.25 2305.666 13627.49 0 0 0 0.068155 -0.375673 1 0 1
0 -192.0703 3397.056 12773.74 0 0 0 -0.0196665 -0.829201 1 0 1
0 1706.94 3397.056 15711.44 0 0 0 0.57314 -0.710129 1 0 1
d01_dome
0 -2173.25 2305.666 3975.21 0 0 0 -1.26091 -0.263606 1 0 1
0 -3029.65 2305.666 8777.518 0 0 0 -0.671875 -0.347656 1 0 1
0 -4277.55 1073.076 8776.216 0 0 0 -0.517782 0.00700421 1 0 1
d01_dome
0 -4277.55 1073.076 8776.216 0 0 0 -0.517782 0.00700421 1 0 1
0 -3269.25 1073.076 3491.15 0 0 0 -1.408 0.112067 1 0 1
0 -2173.25 2305.666 3975.21 0 0 0 -1.26091 -0.263606 1 0 1
d01_dome
0 93.91992 2305.666 17191.98 0 0 0 0.496094 -0.347656 1 0 1
0 -733.1104 1073.076 18031.75 0 0 0 0.496094 0 1 0 1
0 -3269.25 1073.076 14111.01 0 0 0 0.0541466 0.0840505 1 0 1
d01_dome
0 -3269.25 1073.076 14111.01 0 0 0 0.0541466 0.0840505 1 0 1
0 -2173.25 2305.666 13627.49 0 0 0 0.068155 -0.375673 1 0 1
0 93.91992 2305.666 17191.98 0 0 0 0.496094 -0.347656 1 0 1
d01_dome
0 -1057.27 -345 -702.04 0 0 0 -1.83984 0.378906 1 0 1
0 -733.1104 1073.076 -389.3096 0 0 0 -1.83984 0 1 0 1
0 -3269.25 1073.076 3491.15 0 0 0 -1.408 0.112067 1 0 1
d01_dome
0 -3269.25 1073.076 3491.15 0 0 0 -1.408 0.112067 1 0 1
0 -3688.25 -345 3310.52 0 0 0 -1.25391 0.378906 1 0 1
0 -1057.27 -345 -702.04 0 0 0 -1.83984 0.378906 1 0 1
d01_dome
0 -4740.15 -345 8775.499 0 0 0 -0.671875 0.378906 1 0 1
0 -4277.55 1073.076 8776.216 0 0 0 -0.517782 0.00700421 1 0 1
0 -3269.25 1073.076 14111.01 0 0 0 0.0541466 0.0840505 1 0 1
d01_dome
0 -3269.25 1073.076 14111.01 0 0 0 0.0541466 0.0840505 1 0 1
0 -3688.25 -345 14291.9 0 0 0 -0.0859375 0.378906 1 0 1
0 -4740.15 -345 8775.499 0 0 0 -0.671875 0.378906 1 0 1
d01_dome
0 8848.273 4813.256 8777.25 0 0 0 0.457031 -1.49609 1 0 1
0 3964.2 4584.256 8777.13 0 0 0 -0.0390625 -1.09961 1 0 1
0 4328.1 4584.256 6797.38 0 0 0 -0.269531 -1.09961 1 0 1
d01_dome
0 8848.273 4813.256 8777.25 0 0 0 0.457031 -1.49609 1 0 1
0 5277.61 4584.256 12244.35 0 0 0 0.515086 -1.10311 1 0 1
0 4328.1 4584.256 10775.49 0 0 0 0.218682 -1.16265 1 0 1
d01_dome
0 8848.273 4813.256 8777.25 0 0 0 0.457031 -1.49609 1 0 1
0 13665.65 4584.256 8777.137 0 0 0 0.996094 -1.09961 1 0 1
0 13319.04 4584.256 10775.5 0 0 0 1.25492 -1.11362 1 0 1
d01_dome
0 8848.273 4813.256 8777.25 0 0 0 0.457031 -1.49609 1 0 1
0 12372.39 4584.256 5343.97 0 0 0 0.515086 -1.10311 1 0 1
0 13319.04 4584.256 6797.39 0 0 0 0.742188 -1.16615 1 0 1
d01_dome
0 8846.521 4584.256 3885.92 0 0 0 -0.0390625 -1.09961 1 0 1
0 8848.273 4813.256 8777.25 0 0 0 0.457031 -1.49609 1 0 1
0 6717.55 4584.256 4377.8 0 0 0 -0.269531 -1.09961 1 0 1
d01_dome
0 6717.55 4584.256 4377.8 0 0 0 -0.269531 -1.09961 1 0 1
0 8848.273 4813.256 8777.25 0 0 0 0.457031 -1.49609 1 0 1
0 5277.61 4584.256 5343.97 0 0 0 -0.472521 -1.18016 1 0 1
d01_dome
0 5277.61 4584.256 5343.97 0 0 0 -0.472521 -1.18016 1 0 1
0 8848.273 4813.256 8777.25 0 0 0 0.457031 -1.49609 1 0 1
0 4328.1 4584.256 6797.38 0 0 0 -0.269531 -1.09961 1 0 1
d01_dome
0 3964.2 4584.256 8777.13 0 0 0 -0.0390625 -1.09961 1 0 1
0 8848.273 4813.256 8777.25 0 0 0 0.457031 -1.49609 1 0 1
0 4328.1 4584.256 10775.49 0 0 0 0.218682 -1.16265 1 0 1
d01_dome
0 5277.61 4584.256 12244.35 0 0 0 0.515086 -1.10311 1 0 1
0 8848.273 4813.256 8777.25 0 0 0 0.457031 -1.49609 1 0 1
0 6717.55 4584.256 13187.57 0 0 0 0.742188 -1.16615 1 0 1
d01_dome
0 6717.55 4584.256 13187.57 0 0 0 0.742188 -1.16615 1 0 1
0 8848.273 4813.256 8777.25 0 0 0 0.457031 -1.49609 1 0 1
0 8846.521 4584.256 13684.1 0 0 0 0.996094 -1.09961 1 0 1
d01_dome
0 8846.521 4584.256 13684.1 0 0 0 0.996094 -1.09961 1 0 1
0 8848.273 4813.256 8777.25 0 0 0 0.457031 -1.49609 1 0 1
0 10942.59 4584.256 13187.57 0 0 0 1.25492 -1.11362 1 0 1
d01_dome
0 10942.59 4584.256 13187.57 0 0 0 1.25492 -1.11362 1 0 1
0 8848.273 4813.256 8777.25 0 0 0 0.457031 -1.49609 1 0 1
0 12372.39 4584.256 12244.35 0 0 0 1.44316 -1.22919 1 0 1
d01_dome
0 12372.39 4584.256 12244.35 0 0 0 1.44316 -1.22919 1 0 1
0 8848.273 4813.256 8777.25 0 0 0 0.457031 -1.49609 1 0 1
0 13319.04 4584.256 10775.5 0 0 0 1.25492 -1.11362 1 0 1
d01_dome
0 13665.65 4584.256 8777.137 0 0 0 0.996094 -1.09961 1 0 1
0 8848.273 4813.256 8777.25 0 0 0 0.457031 -1.49609 1 0 1
0 13319.04 4584.256 6797.39 0 0 0 0.742188 -1.16615 1 0 1
d01_dome
0 12372.39 4584.256 5343.97 0 0 0 0.515086 -1.10311 1 0 1
0 8848.273 4813.256 8777.25 0 0 0 0.457031 -1.49609 1 0 1
0 10942.6 4584.256 4377.8 0 0 0 0.218682 -1.16265 1 0 1
d01_dome
0 10942.6 4584.256 4377.8 0 0 0 0.218682 -1.16265 1 0 1
0 8848.273 4813.256 8777.25 0 0 0 0.457031 -1.49609 1 0 1
0 8846.521 4584.256 3885.92 0 0 0 -0.0390625 -1.09961 1 0 1
d01_dome
0 -192.0703 3397.056 4817.51 0 0 0 -0.996094 -0.703125 1 0 1
0 4328.1 4584.256 6797.38 0 0 0 -0.269531 -1.09961 1 0 1
0 3964.2 4584.256 8777.13 0 0 0 -0.0390625 -1.09961 1 0 1
d01_dome
0 3964.2 4584.256 8777.13 0 0 0 -0.0390625 -1.09961 1 0 1
0 -919.8799 3397.056 8777.01 0 0 0 -0.535156 -0.703125 1 0 1
0 -192.0703 3397.056 4817.51 0 0 0 -0.996094 -0.703125 1 0 1
d01_dome
0 -192.0703 3397.056 12773.74 0 0 0 -0.0196665 -0.829201 1 0 1
0 4328.1 4584.256 10775.49 0 0 0 0.218682 -1.16265 1 0 1
0 5277.61 4584.256 12244.35 0 0 0 0.515086 -1.10311 1 0 1
d01_dome
0 5277.61 4584.256 12244.35 0 0 0 0.515086 -1.10311 1 0 1
0 1706.94 3397.056 15711.44 0 0 0 0.57314 -0.710129 1 0 1
0 -192.0703 3397.056 12773.74 0 0 0 -0.0196665 -0.829201 1 0 1
d01_dome
0 17789.8 3397.056 12773.75 0 0 0 2.0528 -0.731142 1 0 1
0 13319.04 4584.256 10775.5 0 0 0 1.25492 -1.11362 1 0 1
0 13665.65 4584.256 8777.137 0 0 0 0.996094 -1.09961 1 0 1
d01_dome
0 13665.65 4584.256 8777.137 0 0 0 0.996094 -1.09961 1 0 1
0 18483.02 3397.056 8777.023 0 0 0 1.53516 -0.703125 1 0 1
0 17789.8 3397.056 12773.75 0 0 0 2.0528 -0.731142 1 0 1
d01_dome
0 17789.8 3397.056 4817.52 0 0 0 1.02734 -0.836205 1 0 1
0 13319.04 4584.256 6797.39 0 0 0 0.742188 -1.16615 1 0 1
0 12372.39 4584.256 5343.97 0 0 0 0.515086 -1.10311 1 0 1
d01_dome
0 12372.39 4584.256 5343.97 0 0 0 0.515086 -1.10311 1 0 1
0 15896.5 3397.056 1910.69 0 0 0 0.57314 -0.710129 1 0 1
0 17789.8 3397.056 4817.52 0 0 0 1.02734 -0.836205 1 0 1
d01_dome_sky
0 3013.65 -345 -3623.55 0 0 0 0.596848 3.97559 1 0 1
0 8848.273 -345 8777.255 0 0 0 1.77877 1.59985 1 0 1
0 8856.402 -345 -4938.25 0 0 0 1.78042 4.22747 1 0 1
d01_dome_sky
0 -1057.27 -345 18346.11 0 0 0 -0.227799 -0.233351 1 0 1
0 8848.273 -345 8777.255 0 0 0 1.77877 1.59985 1 0 1
0 -3688.25 -345 14291.9 0 0 0 -0.760763 0.543354 1 0 1
d01_dome_sky
0 8856.403 -345 22509.25 0 0 0 1.78042 -1.03092 1 0 1
0 14614.05 -345 21193.75 0 0 0 2.94674 -0.778908 1 0 1
0 8848.273 -345 8777.255 0 0 0 1.77877 1.59985 1 0 1
d01_dome_sky
0 14614.05 -345 21193.75 0 0 0 2.94674 -0.778908 1 0 1
0 18631.96 -345 18346.12 0 0 0 3.76065 -0.233354 1 0 1
0 8848.273 -345 8777.255 0 0 0 1.77877 1.59985 1 0 1
d01_dome_sky
0 3013.64 -345 21193.75 0 0 0 0.596846 -0.778906 1 0 1
0 8856.403 -345 22509.25 0 0 0 1.78042 -1.03092 1 0 1
0 8848.273 -345 8777.255 0 0 0 1.77877 1.59985 1 0 1
d01_dome_sky
0 18631.96 -345 18346.12 0 0 0 3.76065 -0.233354 1 0 1
0 21265.55 -345 14291.92 0 0 0 4.29415 0.54335 1 0 1
0 8848.273 -345 8777.255 0 0 0 1.77877 1.59985 1 0 1
d01_dome_sky
0 -1057.27 -345 18346.11 0 0 0 -0.227799 -0.233351 1 0 1
0 3013.64 -345 21193.75 0 0 0 0.596846 -0.778906 1 0 1
0 8848.273 -345 8777.255 0 0 0 1.77877 1.59985 1 0 1
d01_dome_sky
0 8848.273 -345 8777.255 0 0 0 1.77877 1.59985 1 0 1
0 14614.07 -345 -3623.55 0 0 0 2.94675 3.97559 1 0 1
0 8856.402 -345 -4938.25 0 0 0 1.78042 4.22747 1 0 1
d01_dome_sky
0 3013.65 -345 -3623.55 0 0 0 0.596848 3.97559 1 0 1
0 -1057.27 -345 -702.04 0 0 0 -0.227798 3.41589 1 0 1
0 8848.273 -345 8777.255 0 0 0 1.77877 1.59985 1 0 1
d01_dome_sky
0 -1057.27 -345 -702.04 0 0 0 -0.227798 3.41589 1 0 1
0 -3688.25 -345 3310.52 0 0 0 -0.760762 2.64717 1 0 1
0 8848.273 -345 8777.255 0 0 0 1.77877 1.59985 1 0 1
d01_dome_sky
0 8848.273 -345 8777.255 0 0 0 1.77877 1.59985 1 0 1
0 18631.97 -345 -702.0303 0 0 0 3.76066 3.41589 1 0 1
0 14614.07 -345 -3623.55 0 0 0 2.94675 3.97559 1 0 1
d01_dome_sky
0 8848.273 -345 8777.255 0 0 0 1.77877 1.59985 1 0 1
0 21265.55 -345 3310.54 0 0 0 4.29415 2.64716 1 0 1
0 18631.97 -345 -702.0303 0 0 0 3.76066 3.41589 1 0 1
d01_dome_sky
0 8848.273 -345 8777.255 0 0 0 1.77877 1.59985 1 0 1
0 -4740.15 -345 8775.499 0 0 0 -0.973835 1.60019 1 0 1
0 -3688.25 -345 14291.9 0 0 0 -0.760763 0.543354 1 0 1
d01_dome_sky
0 -3688.25 -345 3310.52 0 0 0 -0.760762 2.64717 1 0 1
0 -4740.15 -345 8775.499 0 0 0 -0.973835 1.60019 1 0 1
0 8848.273 -345 8777.255 0 0 0 1.77877 1.59985 1 0 1
d01_dome_sky
0 21265.55 -345 14291.92 0 0 0 4.29415 0.54335 1 0 1
0 22286.25 -345 8775.519 0 0 0 4.50091 1.60018 1 0 1
0 8848.273 -345 8777.255 0 0 0 1.77877 1.59985 1 0 1
d01_dome_sky
0 8848.273 -345 8777.255 0 0 0 1.77877 1.59985 1 0 1
0 22286.25 -345 8775.519 0 0 0 4.50091 1.60018 1 0 1
0 21265.55 -345 3310.54 0 0 0 4.29415 2.64716 1 0 1
d01_landscape
0 19416.95 499.361 8777.25 -0.990305 -0.138144 -0.0145542 12.9948 0.417777 1 0 1
0 18776 401.885 5142.37 -0.932776 -0.143792 0.330535 13.9948 0.411822 1 0 1
0 18551.55 -304.933 5224.06 -0.914293 0.306882 0.264371 13.9941 0 1 0 1
d01_landscape
0 18551.55 -304.933 5224.06 -0.914293 0.306882 0.264371 13.9941 0 1 0 1
0 19178.05 -304.933 8777.25 -0.954152 0.295184 -0.0496063 12.9946 0 1 0 1
0 19416.95 499.361 8777.25 -0.990305 -0.138144 -0.0145542 12.9948 0.417777 1 0 1
d01_landscape
0 18776 401.885 5142.37 -0.932776 -0.143792 0.330535 13.9948 0.411822 1 0 1
0 16930.52 401.885 1945.91 -0.765536 -0.145027 0.626835 14.994 0.411895 1 0 1
0 16747.55 -304.933 2099.44 -0.76085 0.319629 0.564752 14.9937 0 1 0 1
d01_landscape
0 16747.55 -304.933 2099.44 -0.76085 0.319629 0.564752 14.9937 0 1 0 1
0 18551.55 -304.933 5224.06 -0.914293 0.306882 0.264371 13.9941 0 1 0 1
0 18776 401.885 5142.37 -0.932776 -0.143792 0.330535 13.9948 0.411822 1 0 1
d01_landscape
0 16930.52 401.885 1945.91 -0.765536 -0.145027 0.626835 14.994 0.411895 1 0 1
0 14103.09 401.885 -426.5898 -0.504978 -0.145028 0.850861 15.9936 0.411895 1 0 1
0 13983.66 -304.933 -219.7402 -0.521808 0.319629 0.790919 15.9933 0 1 0 1
d01_landscape
0 13983.66 -304.933 -219.7402 -0.521808 0.319629 0.790919 15.9933 0 1 0 1
0 16747.55 -304.933 2099.44 -0.76085 0.319629 0.564752 14.9937 0 1 0 1
0 16930.52 401.885 1945.91 -0.765536 -0.145027 0.626835 14.994 0.411895 1 0 1
d01_landscape
0 14103.09 401.885 -426.5898 -0.504978 -0.145028 0.850861 15.9936 0.411895 1 0 1
0 10634.73 401.885 -1688.95 -0.185647 -0.147897 0.971423 16.9935 0.411967 1 0 1
0 10593.25 -304.933 -1453.75 -0.219829 0.319628 0.92169 16.9928 0 1 0 1
d01_landscape
0 10593.25 -304.933 -1453.75 -0.219829 0.319628 0.92169 16.9928 0 1 0 1
0 13983.66 -304.933 -219.7402 -0.521808 0.319629 0.790919 15.9933 0 1 0 1
0 14103.09 401.885 -426.5898 -0.504978 -0.145028 0.850861 15.9936 0.411895 1 0 1
d01_landscape
0 10634.73 401.885 -1688.95 -0.185647 -0.147897 0.971423 16.9935 0.411967 1 0 1
0 6943.77 292.546 -1688.95 0.162293 -0.151226 0.975085 17.9942 0.406109 1 0 1
0 6985.25 -304.933 -1453.75 0.097619 0.351959 0.930911 17.9924 0 1 0 1
d01_landscape
0 6985.25 -304.933 -1453.75 0.097619 0.351959 0.930911 17.9924 0 1 0 1
0 10593.25 -304.933 -1453.75 -0.219829 0.319628 0.92169 16.9928 0 1 0 1
0 10634.73 401.885 -1688.95 -0.185647 -0.147897 0.971423 16.9935 0.411967 1 0 1
d01_landscape
0 6943.77 292.546 -1688.95 0.162293 -0.151226 0.975085 -0.000831616 0.406037 1 0 1
0 3475.41 401.885 -426.5898 0.48076 -0.14532 0.864726 0.999711 0.411985 1 0 1
0 3594.84 -304.933 -219.7402 0.429958 0.335138 0.838343 0.999733 0 1 0 1
d01_landscape
0 3594.84 -304.933 -219.7402 0.429958 0.335138 0.838343 0.999733 0 1 0 1
0 6985.25 -304.933 -1453.75 0.097619 0.351959 0.930911 0.000165267 0 1 0 1
0 6943.77 292.546 -1688.95 0.162293 -0.151226 0.975085 -0.000831616 0.406037 1 0 1
d01_landscape
0 3475.41 401.885 -426.5898 0.48076 -0.14532 0.864726 0.999711 0.411985 1 0 1
0 647.98 401.885 1945.91 0.750246 -0.145028 0.645056 1.99962 0.411875 1 0 1
0 830.9502 -304.933 2099.44 0.688293 0.319629 0.651222 1.9993 0 1 0 1
d01_landscape
0 830.9502 -304.933 2099.44 0.688293 0.319629 0.651222 1.9993 0 1 0 1
0 3594.84 -304.933 -219.7402 0.429958 0.335138 0.838343 0.999733 0 1 0 1
0 3475.41 401.885 -426.5898 0.48076 -0.14532 0.864726 0.999711 0.411985 1 0 1
d01_landscape
0 647.98 401.885 1945.91 0.750246 -0.145028 0.645056 1.99962 0.411875 1 0 1
0 -1197.5 401.885 5142.37 0.925556 -0.132825 0.354547 2.99923 0.421184 1 0 1
0 -973.0498 -304.933 5224.06 0.869515 0.319628 0.376539 2.99887 0 1 0 1
d01_landscape
0 -973.0498 -304.933 5224.06 0.869515 0.319628 0.376539 2.99887 0 1 0 1
0 830.9502 -304.933 2099.44 0.688293 0.319629 0.651222 1.9993 0 1 0 1
0 647.98 401.885 1945.91 0.750246 -0.145028 0.645056 1.99962 0.411875 1 0 1
d01_landscape
0 -1197.5 401.885 5142.37 0.925556 -0.132825 0.354547 2.99923 0.421184 1 0 1
0 -1838.45 401.885 8777.248 0.990275 -0.138514 0.0130141 3.99876 0.411862 1 0 1
0 -1599.55 -304.933 8777.248 0.94586 0.319629 0.0564394 3.99844 0 1 0 1
d01_landscape
0 -1599.55 -304.933 8777.248 0.94586 0.319629 0.0564394 3.99844 0 1 0 1
0 -973.0498 -304.933 5224.06 0.869515 0.319628 0.376539 2.99887 0 1 0 1
0 -1197.5 401.885 5142.37 0.925556 -0.132825 0.354547 2.99923 0.421184 1 0 1
d01_landscape
0 -1838.45 401.885 8777.248 0.990275 -0.138514 0.0130141 3.99876 0.411862 1 0 1
0 -1197.5 401.885 12412.13 0.935788 -0.137258 -0.324748 4.99835 0.418129 1 0 1
0 -973.0498 -304.933 12330.44 0.908121 0.31963 -0.270467 4.998 0 1 0 1
d01_landscape
0 -973.0498 -304.933 12330.44 0.908121 0.31963 -0.270467 4.998 0 1 0 1
0 -1599.55 -304.933 8777.248 0.94586 0.319629 0.0564394 3.99844 0 1 0 1
0 -1838.45 401.885 8777.248 0.990275 -0.138514 0.0130141 3.99876 0.411862 1 0 1
d01_landscape
0 -1197.5 401.885 12412.13 0.935788 -0.137258 -0.324748 4.99835 0.418129 1 0 1
0 647.98 401.885 15608.59 0.766432 -0.140945 -0.626671 5.9979 0.411868 1 0 1
0 830.9502 -304.933 15455.06 0.76085 0.319628 -0.564753 5.99757 0 1 0 1
d01_landscape
0 830.9502 -304.933 15455.06 0.76085 0.319628 -0.564753 5.99757 0 1 0 1
0 -973.0498 -304.933 12330.44 0.908121 0.31963 -0.270467 4.998 0 1 0 1
0 -1197.5 401.885 12412.13 0.935788 -0.137258 -0.324748 4.99835 0.418129 1 0 1
d01_landscape
0 647.98 401.885 15608.59 0.766432 -0.140945 -0.626671 5.9979 0.411868 1 0 1
0 3475.41 401.885 17981.08 0.509769 -0.138915 -0.849022 6.99777 0.418571 1 0 1
0 3594.83 -304.933 17774.23 0.521809 0.319626 -0.79092 6.99714 0 1 0 1
d01_landscape
0 3594.83 -304.933 17774.23 0.521809 0.319626 -0.79092 6.99714 0 1 0 1
0 830.9502 -304.933 15455.06 0.76085 0.319628 -0.564753 5.99757 0 1 0 1
0 647.98 401.885 15608.59 0.766432 -0.140945 -0.626671 5.9979 0.411868 1 0 1
d01_landscape
0 3475.41 401.885 17981.08 0.509769 -0.138915 -0.849022 6.99777 0.418571 1 0 1
0 6943.77 308.046 19243.45 0.182731 -0.148253 -0.971921 7.99682 0.405684 1 0 1
0 6985.24 -304.933 19008.25 0.221562 0.347102 -0.91128 7.99671 0 1 0 1
d01_landscape
0 6985.24 -304.933 19008.25 0.221562 0.347102 -0.91128 7.99671 0 1 0 1
0 3594.83 -304.933 17774.23 0.521809 0.319626 -0.79092 6.99714 0 1 0 1
0 3475.41 401.885 17981.08 0.509769 -0.138915 -0.849022 6.99777 0.418571 1 0 1
d01_landscape
0 6943.77 308.046 19243.45 0.182731 -0.148253 -0.971921 7.99682 0.405684 1 0 1
0 10634.72 492.922 19243.45 -0.153828 -0.156953 -0.975552 8.99592 0.40297 1 0 1
0 10593.25 -175.358 19008.25 -0.121192 0.344149 -0.931061 8.99628 0 1 0 1
d01_landscape
0 10593.25 -175.358 19008.25 -0.121192 0.344149 -0.931061 8.99628 0 1 0 1
0 6985.24 -304.933 19008.25 0.221562 0.347102 -0.91128 7.99671 0 1 0 1
0 6943.77 308.046 19243.45 0.182731 -0.148253 -0.971921 7.99682 0.405684 1 0 1
d01_landscape
0 10634.72 492.922 19243.45 -0.153828 -0.156953 -0.975552 8.99592 0.40297 1 0 1
0 14103.08 518.097 17981.09 -0.483812 -0.152108 -0.861852 9.99646 0.408996 1 0 1
0 13983.66 -154.8116 17774.24 -0.41904 0.334526 -0.844096 9.99585 0 1 0 1
d01_landscape
0 13983.66 -154.8116 17774.24 -0.41904 0.334526 -0.844096 9.99585 0 1 0 1
0 10593.25 -175.358 19008.25 -0.121192 0.344149 -0.931061 8.99628 0 1 0 1
0 10634.72 492.922 19243.45 -0.153828 -0.156953 -0.975552 8.99592 0.40297 1 0 1
d01_landscape
0 14103.08 518.097 17981.09 -0.483812 -0.152108 -0.861852 9.99646 0.408996 1 0 1
0 16930.52 401.885 15608.59 -0.753134 -0.14563 -0.641546 10.9961 0.411941 1 0 1
0 16747.55 -304.933 15455.06 -0.682871 0.324603 -0.654462 10.9954 0 1 0 1
d01_landscape
0 16747.55 -304.933 15455.06 -0.682871 0.324603 -0.654462 10.9954 0 1 0 1
0 13983.66 -154.8116 17774.24 -0.41904 0.334526 -0.844096 9.99585 0 1 0 1
0 14103.08 518.097 17981.09 -0.483812 -0.152108 -0.861852 9.99646 0.408996 1 0 1
d01_landscape
0 16930.52 401.885 15608.59 -0.753134 -0.14563 -0.641546 10.9961 0.411941 1 0 1
0 18776 401.885 12412.14 -0.92664 -0.142563 -0.34787 11.995 0.411838 1 0 1
0 18551.55 -304.933 12330.44 -0.869515 0.319626 -0.37654 11.995 0 1 0 1
d01_landscape
0 18551.55 -304.933 12330.44 -0.869515 0.319626 -0.37654 11.995 0 1 0 1
0 16747.55 -304.933 15455.06 -0.682871 0.324603 -0.654462 10.9954 0 1 0 1
0 16930.52 401.885 15608.59 -0.753134 -0.14563 -0.641546 10.9961 0.411941 1 0 1
d01_landscape
0 18776 401.885 12412.14 -0.92664 -0.142563 -0.34787 11.995 0.411838 1 0 1
0 19416.95 499.361 8777.25 -0.990305 -0.138144 -0.0145542 12.9948 0.417777 1 0 1
0 19178.05 -304.933 8777.25 -0.954152 0.295184 -0.0496063 12.9946 0 1 0 1
d01_landscape
0 19178.05 -304.933 8777.25 -0.954152 0.295184 -0.0496063 12.9946 0 1 0 1
0 18551.55 -304.933 12330.44 -0.869515 0.319626 -0.37654 11.995 0 1 0 1
0 18776 401.885 12412.14 -0.92664 -0.142563 -0.34787 11.995 0.411838 1 0 1
d01_landscape
0 18908.65 1653.346 8777.25 -0.9115 -0.407249 0.0575845 12.9948 0.978778 1 0 1
0 18298.36 1513.076 5316.22 -0.832228 -0.415208 0.367422 13.994 0.976501 1 0 1
0 18776 401.885 5142.37 -0.932776 -0.143792 0.330535 13.9948 0.411822 1 0 1
d01_landscape
0 18776 401.885 5142.37 -0.932776 -0.143792 0.330535 13.9948 0.411822 1 0 1
0 19416.95 499.361 8777.25 -0.990305 -0.138144 -0.0145542 12.9948 0.417777 1 0 1
0 18908.65 1653.346 8777.25 -0.9115 -0.407249 0.0575845 12.9948 0.978778 1 0 1
d01_landscape
0 18298.36 1513.076 5316.22 -0.832228 -0.415208 0.367422 13.994 0.976501 1 0 1
0 16541.15 1513.076 2272.63 -0.660129 -0.415342 0.625876 14.9938 0.9763 1 0 1
0 16930.52 401.885 1945.91 -0.765536 -0.145027 0.626835 14.994 0.411895 1 0 1
d01_landscape
0 16930.52 401.885 1945.91 -0.765536 -0.145027 0.626835 14.994 0.411895 1 0 1
0 18776 401.885 5142.37 -0.932776 -0.143792 0.330535 13.9948 0.411822 1 0 1
0 18298.36 1513.076 5316.22 -0.832228 -0.415208 0.367422 13.994 0.976501 1 0 1
d01_landscape
0 16541.15 1513.076 2272.63 -0.660129 -0.415342 0.625876 14.9938 0.9763 1 0 1
0 13848.94 1513.076 13.59961 -0.406257 -0.415342 0.813908 15.9933 0.9763 1 0 1
0 14103.09 401.885 -426.5898 -0.504978 -0.145028 0.850861 15.9936 0.411895 1 0 1
d01_landscape
0 14103.09 401.885 -426.5898 -0.504978 -0.145028 0.850861 15.9936 0.411895 1 0 1
0 16930.52 401.885 1945.91 -0.765536 -0.145027 0.626835 14.994 0.411895 1 0 1
0 16541.15 1513.076 2272.63 -0.660129 -0.415342 0.625876 14.9938 0.9763 1 0 1
d01_landscape
0 13848.94 1513.076 13.59961 -0.406257 -0.415342 0.813908 15.9933 0.9763 1 0 1
0 10546.46 1513.076 -1188.4 -0.0949017 -0.416344 0.904241 16.9929 0.977089 1 0 1
0 10634.73 401.885 -1688.95 -0.185647 -0.147897 0.971423 16.9935 0.411967 1 0 1
d01_landscape
0 10634.73 401.885 -1688.95 -0.185647 -0.147897 0.971423 16.9935 0.411967 1 0 1
0 14103.09 401.885 -426.5898 -0.504978 -0.145028 0.850861 15.9936 0.411895 1 0 1
0 13848.94 1513.076 13.59961 -0.406257 -0.415342 0.813908 15.9933 0.9763 1 0 1
d01_landscape
0 10546.46 1513.076 -1188.4 -0.0949017 -0.416344 0.904241 16.9929 0.977089 1 0 1
0 7032.04 1397.596 -1188.4 0.208051 -0.416117 0.88519 18.002 0.972844 1 0 1
0 6943.77 292.546 -1688.95 0.162293 -0.151226 0.975085 17.9942 0.406109 1 0 1
d01_landscape
0 6943.77 292.546 -1688.95 0.162293 -0.151226 0.975085 17.9942 0.406109 1 0 1
0 10634.73 401.885 -1688.95 -0.185647 -0.147897 0.971423 16.9935 0.411967 1 0 1
0 10546.46 1513.076 -1188.4 -0.0949017 -0.416344 0.904241 16.9929 0.977089 1 0 1
d01_landscape
0 7032.04 1397.596 -1188.4 0.208051 -0.416117 0.88519 0.00100976 0.974522 1 0 1
0 3729.56 1513.076 13.59961 0.497922 -0.415442 0.761237 0.999983 0.976285 1 0 1
0 3475.41 401.885 -426.5898 0.48076 -0.14532 0.864726 0.999711 0.411985 1 0 1
d01_landscape
0 3475.41 401.885 -426.5898 0.48076 -0.14532 0.864726 0.999711 0.411985 1 0 1
0 6943.77 292.546 -1688.95 0.162293 -0.151226 0.975085 -0.000831616 0.406037 1 0 1
0 7032.04 1397.596 -1188.4 0.208051 -0.416117 0.88519 0.00100976 0.974522 1 0 1
d01_landscape
0 3729.56 1513.076 13.59961 0.497922 -0.415442 0.761237 0.999983 0.976285 1 0 1
0 1037.35 1513.076 2272.63 0.739176 -0.38941 0.549526 1.99914 0.975599 1 0 1
0 647.98 401.885 1945.91 0.750246 -0.145028 0.645056 1.99962 0.411875 1 0 1
d01_landscape
0 647.98 401.885 1945.91 0.750246 -0.145028 0.645056 1.99962 0.411875 1 0 1
0 3475.41 401.885 -426.5898 0.48076 -0.14532 0.864726 0.999711 0.411985 1 0 1
0 3729.56 1513.076 13.59961 0.497922 -0.415442 0.761237 0.999983 0.976285 1 0 1
d01_landscape
0 1037.35 1513.076 2272.63 0.739176 -0.38941 0.549526 1.99914 0.975599 1 0 1
0 -719.8604 1771.486 5316.22 0.889093 -0.368468 0.27156 2.99922 0.984452 1 0 1
0 -1197.5 401.885 5142.37 0.925556 -0.132825 0.354547 2.99923 0.421184 1 0 1
d01_landscape
0 -1197.5 401.885 5142.37 0.925556 -0.132825 0.354547 2.99923 0.421184 1 0 1
0 647.98 401.885 1945.91 0.750246 -0.145028 0.645056 1.99962 0.411875 1 0 1
0 1037.35 1513.076 2272.63 0.739176 -0.38941 0.549526 1.99914 0.975599 1 0 1
d01_landscape
0 -719.8604 1771.486 5316.22 0.889093 -0.368468 0.27156 2.99922 0.984452 1 0 1
0 -1330.15 1513.076 8777.248 0.914797 -0.39877 -0.064257 3.9982 0.977094 1 0 1
0 -1838.45 401.885 8777.248 0.990275 -0.138514 0.0130141 3.99876 0.411862 1 0 1
d01_landscape
0 -1838.45 401.885 8777.248 0.990275 -0.138514 0.0130141 3.99876 0.411862 1 0 1
0 -1197.5 401.885 5142.37 0.925556 -0.132825 0.354547 2.99923 0.421184 1 0 1
0 -719.8604 1771.486 5316.22 0.889093 -0.368468 0.27156 2.99922 0.984452 1 0 1
d01_landscape
0 -1330.15 1513.076 8777.248 0.914797 -0.39877 -0.064257 3.9982 0.977094 1 0 1
0 -719.8701 1672.366 12238.28 0.848336 -0.385259 -0.363184 4.99828 0.981805 1 0 1
0 -1197.5 401.885 12412.13 0.935788 -0.137258 -0.324748 4.99835 0.418129 1 0 1
d01_landscape
0 -1197.5 401.885 12412.13 0.935788 -0.137258 -0.324748 4.99835 0.418129 1 0 1
0 -1838.45 401.885 8777.248 0.990275 -0.138514 0.0130141 3.99876 0.411862 1 0 1
0 -1330.15 1513.076 8777.248 0.914797 -0.39877 -0.064257 3.9982 0.977094 1 0 1
d01_landscape
0 -719.8701 1672.366 12238.28 0.848336 -0.385259 -0.363184 4.99828 0.981805 1 0 1
0 1037.35 1513.076 15281.86 0.662449 -0.397736 -0.634797 5.99739 0.976635 1 0 1
0 647.98 401.885 15608.59 0.766432 -0.140945 -0.626671 5.9979 0.411868 1 0 1
d01_landscape
0 647.98 401.885 15608.59 0.766432 -0.140945 -0.626671 5.9979 0.411868 1 0 1
0 -1197.5 401.885 12412.13 0.935788 -0.137258 -0.324748 4.99835 0.418129 1 0 1
0 -719.8701 1672.366 12238.28 0.848336 -0.385259 -0.363184 4.99828 0.981805 1 0 1
d01_landscape
0 1037.35 1513.076 15281.86 0.662449 -0.397736 -0.634797 5.99739 0.976635 1 0 1
0 3729.55 1683.806 17540.89 0.410265 -0.386689 -0.825926 6.99739 0.982766 1 0 1
0 3475.41 401.885 17981.08 0.509769 -0.138915 -0.849022 6.99777 0.418571 1 0 1
d01_landscape
0 3475.41 401.885 17981.08 0.509769 -0.138915 -0.849022 6.99777 0.418571 1 0 1
0 647.98 401.885 15608.59 0.766432 -0.140945 -0.626671 5.9979 0.411868 1 0 1
0 1037.35 1513.076 15281.86 0.662449 -0.397736 -0.634797 5.99739 0.976635 1 0 1
d01_landscape
0 3729.55 1683.806 17540.89 0.410265 -0.386689 -0.825926 6.99739 0.982766 1 0 1
0 7032.03 1385.106 18742.9 0.10413 -0.436764 -0.893529 7.99659 0.974356 1 0 1
0 6943.77 308.046 19243.45 0.182731 -0.148253 -0.971921 7.99682 0.405684 1 0 1
d01_landscape
0 6943.77 308.046 19243.45 0.182731 -0.148253 -0.971921 7.99682 0.405684 1 0 1
0 3475.41 401.885 17981.08 0.509769 -0.138915 -0.849022 6.99777 0.418571 1 0 1
0 3729.55 1683.806 17540.89 0.410265 -0.386689 -0.825926 6.99739 0.982766 1 0 1
d01_landscape
0 7032.03 1385.106 18742.9 0.10413 -0.436764 -0.893529 7.99659 0.974356 1 0 1
0 10546.46 1468.326 18742.9 -0.202082 -0.447995 -0.870898 8.99648 0.969349 1 0 1
0 10634.72 492.922 19243.45 -0.153828 -0.156953 -0.975552 8.99592 0.40297 1 0 1
d01_landscape
0 10634.72 492.922 19243.45 -0.153828 -0.156953 -0.975552 8.99592 0.40297 1 0 1
0 6943.77 308.046 19243.45 0.182731 -0.148253 -0.971921 7.99682 0.405684 1 0 1
0 7032.03 1385.106 18742.9 0.10413 -0.436764 -0.893529 7.99659 0.974356 1 0 1
d01_landscape
0 10546.46 1468.326 18742.9 -0.202082 -0.447995 -0.870898 8.99648 0.969349 1 0 1
0 13848.94 1601.246 17540.9 -0.503131 -0.421619 -0.754385 9.99604 0.975124 1 0 1
0 14103.08 518.097 17981.09 -0.483812 -0.152108 -0.861852 9.99646 0.408996 1 0 1
d01_landscape
0 14103.08 518.097 17981.09 -0.483812 -0.152108 -0.861852 9.99646 0.408996 1 0 1
0 10634.72 492.922 19243.45 -0.153828 -0.156953 -0.975552 8.99592 0.40297 1 0 1
0 10546.46 1468.326 18742.9 -0.202082 -0.447995 -0.870898 8.99648 0.969349 1 0 1
d01_landscape
0 13848.94 1601.246 17540.9 -0.503131 -0.421619 -0.754385 9.99604 0.975124 1 0 1
0 16541.14 1513.076 15281.87 -0.733082 -0.41526 -0.538655 10.9953 0.976142 1 0 1
0 16930.52 401.885 15608.59 -0.753134 -0.14563 -0.641546 10.9961 0.411941 1 0 1
d01_landscape
0 16930.52 401.885 15608.59 -0.753134 -0.14563 -0.641546 10.9961 0.411941 1 0 1
0 14103.08 518.097 17981.09 -0.483812 -0.152108 -0.861852 9.99646 0.408996 1 0 1
0 13848.94 1601.246 17540.9 -0.503131 -0.421619 -0.754385 9.99604 0.975124 1 0 1
d01_landscape
0 16541.14 1513.076 15281.87 -0.733082 -0.41526 -0.538655 10.9953 0.976142 1 0 1
0 18298.36 1513.076 12238.29 -0.871968 -0.410506 -0.266752 11.995 0.975493 1 0 1
0 18776 401.885 12412.14 -0.92664 -0.142563 -0.34787 11.995 0.411838 1 0 1
d01_landscape
0 18776 401.885 12412.14 -0.92664 -0.142563 -0.34787 11.995 0.411838 1 0 1
0 16930.52 401.885 15608.59 -0.753134 -0.14563 -0.641546 10.9961 0.411941 1 0 1
0 16541.14 1513.076 15281.87 -0.733082 -0.41526 -0.538655 10.9953 0.976142 1 0 1
d01_landscape
0 18298.36 1513.076 12238.29 -0.871968 -0.410506 -0.266752 11.995 0.975493 1 0 1
0 18908.65 1653.346 8777.25 -0.9115 -0.407249 0.0575845 12.9948 0.978778 1 0 1
0 19416.95 499.361 8777.25 -0.990305 -0.138144 -0.0145542 12.9948 0.417777 1 0 1
d01_landscape
0 19416.95 499.361 8777.25 -0.990305 -0.138144 -0.0145542 12.9948 0.417777 1 0 1
0 18776 401.885 12412.14 -0.92664 -0.142563 -0.34787 11.995 0.411838 1 0 1
0 18298.36 1513.076 12238.29 -0.871968 -0.410506 -0.266752 11.995 0.975493 1 0 1
d01_landscape
0 17095.14 242.394 7312.7 -0.985733 0.00981427 0.168028 12.9946 0.499874 1 0 1
0 16093.32 242.394 4560.24 -0.867159 0.0101869 0.497927 13.9941 0.499874 1 0 1
0 15875.62 -355.576 4685.93 -0.824728 0.386954 0.412421 13.9941 0 1 0 1
d01_landscape
0 15875.62 -355.576 4685.93 -0.824728 0.386954 0.412421 13.9941 0 1 0 1
0 16847.57 -355.576 7356.35 -0.916047 0.386952 0.105476 12.9946 0 1 0 1
0 17095.14 242.394 7312.7 -0.985733 0.00981427 0.168028 12.9946 0.499874 1 0 1
d01_landscape
0 16093.32 242.394 4560.24 -0.867159 0.0101869 0.497927 13.9941 0.499874 1 0 1
0 14210.53 242.394 2316.42 -0.644562 0.0101844 0.764485 14.9937 0.499874 1 0 1
0 14048.95 -355.576 2508.99 -0.633934 0.386954 0.669622 14.9937 0 1 0 1
d01_landscape
0 14048.95 -355.576 2508.99 -0.633934 0.386954 0.669622 14.9937 0 1 0 1
0 15875.62 -355.576 4685.93 -0.824728 0.386954 0.412421 13.9941 0 1 0 1
0 16093.32 242.394 4560.24 -0.867159 0.0101869 0.497927 13.9941 0.499874 1 0 1
d01_landscape
0 14210.53 242.394 2316.42 -0.644562 0.0101844 0.764485 14.9937 0.499874 1 0 1
0 11673.85 242.394 851.8599 -0.352039 0.00991733 0.935933 15.9933 0.499874 1 0 1
0 11587.88 -355.576 1088.09 -0.366679 0.386954 0.846057 15.9933 0 1 0 1
d01_landscape
0 11587.88 -355.576 1088.09 -0.366679 0.386954 0.846057 15.9933 0 1 0 1
0 14048.95 -355.576 2508.99 -0.633934 0.386954 0.669622 14.9937 0 1 0 1
0 14210.53 242.394 2316.42 -0.644562 0.0101844 0.764485 14.9937 0.499874 1 0 1
d01_landscape
0 11673.85 242.394 851.8599 -0.352039 0.00991733 0.935933 15.9933 0.499874 1 0 1
0 8789.249 111.243 343.2305 -0.00109426 0.00914341 0.999958 16.9928 0.499874 1 0 1
0 8789.249 -355.576 594.6099 -0.0693125 0.440992 0.894831 16.9928 0 1 0 1
d01_landscape
0 8789.249 -355.576 594.6099 -0.0693125 0.440992 0.894831 16.9928 0 1 0 1
0 11587.88 -355.576 1088.09 -0.366679 0.386954 0.846057 15.9933 0 1 0 1
0 11673.85 242.394 851.8599 -0.352039 0.00991733 0.935933 15.9933 0.499874 1 0 1
d01_landscape
0 8789.249 111.243 343.2305 -0.00109426 0.00914341 0.999958 16.9928 0.499874 1 0 1
0 5904.64 296.147 851.8599 0.333671 0.00888141 0.942648 17.9924 0.499874 1 0 1
0 5990.62 -355.576 1088.09 0.281092 0.391331 0.876269 17.9924 0 1 0 1
d01_landscape
0 5990.62 -355.576 1088.09 0.281092 0.391331 0.876269 17.9924 0 1 0 1
0 8789.249 -355.576 594.6099 -0.0693125 0.440992 0.894831 16.9928 0 1 0 1
0 8789.249 111.243 343.2305 -0.00109426 0.00914341 0.999958 16.9928 0.499874 1 0 1
d01_landscape
0 5904.64 296.147 851.8599 0.333671 0.00888141 0.942648 0.000165267 0.499874 1 0 1
0 3367.97 242.394 2316.41 0.640054 0.00993425 0.768266 0.999733 0.499874 1 0 1
0 3529.55 -355.576 2508.99 0.547338 0.377295 0.747041 0.999733 0 1 0 1
d01_landscape
0 3529.55 -355.576 2508.99 0.547338 0.377295 0.747041 0.999733 0 1 0 1
0 5990.62 -355.576 1088.09 0.281092 0.391331 0.876269 0.000165267 0 1 0 1
0 5904.64 296.147 851.8599 0.333671 0.00888141 0.942648 0.000165267 0.499874 1 0 1
d01_landscape
0 3367.97 242.394 2316.41 0.640054 0.00993425 0.768266 0.999733 0.499874 1 0 1
0 1485.17 242.394 4560.24 0.863352 0.00939261 0.504515 1.9993 0.499874 1 0 1
0 1702.88 -355.576 4685.93 0.769531 0.386955 0.508024 1.9993 0 1 0 1
d01_landscape
0 1702.88 -355.576 4685.93 0.769531 0.386955 0.508024 1.9993 0 1 0 1
0 3529.55 -355.576 2508.99 0.547338 0.377295 0.747041 0.999733 0 1 0 1
0 3367.97 242.394 2316.41 0.640054 0.00993425 0.768266 0.999733 0.499874 1 0 1
d01_landscape
0 1485.17 242.394 4560.24 0.863352 0.00939261 0.504515 1.9993 0.499874 1 0 1
0 483.3604 242.394 7312.7 0.983681 0.0097695 0.179653 2.99887 0.499874 1 0 1
0 730.9302 -355.576 7356.35 0.896877 0.386955 0.214192 2.99887 0 1 0 1
d01_landscape
0 730.9302 -355.576 7356.35 0.896877 0.386955 0.214192 2.99887 0 1 0 1
0 1702.88 -355.576 4685.93 0.769531 0.386955 0.508024 1.9993 0 1 0 1
0 1485.17 242.394 4560.24 0.863352 0.00939261 0.504515 1.9993 0.499874 1 0 1
d01_landscape
0 483.3604 242.394 7312.7 0.983681 0.0097695 0.179653 2.99887 0.499874 1 0 1
0 483.3604 242.394 10241.8 0.985164 0.01019 -0.171312 3.99844 0.499874 1 0 1
0 730.9302 -355.576 10198.15 0.916046 0.386956 -0.105475 3.99844 0 1 0 1
d01_landscape
0 730.9302 -355.576 10198.15 0.916046 0.386956 -0.105475 3.99844 0 1 0 1
0 730.9302 -355.576 7356.35 0.896877 0.386955 0.214192 2.99887 0 1 0 1
0 483.3604 242.394 7312.7 0.983681 0.0097695 0.179653 2.99887 0.499874 1 0 1
d01_landscape
0 483.3604 242.394 10241.8 0.985164 0.01019 -0.171312 3.99844 0.499874 1 0 1
0 1485.17 242.394 12994.26 0.86798 0.00973877 -0.496503 4.998 0.499874 1 0 1
0 1702.88 -355.576 12868.56 0.824727 0.386956 -0.41242 4.998 0 1 0 1
d01_landscape
0 1702.88 -355.576 12868.56 0.824727 0.386956 -0.41242 4.998 0 1 0 1
0 730.9302 -355.576 10198.15 0.916046 0.386956 -0.105475 3.99844 0 1 0 1
0 483.3604 242.394 10241.8 0.985164 0.01019 -0.171312 3.99844 0.499874 1 0 1
d01_landscape
0 1485.17 242.394 12994.26 0.86798 0.00973877 -0.496503 4.998 0.499874 1 0 1
0 3367.96 242.394 15238.08 0.646167 0.00995759 -0.763131 5.99757 0.499874 1 0 1
0 3529.55 -355.576 15045.51 0.633934 0.386956 -0.669622 5.99757 0 1 0 1
d01_landscape
0 3529.55 -355.576 15045.51 0.633934 0.386956 -0.669622 5.99757 0 1 0 1
0 1702.88 -355.576 12868.56 0.824727 0.386956 -0.41242 4.998 0 1 0 1
0 1485.17 242.394 12994.26 0.86798 0.00973877 -0.496503 4.998 0.499874 1 0 1
d01_landscape
0 3367.96 242.394 15238.08 0.646167 0.00995759 -0.763131 5.99757 0.499874 1 0 1
0 5904.64 242.394 16702.63 0.346416 0.00955004 -0.938032 6.99714 0.499874 1 0 1
0 5990.62 -355.576 16466.41 0.366679 0.386954 -0.846058 6.99714 0 1 0 1
d01_landscape
0 5990.62 -355.576 16466.41 0.366679 0.386954 -0.846058 6.99714 0 1 0 1
0 3529.55 -355.576 15045.51 0.633934 0.386956 -0.669622 5.99757 0 1 0 1
0 3367.96 242.394 15238.08 0.646167 0.00995759 -0.763131 5.99757 0.499874 1 0 1
d01_landscape
0 5904.64 242.394 16702.63 0.346416 0.00955004 -0.938032 6.99714 0.499874 1 0 1
0 8789.246 242.394 17211.27 0.00349022 0.010403 -0.99994 7.99671 0.499874 1 0 1
0 8789.246 -355.576 16959.88 0.0551975 0.386955 -0.920445 7.99671 0 1 0 1
d01_landscape
0 8789.246 -355.576 16959.88 0.0551975 0.386955 -0.920445 7.99671 0 1 0 1
0 5990.62 -355.576 16466.41 0.366679 0.386954 -0.846058 6.99714 0 1 0 1
0 5904.64 242.394 16702.63 0.346416 0.00955004 -0.938032 6.99714 0.499874 1 0 1
d01_landscape
0 8789.246 242.394 17211.27 0.00349022 0.010403 -0.99994 7.99671 0.499874 1 0 1
0 11673.85 242.394 16702.64 -0.339234 0.010665 -0.940642 8.99628 0.499874 1 0 1
0 11587.87 -355.576 16466.41 -0.262943 0.386955 -0.883814 8.99628 0 1 0 1
d01_landscape
0 11587.87 -355.576 16466.41 -0.262943 0.386955 -0.883814 8.99628 0 1 0 1
0 8789.246 -355.576 16959.88 0.0551975 0.386955 -0.920445 7.99671 0 1 0 1
0 8789.246 242.394 17211.27 0.00349022 0.010403 -0.99994 7.99671 0.499874 1 0 1
d01_landscape
0 11673.85 242.394 16702.64 -0.339234 0.010665 -0.940642 8.99628 0.499874 1 0 1
0 14210.53 178.537 15238.09 -0.639428 0.00964866 -0.76879 9.99585 0.499874 1 0 1
0 14048.94 -355.576 15045.51 -0.537225 0.4117 -0.736133 9.99585 0 1 0 1
d01_landscape
0 14048.94 -355.576 15045.51 -0.537225 0.4117 -0.736133 9.99585 0 1 0 1
0 11587.87 -355.576 16466.41 -0.262943 0.386955 -0.883814 8.99628 0 1 0 1
0 11673.85 242.394 16702.64 -0.339234 0.010665 -0.940642 8.99628 0.499874 1 0 1
d01_landscape
0 14210.53 178.537 15238.09 -0.639428 0.00964866 -0.76879 9.99585 0.499874 1 0 1
0 16093.32 242.394 12994.26 -0.862173 0.00974805 -0.506521 10.9954 0.499874 1 0 1
0 15875.62 -355.576 12868.57 -0.769 0.399013 -0.499427 10.9954 0 1 0 1
d01_landscape
0 15875.62 -355.576 12868.57 -0.769 0.399013 -0.499427 10.9954 0 1 0 1
0 14048.94 -355.576 15045.51 -0.537225 0.4117 -0.736133 9.99585 0 1 0 1
0 14210.53 178.537 15238.09 -0.639428 0.00964866 -0.76879 9.99585 0.499874 1 0 1
d01_landscape
0 16093.32 242.394 12994.26 -0.862173 0.00974805 -0.506521 10.9954 0.499874 1 0 1
0 17095.14 242.394 10241.81 -0.983894 0.00947874 -0.178502 11.995 0.499874 1 0 1
0 16847.57 -355.576 10198.15 -0.896877 0.386953 -0.214192 11.995 0 1 0 1
d01_landscape
0 16847.57 -355.576 10198.15 -0.896877 0.386953 -0.214192 11.995 0 1 0 1
0 15875.62 -355.576 12868.57 -0.769 0.399013 -0.499427 10.9954 0 1 0 1
0 16093.32 242.394 12994.26 -0.862173 0.00974805 -0.506521 10.9954 0.499874 1 0 1
d01_landscape
0 17095.14 242.394 10241.81 -0.983894 0.00947874 -0.178502 11.995 0.499874 1 0 1
0 17095.14 242.394 7312.7 -0.985733 0.00981427 0.168028 12.9946 0.499874 1 0 1
0 16847.57 -355.576 7356.35 -0.916047 0.386952 0.105476 12.9946 0 1 0 1
d01_landscape
0 16847.57 -355.576 7356.35 -0.916047 0.386952 0.105476 12.9946 0 1 0 1
0 16847.57 -355.576 10198.15 -0.896877 0.386953 -0.214192 11.995 0 1 0 1
0 17095.14 242.394 10241.81 -0.983894 0.00947874 -0.178502 11.995 0.499874 1 0 1
d01_landscape
0 16860.2 890.459 7354.13 -0.911678 -0.344796 0.223515 12.9946 0.999748 1 0 1
0 15886.72 890.459 4679.53 -0.783362 -0.344915 0.517086 13.9941 0.999748 1 0 1
0 16093.32 242.394 4560.24 -0.867159 0.0101869 0.497927 13.9941 0.499874 1 0 1
d01_landscape
0 16093.32 242.394 4560.24 -0.867159 0.0101869 0.497927 13.9941 0.499874 1 0 1
0 17095.14 242.394 7312.7 -0.985733 0.00981427 0.168028 12.9946 0.499874 1 0 1
0 16860.2 890.459 7354.13 -0.911678 -0.344796 0.223515 12.9946 0.999748 1 0 1
d01_landscape
0 15886.72 890.459 4679.53 -0.783362 -0.344915 0.517086 13.9941 0.999748 1 0 1
0 14057.19 890.459 2499.17 -0.561528 -0.32748 0.759897 14.9937 0.999748 1 0 1
0 14210.53 242.394 2316.42 -0.644562 0.0101844 0.764485 14.9937 0.499874 1 0 1
d01_landscape
0 14210.53 242.394 2316.42 -0.644562 0.0101844 0.764485 14.9937 0.499874 1 0 1
0 16093.32 242.394 4560.24 -0.867159 0.0101869 0.497927 13.9941 0.499874 1 0 1
0 15886.72 890.459 4679.53 -0.783362 -0.344915 0.517086 13.9941 0.999748 1 0 1
d01_landscape
0 14057.19 890.459 2499.17 -0.561528 -0.32748 0.759897 14.9937 0.999748 1 0 1
0 11592.26 1005.126 1076.05 -0.267185 -0.305877 0.913812 15.9933 0.999748 1 0 1
0 11673.85 242.394 851.8599 -0.352039 0.00991733 0.935933 15.9933 0.499874 1 0 1
d01_landscape
0 11673.85 242.394 851.8599 -0.352039 0.00991733 0.935933 15.9933 0.499874 1 0 1
0 14210.53 242.394 2316.42 -0.644562 0.0101844 0.764485 14.9937 0.499874 1 0 1
0 14057.19 890.459 2499.17 -0.561528 -0.32748 0.759897 14.9937 0.999748 1 0 1
d01_landscape
0 11592.26 1005.126 1076.05 -0.267185 -0.305877 0.913812 15.9933 0.999748 1 0 1
0 8789.249 819.5 583.6299 0.0506976 -0.315299 0.947637 16.9928 0.999748 1 0 1
0 8789.249 111.243 343.2305 -0.00109426 0.00914341 0.999958 16.9928 0.499874 1 0 1
d01_landscape
0 8789.249 111.243 343.2305 -0.00109426 0.00914341 0.999958 16.9928 0.499874 1 0 1
0 11673.85 242.394 851.8599 -0.352039 0.00991733 0.935933 15.9933 0.499874 1 0 1
0 11592.26 1005.126 1076.05 -0.267185 -0.305877 0.913812 15.9933 0.999748 1 0 1
d01_landscape
0 8789.249 819.5 583.6299 0.0506976 -0.315299 0.947637 16.9928 0.999748 1 0 1
0 5986.24 1035.666 1076.05 0.371554 -0.318939 0.871909 17.9924 0.999748 1 0 1
0 5904.64 296.147 851.8599 0.333671 0.00888141 0.942648 17.9924 0.499874 1 0 1
d01_landscape
0 5904.64 296.147 851.8599 0.333671 0.00888141 0.942648 17.9924 0.499874 1 0 1
0 8789.249 111.243 343.2305 -0.00109426 0.00914341 0.999958 16.9928 0.499874 1 0 1
0 8789.249 819.5 583.6299 0.0506976 -0.315299 0.947637 16.9928 0.999748 1 0 1
d01_landscape
0 5986.24 1035.666 1076.05 0.371554 -0.318939 0.871909 0.000165267 0.999748 1 0 1
0 3521.31 890.459 2499.17 0.656765 -0.321131 0.682301 0.999733 0.999748 1 0 1
0 3367.97 242.394 2316.41 0.640054 0.00993425 0.768266 0.999733 0.499874 1 0 1
d01_landscape
0 3367.97 242.394 2316.41 0.640054 0.00993425 0.768266 0.999733 0.499874 1 0 1
0 5904.64 296.147 851.8599 0.333671 0.00888141 0.942648 0.000165267 0.499874 1 0 1
0 5986.24 1035.666 1076.05 0.371554 -0.318939 0.871909 0.000165267 0.999748 1 0 1
d01_landscape
0 3521.31 890.459 2499.17 0.656765 -0.321131 0.682301 0.999733 0.999748 1 0 1
0 1691.78 1048.986 4679.53 0.849112 -0.30176 0.433532 1.9993 0.999748 1 0 1
0 1485.17 242.394 4560.24 0.863352 0.00939261 0.504515 1.9993 0.499874 1 0 1
d01_landscape
0 1485.17 242.394 4560.24 0.863352 0.00939261 0.504515 1.9993 0.499874 1 0 1
0 3367.97 242.394 2316.41 0.640054 0.00993425 0.768266 0.999733 0.499874 1 0 1
0 3521.31 890.459 2499.17 0.656765 -0.321131 0.682301 0.999733 0.999748 1 0 1
d01_landscape
0 1691.78 1048.986 4679.53 0.849112 -0.30176 0.433532 1.9993 0.999748 1 0 1
0 718.2998 890.459 7354.13 0.933229 -0.344781 0.101044 2.99887 0.999748 1 0 1
0 483.3604 242.394 7312.7 0.983681 0.0097695 0.179653 2.99887 0.499874 1 0 1
d01_landscape
0 483.3604 242.394 7312.7 0.983681 0.0097695 0.179653 2.99887 0.499874 1 0 1
0 1485.17 242.394 4560.24 0.863352 0.00939261 0.504515 1.9993 0.499874 1 0 1
0 1691.78 1048.986 4679.53 0.849112 -0.30176 0.433532 1.9993 0.999748 1 0 1
d01_landscape
0 718.2998 890.459 7354.13 0.933229 -0.344781 0.101044 2.99887 0.999748 1 0 1
0 718.2998 890.459 10200.38 0.91734 -0.331499 -0.220443 3.99844 0.999748 1 0 1
0 483.3604 242.394 10241.8 0.985164 0.01019 -0.171312 3.99844 0.499874 1 0 1
d01_landscape
0 483.3604 242.394 10241.8 0.985164 0.01019 -0.171312 3.99844 0.499874 1 0 1
0 483.3604 242.394 7312.7 0.983681 0.0097695 0.179653 2.99887 0.499874 1 0 1
0 718.2998 890.459 7354.13 0.933229 -0.344781 0.101044 2.99887 0.999748 1 0 1
d01_landscape
0 718.2998 890.459 10200.38 0.91734 -0.331499 -0.220443 3.99844 0.999748 1 0 1
0 1691.78 977.6461 12874.98 0.793271 -0.319841 -0.518096 4.998 0.999748 1 0 1
0 1485.17 242.394 12994.26 0.86798 0.00973877 -0.496503 4.998 0.499874 1 0 1
d01_landscape
0 1485.17 242.394 12994.26 0.86798 0.00973877 -0.496503 4.998 0.499874 1 0 1
0 483.3604 242.394 10241.8 0.985164 0.01019 -0.171312 3.99844 0.499874 1 0 1
0 718.2998 890.459 10200.38 0.91734 -0.331499 -0.220443 3.99844 0.999748 1 0 1
d01_landscape
0 1691.78 977.6461 12874.98 0.793271 -0.319841 -0.518096 4.998 0.999748 1 0 1
0 3521.31 890.459 15055.34 0.559063 -0.325713 -0.76247 5.99757 0.999748 1 0 1
0 3367.96 242.394 15238.08 0.646167 0.00995759 -0.763131 5.99757 0.499874 1 0 1
d01_landscape
0 3367.96 242.394 15238.08 0.646167 0.00995759 -0.763131 5.99757 0.499874 1 0 1
0 1485.17 242.394 12994.26 0.86798 0.00973877 -0.496503 4.998 0.499874 1 0 1
0 1691.78 977.6461 12874.98 0.793271 -0.319841 -0.518096 4.998 0.999748 1 0 1
d01_landscape
0 3521.31 890.459 15055.34 0.559063 -0.325713 -0.76247 5.99757 0.999748 1 0 1
0 5986.24 1016.836 16478.46 0.27787 -0.32349 -0.904512 6.99714 0.999748 1 0 1
0 5904.64 242.394 16702.63 0.346416 0.00955004 -0.938032 6.99714 0.499874 1 0 1
d01_landscape
0 5904.64 242.394 16702.63 0.346416 0.00955004 -0.938032 6.99714 0.499874 1 0 1
0 3367.96 242.394 15238.08 0.646167 0.00995759 -0.763131 5.99757 0.499874 1 0 1
0 3521.31 890.459 15055.34 0.559063 -0.325713 -0.76247 5.99757 0.999748 1 0 1
d01_landscape
0 5986.24 1016.836 16478.46 0.27787 -0.32349 -0.904512 6.99714 0.999748 1 0 1
0 8789.246 788.572 16972.71 -0.067333 -0.379083 -0.92291 7.99671 0.999748 1 0 1
0 8789.246 242.394 17211.27 0.00349022 0.010403 -0.99994 7.99671 0.499874 1 0 1
d01_landscape
0 8789.246 242.394 17211.27 0.00349022 0.010403 -0.99994 7.99671 0.499874 1 0 1
0 5904.64 242.394 16702.63 0.346416 0.00955004 -0.938032 6.99714 0.499874 1 0 1
0 5986.24 1016.836 16478.46 0.27787 -0.32349 -0.904512 6.99714 0.999748 1 0 1
d01_landscape
0 8789.246 788.572 16972.71 -0.067333 -0.379083 -0.92291 7.99671 0.999748 1 0 1
0 11592.26 890.459 16478.47 -0.379893 -0.319911 -0.86795 8.99628 0.999748 1 0 1
0 11673.85 242.394 16702.64 -0.339234 0.010665 -0.940642 8.99628 0.499874 1 0 1
d01_landscape
0 11673.85 242.394 16702.64 -0.339234 0.010665 -0.940642 8.99628 0.499874 1 0 1
0 8789.246 242.394 17211.27 0.00349022 0.010403 -0.99994 7.99671 0.499874 1 0 1
0 8789.246 788.572 16972.71 -0.067333 -0.379083 -0.92291 7.99671 0.999748 1 0 1
d01_landscape
0 11592.26 890.459 16478.47 -0.379893 -0.319911 -0.86795 8.99628 0.999748 1 0 1
0 14057.18 996.2661 15055.34 -0.648315 -0.298912 -0.700242 9.99585 0.999748 1 0 1
0 14210.53 178.537 15238.09 -0.639428 0.00964866 -0.76879 9.99585 0.499874 1 0 1
d01_landscape
0 14210.53 178.537 15238.09 -0.639428 0.00964866 -0.76879 9.99585 0.499874 1 0 1
0 11673.85 242.394 16702.64 -0.339234 0.010665 -0.940642 8.99628 0.499874 1 0 1
0 11592.26 890.459 16478.47 -0.379893 -0.319911 -0.86795 8.99628 0.999748 1 0 1
d01_landscape
0 14057.18 996.2661 15055.34 -0.648315 -0.298912 -0.700242 9.99585 0.999748 1 0 1
0 15886.72 890.459 12874.99 -0.848975 -0.32371 -0.417675 10.9954 0.999748 1 0 1
0 16093.32 242.394 12994.26 -0.862173 0.00974805 -0.506521 10.9954 0.499874 1 0 1
d01_landscape
0 16093.32 242.394 12994.26 -0.862173 0.00974805 -0.506521 10.9954 0.499874 1 0 1
0 14210.53 178.537 15238.09 -0.639428 0.00964866 -0.76879 9.99585 0.499874 1 0 1
0 14057.18 996.2661 15055.34 -0.648315 -0.298912 -0.700242 9.99585 0.999748 1 0 1
d01_landscape
0 15886.72 890.459 12874.99 -0.848975 -0.32371 -0.417675 10.9954 0.999748 1 0 1
0 16860.19 1030.806 10200.39 -0.944878 -0.306179 -0.116014 11.995 0.999748 1 0 1
0 17095.14 242.394 10241.81 -0.983894 0.00947874 -0.178502 11.995 0.499874 1 0 1
d01_landscape
0 17095.14 242.394 10241.81 -0.983894 0.00947874 -0.178502 11.995 0.499874 1 0 1
0 16093.32 242.394 12994.26 -0.862173 0.00974805 -0.506521 10.9954 0.499874 1 0 1
0 15886.72 890.459 12874.99 -0.848975 -0.32371 -0.417675 10.9954 0.999748 1 0 1
d01_landscape
0 16860.19 1030.806 10200.39 -0.944878 -0.306179 -0.116014 11.995 0.999748 1 0 1
0 16860.2 890.459 7354.13 -0.911678 -0.344796 0.223515 12.9946 0.999748 1 0 1
0 17095.14 242.394 7312.7 -0.985733 0.00981427 0.168028 12.9946 0.499874 1 0 1
d01_landscape
0 17095.14 242.394 7312.7 -0.985733 0.00981427 0.168028 12.9946 0.499874 1 0 1
0 17095.14 242.394 10241.81 -0.983894 0.00947874 -0.178502 11.995 0.499874 1 0 1
0 16860.19 1030.806 10200.39 -0.944878 -0.306179 -0.116014 11.995 0.999748 1 0 1
end
