version 1
nodes
0 "d01_dome" -1
end
skeleton
time 0
0 10200 -352.308 12610 0 0 0
end
triangles
d01_dome_under1
0 15425.83 -1375.368 12480.37 0 0 0 5 8.10722 1 0 1
0 14656.9 -1375.368 9143.2 0 0 0 3.46999 7.65005 1 0 1
0 14885.33 -2037.128 8972.17 0 0 0 3.39268 7.78395 1 0 1
d01_dome_under1
0 14885.33 -2037.128 8972.17 0 0 0 3.39268 7.78395 1 0 1
0 15693.67 -2037.128 12480.37 0 0 0 5 8.26422 1 0 1
0 15425.83 -1375.368 12480.37 0 0 0 5 8.10722 1 0 1
d01_dome_under1
0 14656.9 -1375.368 9143.2 0 0 0 3.46999 7.65005 1 0 1
0 12812.75 -1375.368 6611.06 0 0 0 2.30907 6.55361 1 0 1
0 12946.67 -2037.128 6310.26 0 0 0 2.1731 6.63211 1 0 1
d01_dome_under1
0 12946.67 -2037.128 6310.26 0 0 0 2.1731 6.63211 1 0 1
0 14885.33 -2037.128 8972.17 0 0 0 3.39268 7.78395 1 0 1
0 14656.9 -1375.368 9143.2 0 0 0 3.46999 7.65005 1 0 1
d01_dome_under1
0 12812.75 -1375.368 6611.06 0 0 0 2.30907 6.55361 1 0 1
0 10199.67 -1375.368 5806.04 0 0 0 1.93999 5 1 0 1
0 10199.67 -2037.128 5463.98 0 0 0 1.78537 5 1 0 1
d01_dome_under1
0 10199.67 -2037.128 5463.98 0 0 0 1.78537 5 1 0 1
0 12946.67 -2037.128 6310.26 0 0 0 2.1731 6.63211 1 0 1
0 12812.75 -1375.368 6611.06 0 0 0 2.30907 6.55361 1 0 1
d01_dome_under1
0 10199.67 -1375.368 5806.04 0 0 0 1.93999 5 1 0 1
0 7586.59 -1375.368 6611.06 0 0 0 2.30907 3.44639 1 0 1
0 7452.67 -2037.128 6310.26 0 0 0 2.1731 3.36789 1 0 1
d01_dome_under1
0 7452.67 -2037.128 6310.26 0 0 0 2.1731 3.36789 1 0 1
0 10199.67 -2037.128 5463.98 0 0 0 1.78537 5 1 0 1
0 10199.67 -1375.368 5806.04 0 0 0 1.93999 5 1 0 1
d01_dome_under1
0 7586.59 -1375.368 6611.06 0 0 0 2.30907 3.44639 1 0 1
0 5742.44 -1375.368 9143.2 0 0 0 3.46999 2.34995 1 0 1
0 5514.01 -2037.128 8972.17 0 0 0 3.39268 2.21605 1 0 1
d01_dome_under1
0 5514.01 -2037.128 8972.17 0 0 0 3.39268 2.21605 1 0 1
0 7452.67 -2037.128 6310.26 0 0 0 2.1731 3.36789 1 0 1
0 7586.59 -1375.368 6611.06 0 0 0 2.30907 3.44639 1 0 1
d01_dome_under1
0 5742.44 -1375.368 9143.2 0 0 0 3.46999 2.34995 1 0 1
0 4973.51 -1375.368 12480.37 0 0 0 5 1.89278 1 0 1
0 4705.67 -2037.128 12480.37 0 0 0 5 1.73578 1 0 1
d01_dome_under1
0 4705.67 -2037.128 12480.37 0 0 0 5 1.73578 1 0 1
0 5514.01 -2037.128 8972.17 0 0 0 3.39268 2.21605 1 0 1
0 5742.44 -1375.368 9143.2 0 0 0 3.46999 2.34995 1 0 1
d01_dome_under1
0 4973.51 -1375.368 12480.37 0 0 0 5 1.89278 1 0 1
0 5742.44 -1375.368 15817.53 0 0 0 6.53 2.34995 1 0 1
0 5514.01 -2037.128 15988.56 0 0 0 6.60731 2.21605 1 0 1
d01_dome_under1
0 5514.01 -2037.128 15988.56 0 0 0 6.60731 2.21605 1 0 1
0 4705.67 -2037.128 12480.37 0 0 0 5 1.73578 1 0 1
0 4973.51 -1375.368 12480.37 0 0 0 5 1.89278 1 0 1
d01_dome_under1
0 5742.44 -1375.368 15817.53 0 0 0 6.53 2.34995 1 0 1
0 7586.59 -1375.368 18349.67 0 0 0 7.69093 3.44639 1 0 1
0 7452.67 -2037.128 18650.48 0 0 0 7.8269 3.36789 1 0 1
d01_dome_under1
0 7452.67 -2037.128 18650.48 0 0 0 7.8269 3.36789 1 0 1
0 5514.01 -2037.128 15988.56 0 0 0 6.60731 2.21605 1 0 1
0 5742.44 -1375.368 15817.53 0 0 0 6.53 2.34995 1 0 1
d01_dome_under1
0 7452.67 -2037.128 18650.48 0 0 0 7.8269 3.36789 1 0 1
0 9318.319 -1003.125 18962.29 0 0 0 7.97304 4.47577 1 0 1
0 9245.646 -2037.128 19496.76 0 0 0 8.21463 4.43317 1 0 1
d01_dome_under1
0 9318.319 -1003.125 18962.29 0 0 0 7.97304 4.47577 1 0 1
0 11081.02 -1003.125 18962.29 0 0 0 7.97304 5.52422 1 0 1
0 11153.69 -2037.128 19496.76 0 0 0 8.21463 5.56682 1 0 1
d01_dome_under1
0 11153.69 -2037.128 19496.76 0 0 0 8.21463 5.56682 1 0 1
0 9245.646 -2037.128 19496.76 0 0 0 8.21463 4.43317 1 0 1
0 9318.319 -1003.125 18962.29 0 0 0 7.97304 4.47577 1 0 1
d01_dome_under1
0 11153.69 -2037.128 19496.76 0 0 0 8.21463 5.56682 1 0 1
0 11081.02 -1003.125 18962.29 0 0 0 7.97304 5.52422 1 0 1
0 12946.67 -2037.128 18650.48 0 0 0 7.8269 6.63211 1 0 1
d01_dome_under1
0 12660.5 -1375.368 18107.53 0 0 0 7.69093 6.55361 1 0 1
0 14656.9 -1375.368 15817.54 0 0 0 6.53001 7.65005 1 0 1
0 14885.33 -2037.128 15988.57 0 0 0 6.60732 7.78395 1 0 1
d01_dome_under1
0 14885.33 -2037.128 15988.57 0 0 0 6.60732 7.78395 1 0 1
0 12946.67 -2037.128 18650.48 0 0 0 7.8269 6.63211 1 0 1
0 12660.5 -1375.368 18107.53 0 0 0 7.69093 6.55361 1 0 1
d01_dome_under1
0 14656.9 -1375.368 15817.54 0 0 0 6.53001 7.65005 1 0 1
0 15425.83 -1375.368 12480.37 0 0 0 5 8.10722 1 0 1
0 15693.67 -2037.128 12480.37 0 0 0 5 8.26422 1 0 1
d01_dome_under1
0 15693.67 -2037.128 12480.37 0 0 0 5 8.26422 1 0 1
0 14885.33 -2037.128 15988.57 0 0 0 6.60732 7.78395 1 0 1
0 14656.9 -1375.368 15817.54 0 0 0 6.53001 7.65005 1 0 1
d01_dome_under1
0 14856.67 314.359 12480.37 0 0 0 5 7.77358 1 0 1
0 15693.67 2200.362 12480.37 0 0 0 5 7.22642 1 0 1
0 14885.33 2200.362 8972.17 0 0 0 3.9037 6.89884 1 0 1
d01_dome_under1
0 14885.33 2200.362 8972.17 0 0 0 3.9037 6.89884 1 0 1
0 14171.48 314.359 9506.64 0 0 0 3.63428 7.3655 1 0 1
0 14856.67 314.359 12480.37 0 0 0 5 7.77358 1 0 1
d01_dome_under1
0 14171.48 314.359 9506.64 0 0 0 3.63428 7.3655 1 0 1
0 14885.33 2200.362 8972.17 0 0 0 3.9037 6.89884 1 0 1
0 12946.67 2200.362 6310.26 0 0 0 3.07187 6.11321 1 0 1
d01_dome_under1
0 12946.67 2200.362 6310.26 0 0 0 3.07187 6.11321 1 0 1
0 12528.17 314.359 7250.26 0 0 0 2.59801 6.38679 1 0 1
0 14171.48 314.359 9506.64 0 0 0 3.63428 7.3655 1 0 1
d01_dome_under1
0 12528.17 314.359 7250.26 0 0 0 2.59801 6.38679 1 0 1
0 12946.67 2200.362 6310.26 0 0 0 3.07187 6.11321 1 0 1
0 10199.67 2200.362 5463.98 0 0 0 2.80741 5 1 0 1
d01_dome_under1
0 10199.67 2200.362 5463.98 0 0 0 2.80741 5 1 0 1
0 10199.67 314.359 6532.91 0 0 0 2.26855 5 1 0 1
0 12528.17 314.359 7250.26 0 0 0 2.59801 6.38679 1 0 1
d01_dome_under1
0 10199.67 314.359 6532.91 0 0 0 2.26855 5 1 0 1
0 10199.67 2200.362 5463.98 0 0 0 2.80741 5 1 0 1
0 7452.67 2200.362 6310.26 0 0 0 3.07187 3.88679 1 0 1
d01_dome_under1
0 7452.67 2200.362 6310.26 0 0 0 3.07187 3.88679 1 0 1
0 7871.17 314.359 7250.26 0 0 0 2.59801 3.61321 1 0 1
0 10199.67 314.359 6532.91 0 0 0 2.26855 5 1 0 1
d01_dome_under1
0 7871.17 314.359 7250.26 0 0 0 2.59801 3.61321 1 0 1
0 7452.67 2200.362 6310.26 0 0 0 3.07187 3.88679 1 0 1
0 5514.01 2200.362 8972.17 0 0 0 3.9037 3.10116 1 0 1
d01_dome_under1
0 5514.01 2200.362 8972.17 0 0 0 3.9037 3.10116 1 0 1
0 6227.86 314.359 9506.64 0 0 0 3.63428 2.6345 1 0 1
0 7871.17 314.359 7250.26 0 0 0 2.59801 3.61321 1 0 1
d01_dome_under1
0 6227.86 314.359 9506.64 0 0 0 3.63428 2.6345 1 0 1
0 5514.01 2200.362 8972.17 0 0 0 3.9037 3.10116 1 0 1
0 4705.67 2200.362 12480.37 0 0 0 5 2.77358 1 0 1
d01_dome_under1
0 4705.67 2200.362 12480.37 0 0 0 5 2.77358 1 0 1
0 5542.67 314.359 12480.37 0 0 0 5 2.22642 1 0 1
0 6227.86 314.359 9506.64 0 0 0 3.63428 2.6345 1 0 1
d01_dome_under1
0 5542.67 314.359 12480.37 0 0 0 5 2.22642 1 0 1
0 4705.67 2200.362 12480.37 0 0 0 5 2.77358 1 0 1
0 5514.01 2200.362 15988.56 0 0 0 6.09629 3.10116 1 0 1
d01_dome_under1
0 5514.01 2200.362 15988.56 0 0 0 6.09629 3.10116 1 0 1
0 6227.86 314.359 15454.09 0 0 0 6.36572 2.6345 1 0 1
0 5542.67 314.359 12480.37 0 0 0 5 2.22642 1 0 1
d01_dome_under1
0 6227.86 314.359 15454.09 0 0 0 6.36572 2.6345 1 0 1
0 5514.01 2200.362 15988.56 0 0 0 6.09629 3.10116 1 0 1
0 7452.67 2200.362 18648.46 0 0 0 6.92813 3.88679 1 0 1
d01_dome_under1
0 7452.67 2200.362 18648.46 0 0 0 6.92813 3.88679 1 0 1
0 7871.17 314.359 17710.47 0 0 0 7.40199 3.61321 1 0 1
0 6227.86 314.359 15454.09 0 0 0 6.36572 2.6345 1 0 1
d01_dome_under1
0 7871.17 314.359 17710.47 0 0 0 7.40199 3.61321 1 0 1
0 7452.67 2200.362 18648.46 0 0 0 6.92813 3.88679 1 0 1
0 9245.646 2200.362 19496.76 0 0 0 7.19259 4.61339 1 0 1
d01_dome_under1
0 9245.646 2200.362 19496.76 0 0 0 7.19259 4.61339 1 0 1
0 9390.991 314.359 18427.82 0 0 0 7.73145 4.51837 1 0 1
0 7871.17 314.359 17710.47 0 0 0 7.40199 3.61321 1 0 1
d01_dome_under1
0 9390.991 314.359 18427.82 0 0 0 7.73145 4.51837 1 0 1
0 9245.646 2200.362 19496.76 0 0 0 7.19259 4.61339 1 0 1
0 11153.69 2200.362 19496.76 0 0 0 7.19259 5.38661 1 0 1
d01_dome_under1
0 11153.69 2200.362 19496.76 0 0 0 7.19259 5.38661 1 0 1
0 11008.35 314.359 18427.82 0 0 0 7.73145 5.48163 1 0 1
0 9390.991 314.359 18427.82 0 0 0 7.73145 4.51837 1 0 1
d01_dome_under1
0 11008.35 314.359 18427.82 0 0 0 7.73145 5.48163 1 0 1
0 11153.69 2200.362 19496.76 0 0 0 7.19259 5.38661 1 0 1
0 12946.67 2200.362 18650.48 0 0 0 6.92813 6.11321 1 0 1
d01_dome_under1
0 12946.67 2200.362 18650.48 0 0 0 6.92813 6.11321 1 0 1
0 12528.17 314.359 17710.47 0 0 0 7.402 6.38679 1 0 1
0 11008.35 314.359 18427.82 0 0 0 7.73145 5.48163 1 0 1
d01_dome_under1
0 12528.17 314.359 17710.47 0 0 0 7.402 6.38679 1 0 1
0 12946.67 2200.362 18650.48 0 0 0 6.92813 6.11321 1 0 1
0 14885.33 2200.362 15988.57 0 0 0 6.0963 6.89884 1 0 1
d01_dome_under1
0 14885.33 2200.362 15988.57 0 0 0 6.0963 6.89884 1 0 1
0 14171.48 314.359 15454.1 0 0 0 6.36573 7.3655 1 0 1
0 12528.17 314.359 17710.47 0 0 0 7.402 6.38679 1 0 1
d01_dome_under1
0 14171.48 314.359 15454.1 0 0 0 6.36573 7.3655 1 0 1
0 14885.33 2200.362 15988.57 0 0 0 6.0963 6.89884 1 0 1
0 15693.67 2200.362 12480.37 0 0 0 5 7.22642 1 0 1
d01_dome_under1
0 15693.67 2200.362 12480.37 0 0 0 5 7.22642 1 0 1
0 14856.67 314.359 12480.37 0 0 0 5 7.77358 1 0 1
0 14171.48 314.359 15454.1 0 0 0 6.36573 7.3655 1 0 1
d01_dome_under1
0 15693.67 2200.362 12480.37 0 0 0 5 7.22642 1 0 1
0 14099.13 4269.072 12480.37 0 0 0 5 6.73578 1 0 1
0 13525.4 4269.072 9990.37 0 0 0 4.1453 6.48039 1 0 1
d01_dome_under1
0 13525.4 4269.072 9990.37 0 0 0 4.1453 6.48039 1 0 1
0 14885.33 2200.362 8972.17 0 0 0 3.9037 6.89884 1 0 1
0 15693.67 2200.362 12480.37 0 0 0 5 7.22642 1 0 1
d01_dome_under1
0 14885.33 2200.362 8972.17 0 0 0 3.9037 6.89884 1 0 1
0 13525.4 4269.072 9990.37 0 0 0 4.1453 6.48039 1 0 1
0 12149.4 4269.072 8101.03 0 0 0 3.49677 5.86789 1 0 1
d01_dome_under1
0 12149.4 4269.072 8101.03 0 0 0 3.49677 5.86789 1 0 1
0 12946.67 2200.362 6310.26 0 0 0 3.07187 6.11321 1 0 1
0 14885.33 2200.362 8972.17 0 0 0 3.9037 6.89884 1 0 1
d01_dome_under1
0 12946.67 2200.362 6310.26 0 0 0 3.07187 6.11321 1 0 1
0 12149.4 4269.072 8101.03 0 0 0 3.49677 5.86789 1 0 1
0 10199.67 4269.072 7500.37 0 0 0 3.29059 5 1 0 1
d01_dome_under1
0 10199.67 4269.072 7500.37 0 0 0 3.29059 5 1 0 1
0 10199.67 2200.362 5463.98 0 0 0 2.80741 5 1 0 1
0 12946.67 2200.362 6310.26 0 0 0 3.07187 6.11321 1 0 1
d01_dome_under1
0 10199.67 2200.362 5463.98 0 0 0 2.80741 5 1 0 1
0 10199.67 4269.072 7500.37 0 0 0 3.29059 5 1 0 1
0 8249.939 4269.072 8101.03 0 0 0 3.49677 4.13211 1 0 1
d01_dome_under1
0 8249.939 4269.072 8101.03 0 0 0 3.49677 4.13211 1 0 1
0 7452.67 2200.362 6310.26 0 0 0 3.07187 3.88679 1 0 1
0 10199.67 2200.362 5463.98 0 0 0 2.80741 5 1 0 1
d01_dome_under1
0 7452.67 2200.362 6310.26 0 0 0 3.07187 3.88679 1 0 1
0 8249.939 4269.072 8101.03 0 0 0 3.49677 4.13211 1 0 1
0 6873.95 4269.072 9990.37 0 0 0 4.1453 3.51961 1 0 1
d01_dome_under1
0 6873.95 4269.072 9990.37 0 0 0 4.1453 3.51961 1 0 1
0 5514.01 2200.362 8972.17 0 0 0 3.9037 3.10116 1 0 1
0 7452.67 2200.362 6310.26 0 0 0 3.07187 3.88679 1 0 1
d01_dome_under1
0 5514.01 2200.362 8972.17 0 0 0 3.9037 3.10116 1 0 1
0 6873.95 4269.072 9990.37 0 0 0 4.1453 3.51961 1 0 1
0 6300.22 4269.072 12480.37 0 0 0 5 3.26422 1 0 1
d01_dome_under1
0 6300.22 4269.072 12480.37 0 0 0 5 3.26422 1 0 1
0 4705.67 2200.362 12480.37 0 0 0 5 2.77358 1 0 1
0 5514.01 2200.362 8972.17 0 0 0 3.9037 3.10116 1 0 1
d01_dome_under1
0 4705.67 2200.362 12480.37 0 0 0 5 2.77358 1 0 1
0 6300.22 4269.072 12480.37 0 0 0 5 3.26422 1 0 1
0 6873.95 4269.072 14970.37 0 0 0 5.8547 3.51961 1 0 1
d01_dome_under1
0 6873.95 4269.072 14970.37 0 0 0 5.8547 3.51961 1 0 1
0 5514.01 2200.362 15988.56 0 0 0 6.09629 3.10116 1 0 1
0 4705.67 2200.362 12480.37 0 0 0 5 2.77358 1 0 1
d01_dome_under1
0 5514.01 2200.362 15988.56 0 0 0 6.09629 3.10116 1 0 1
0 6873.95 4269.072 14970.37 0 0 0 5.8547 3.51961 1 0 1
0 8249.939 4269.072 16859.7 0 0 0 6.50323 4.13211 1 0 1
d01_dome_under1
0 8249.939 4269.072 16859.7 0 0 0 6.50323 4.13211 1 0 1
0 7452.67 2200.362 18648.46 0 0 0 6.92813 3.88679 1 0 1
0 5514.01 2200.362 15988.56 0 0 0 6.09629 3.10116 1 0 1
d01_dome_under1
0 7452.67 2200.362 18648.46 0 0 0 6.92813 3.88679 1 0 1
0 8249.939 4269.072 16859.7 0 0 0 6.50323 4.13211 1 0 1
0 9522.537 4269.072 17460.36 0 0 0 6.70941 4.69858 1 0 1
d01_dome_under1
0 9522.537 4269.072 17460.36 0 0 0 6.70941 4.69858 1 0 1
0 9245.646 2200.362 19496.76 0 0 0 7.19259 4.61339 1 0 1
0 7452.67 2200.362 18648.46 0 0 0 6.92813 3.88679 1 0 1
d01_dome_under1
0 9245.646 2200.362 19496.76 0 0 0 7.19259 4.61339 1 0 1
0 9522.537 4269.072 17460.36 0 0 0 6.70941 4.69858 1 0 1
0 10876.8 4269.072 17460.37 0 0 0 6.70941 5.30141 1 0 1
d01_dome_under1
0 10876.8 4269.072 17460.37 0 0 0 6.70941 5.30141 1 0 1
0 11153.69 2200.362 19496.76 0 0 0 7.19259 5.38661 1 0 1
0 9245.646 2200.362 19496.76 0 0 0 7.19259 4.61339 1 0 1
d01_dome_under1
0 11153.69 2200.362 19496.76 0 0 0 7.19259 5.38661 1 0 1
0 10876.8 4269.072 17460.37 0 0 0 6.70941 5.30141 1 0 1
0 12149.4 4269.072 16859.71 0 0 0 6.50323 5.86789 1 0 1
d01_dome_under1
0 12149.4 4269.072 16859.71 0 0 0 6.50323 5.86789 1 0 1
0 12946.67 2200.362 18650.48 0 0 0 6.92813 6.11321 1 0 1
0 11153.69 2200.362 19496.76 0 0 0 7.19259 5.38661 1 0 1
d01_dome_under1
0 12946.67 2200.362 18650.48 0 0 0 6.92813 6.11321 1 0 1
0 12149.4 4269.072 16859.71 0 0 0 6.50323 5.86789 1 0 1
0 13525.4 4269.072 14970.37 0 0 0 5.8547 6.48039 1 0 1
d01_dome_under1
0 13525.4 4269.072 14970.37 0 0 0 5.8547 6.48039 1 0 1
0 14885.33 2200.362 15988.57 0 0 0 6.0963 6.89884 1 0 1
0 12946.67 2200.362 18650.48 0 0 0 6.92813 6.11321 1 0 1
d01_dome_under1
0 14885.33 2200.362 15988.57 0 0 0 6.0963 6.89884 1 0 1
0 13525.4 4269.072 14970.37 0 0 0 5.8547 6.48039 1 0 1
0 14099.13 4269.072 12480.37 0 0 0 5 6.73578 1 0 1
d01_dome_under1
0 14099.13 4269.072 12480.37 0 0 0 5 6.73578 1 0 1
0 15693.67 2200.362 12480.37 0 0 0 5 7.22642 1 0 1
0 14885.33 2200.362 15988.57 0 0 0 6.0963 6.89884 1 0 1
d01_dome_under1
0 11081.02 -1003.125 18962.29 0 0 0 7.97304 5.52422 1 0 1
0 12660.5 -1375.368 18107.53 0 0 0 7.69093 6.55361 1 0 1
0 12946.67 -2037.128 18650.48 0 0 0 7.8269 6.63211 1 0 1
d01_dome_under1
0 7871.17 314.359 17710.47 0 0 0 7.40199 3.61321 1 0 1
0 9390.991 314.359 18427.82 0 0 0 7.73145 4.51837 1 0 1
0 9318.319 -1003.125 18962.29 0 0 0 7.97304 4.47577 1 0 1
d01_dome_under1
0 9318.319 -1003.125 18962.29 0 0 0 7.97304 4.47577 1 0 1
0 7586.59 -1375.368 18349.67 0 0 0 7.69093 3.44639 1 0 1
0 7871.17 314.359 17710.47 0 0 0 7.40199 3.61321 1 0 1
d01_dome_under1
0 7452.67 -2037.128 18650.48 0 0 0 7.8269 3.36789 1 0 1
0 7586.59 -1375.368 18349.67 0 0 0 7.69093 3.44639 1 0 1
0 9318.319 -1003.125 18962.29 0 0 0 7.97304 4.47577 1 0 1
d01_dome_under1
0 14856.67 314.359 12480.37 0 0 0 5 7.77358 1 0 1
0 14171.48 314.359 9506.64 0 0 0 3.63428 7.3655 1 0 1
0 14656.9 -1375.368 9143.2 0 0 0 3.46999 7.65005 1 0 1
d01_dome_under1
0 14656.9 -1375.368 9143.2 0 0 0 3.46999 7.65005 1 0 1
0 15425.83 -1375.368 12480.37 0 0 0 5 8.10722 1 0 1
0 14856.67 314.359 12480.37 0 0 0 5 7.77358 1 0 1
d01_dome_under1
0 14171.48 314.359 9506.64 0 0 0 3.63428 7.3655 1 0 1
0 12528.17 314.359 7250.26 0 0 0 2.59801 6.38679 1 0 1
0 12812.75 -1375.368 6611.06 0 0 0 2.30907 6.55361 1 0 1
d01_dome_under1
0 12812.75 -1375.368 6611.06 0 0 0 2.30907 6.55361 1 0 1
0 14656.9 -1375.368 9143.2 0 0 0 3.46999 7.65005 1 0 1
0 14171.48 314.359 9506.64 0 0 0 3.63428 7.3655 1 0 1
d01_dome_under1
0 12528.17 314.359 7250.26 0 0 0 2.59801 6.38679 1 0 1
0 10199.67 314.359 6532.91 0 0 0 2.26855 5 1 0 1
0 10199.67 -1375.368 5806.04 0 0 0 1.93999 5 1 0 1
d01_dome_under1
0 10199.67 -1375.368 5806.04 0 0 0 1.93999 5 1 0 1
0 12812.75 -1375.368 6611.06 0 0 0 2.30907 6.55361 1 0 1
0 12528.17 314.359 7250.26 0 0 0 2.59801 6.38679 1 0 1
d01_dome_under1
0 10199.67 314.359 6532.91 0 0 0 2.26855 5 1 0 1
0 7871.17 314.359 7250.26 0 0 0 2.59801 3.61321 1 0 1
0 7586.59 -1375.368 6611.06 0 0 0 2.30907 3.44639 1 0 1
d01_dome_under1
0 7586.59 -1375.368 6611.06 0 0 0 2.30907 3.44639 1 0 1
0 10199.67 -1375.368 5806.04 0 0 0 1.93999 5 1 0 1
0 10199.67 314.359 6532.91 0 0 0 2.26855 5 1 0 1
d01_dome_under1
0 7871.17 314.359 7250.26 0 0 0 2.59801 3.61321 1 0 1
0 6227.86 314.359 9506.64 0 0 0 3.63428 2.6345 1 0 1
0 5742.44 -1375.368 9143.2 0 0 0 3.46999 2.34995 1 0 1
d01_dome_under1
0 5742.44 -1375.368 9143.2 0 0 0 3.46999 2.34995 1 0 1
0 7586.59 -1375.368 6611.06 0 0 0 2.30907 3.44639 1 0 1
0 7871.17 314.359 7250.26 0 0 0 2.59801 3.61321 1 0 1
d01_dome_under1
0 6227.86 314.359 9506.64 0 0 0 3.63428 2.6345 1 0 1
0 5542.67 314.359 12480.37 0 0 0 5 2.22642 1 0 1
0 4973.51 -1375.368 12480.37 0 0 0 5 1.89278 1 0 1
d01_dome_under1
0 4973.51 -1375.368 12480.37 0 0 0 5 1.89278 1 0 1
0 5742.44 -1375.368 9143.2 0 0 0 3.46999 2.34995 1 0 1
0 6227.86 314.359 9506.64 0 0 0 3.63428 2.6345 1 0 1
d01_dome_under1
0 5542.67 314.359 12480.37 0 0 0 5 2.22642 1 0 1
0 6227.86 314.359 15454.09 0 0 0 6.36572 2.6345 1 0 1
0 5742.44 -1375.368 15817.53 0 0 0 6.53 2.34995 1 0 1
d01_dome_under1
0 5742.44 -1375.368 15817.53 0 0 0 6.53 2.34995 1 0 1
0 4973.51 -1375.368 12480.37 0 0 0 5 1.89278 1 0 1
0 5542.67 314.359 12480.37 0 0 0 5 2.22642 1 0 1
d01_dome_under1
0 6227.86 314.359 15454.09 0 0 0 6.36572 2.6345 1 0 1
0 7871.17 314.359 17710.47 0 0 0 7.40199 3.61321 1 0 1
0 7586.59 -1375.368 18349.67 0 0 0 7.69093 3.44639 1 0 1
d01_dome_under1
0 7586.59 -1375.368 18349.67 0 0 0 7.69093 3.44639 1 0 1
0 5742.44 -1375.368 15817.53 0 0 0 6.53 2.34995 1 0 1
0 6227.86 314.359 15454.09 0 0 0 6.36572 2.6345 1 0 1
d01_dome_under1
0 12528.17 314.359 17710.47 0 0 0 7.402 6.38679 1 0 1
0 14171.48 314.359 15454.1 0 0 0 6.36573 7.3655 1 0 1
0 14656.9 -1375.368 15817.54 0 0 0 6.53001 7.65005 1 0 1
d01_dome_under1
0 14656.9 -1375.368 15817.54 0 0 0 6.53001 7.65005 1 0 1
0 12660.5 -1375.368 18107.53 0 0 0 7.69093 6.55361 1 0 1
0 12528.17 314.359 17710.47 0 0 0 7.402 6.38679 1 0 1
d01_dome_under1
0 14171.48 314.359 15454.1 0 0 0 6.36573 7.3655 1 0 1
0 14856.67 314.359 12480.37 0 0 0 5 7.77358 1 0 1
0 15425.83 -1375.368 12480.37 0 0 0 5 8.10722 1 0 1
d01_dome_under1
0 15425.83 -1375.368 12480.37 0 0 0 5 8.10722 1 0 1
0 14656.9 -1375.368 15817.54 0 0 0 6.53001 7.65005 1 0 1
0 14171.48 314.359 15454.1 0 0 0 6.36573 7.3655 1 0 1
d01_dome_under1
0 12528.17 314.359 17710.47 0 0 0 7.402 6.38679 1 0 1
0 12660.5 -1375.368 18107.53 0 0 0 7.69093 6.55361 1 0 1
0 11081.02 -1003.125 18962.29 0 0 0 7.97304 5.52422 1 0 1
d01_dome_under1
0 11081.02 -1003.125 18962.29 0 0 0 7.97304 5.52422 1 0 1
0 11008.35 314.359 18427.82 0 0 0 7.73145 5.48163 1 0 1
0 12528.17 314.359 17710.47 0 0 0 7.402 6.38679 1 0 1
d01_dome_under1
0 9318.319 -1003.125 18962.29 0 0 0 7.97304 4.47577 1 0 1
0 9390.991 314.359 18427.82 0 0 0 7.73145 4.51837 1 0 1
0 11008.35 314.359 18427.82 0 0 0 7.73145 5.48163 1 0 1
d01_dome_under1
0 11008.35 314.359 18427.82 0 0 0 7.73145 5.48163 1 0 1
0 11081.02 -1003.125 18962.29 0 0 0 7.97304 5.52422 1 0 1
0 9318.319 -1003.125 18962.29 0 0 0 7.97304 4.47577 1 0 1
d01_04_wall
0 15899.25 -2037.128 12441.13 0 0 0 5 8.26422 1 0 1
0 15899.25 2200.362 12441.13 0 0 0 5 7.22642 1 0 1
0 15060.66 2200.362 8801.63 0 0 0 3.9037 6.89884 1 0 1
d01_04_wall
0 15060.66 2200.362 8801.63 0 0 0 3.9037 6.89884 1 0 1
0 15060.66 -2037.128 8801.63 0 0 0 3.39268 7.78395 1 0 1
0 15899.25 -2037.128 12441.13 0 0 0 5 8.26422 1 0 1
d01_04_wall
0 15060.66 -2037.128 8801.63 0 0 0 3.39268 7.78395 1 0 1
0 15060.66 2200.362 8801.63 0 0 0 3.9037 6.89884 1 0 1
0 13049.44 2200.362 6040.09 0 0 0 3.07187 6.11321 1 0 1
d01_04_wall
0 13049.44 2200.362 6040.09 0 0 0 3.07187 6.11321 1 0 1
0 13049.44 -2037.128 6040.09 0 0 0 2.1731 6.63211 1 0 1
0 15060.66 -2037.128 8801.63 0 0 0 3.39268 7.78395 1 0 1
d01_04_wall
0 13049.44 -2037.128 6040.09 0 0 0 2.1731 6.63211 1 0 1
0 13049.44 2200.362 6040.09 0 0 0 3.07187 6.11321 1 0 1
0 10199.63 2200.362 5162.13 0 0 0 2.80741 5 1 0 1
d01_04_wall
0 10199.63 2200.362 5162.13 0 0 0 2.80741 5 1 0 1
0 10199.63 -2037.128 5162.13 0 0 0 1.78537 5 1 0 1
0 13049.44 -2037.128 6040.09 0 0 0 2.1731 6.63211 1 0 1
d01_04_wall
0 10199.63 -2037.128 5162.13 0 0 0 1.78537 5 1 0 1
0 10199.63 2200.362 5162.13 0 0 0 2.80741 5 1 0 1
0 7349.82 2200.362 6040.09 0 0 0 3.07187 3.88679 1 0 1
d01_04_wall
0 7349.82 2200.362 6040.09 0 0 0 3.07187 3.88679 1 0 1
0 7349.82 -2037.128 6040.09 0 0 0 2.1731 3.36789 1 0 1
0 10199.63 -2037.128 5162.13 0 0 0 1.78537 5 1 0 1
d01_04_wall
0 7349.82 -2037.128 6040.09 0 0 0 2.1731 3.36789 1 0 1
0 7349.82 2200.362 6040.09 0 0 0 3.07187 3.88679 1 0 1
0 5338.6 2200.362 8801.63 0 0 0 3.9037 3.10116 1 0 1
d01_04_wall
0 5338.6 2200.362 8801.63 0 0 0 3.9037 3.10116 1 0 1
0 5338.6 -2037.128 8801.63 0 0 0 3.39268 2.21605 1 0 1
0 7349.82 -2037.128 6040.09 0 0 0 2.1731 3.36789 1 0 1
d01_04_wall
0 5338.6 -2037.128 8801.63 0 0 0 3.39268 2.21605 1 0 1
0 5338.6 2200.362 8801.63 0 0 0 3.9037 3.10116 1 0 1
0 4500 2200.362 12441.12 0 0 0 5 2.77358 1 0 1
d01_04_wall
0 4500 2200.362 12441.12 0 0 0 5 2.77358 1 0 1
0 4500 -2037.128 12441.12 0 0 0 5 1.73578 1 0 1
0 5338.6 -2037.128 8801.63 0 0 0 3.39268 2.21605 1 0 1
d01_04_wall
0 4500 -2037.128 12441.12 0 0 0 5 1.73578 1 0 1
0 4500 2200.362 12441.12 0 0 0 5 2.77358 1 0 1
0 5338.6 2200.362 16080.62 0 0 0 6.09629 3.10116 1 0 1
d01_04_wall
0 5338.6 2200.362 16080.62 0 0 0 6.09629 3.10116 1 0 1
0 5338.6 -2037.128 16080.62 0 0 0 6.60731 2.21605 1 0 1
0 4500 -2037.128 12441.12 0 0 0 5 1.73578 1 0 1
d01_04_wall
0 7349.81 -2037.128 18842.16 0 0 0 7.8269 3.36789 1 0 1
0 7349.81 2200.362 18842.16 0 0 0 6.92813 3.88679 1 0 1
0 9209.896 2200.362 19720.12 0 0 0 7.19259 4.61339 1 0 1
d01_04_wall
0 9209.896 2200.362 19720.12 0 0 0 7.19259 4.61339 1 0 1
0 9209.896 -2037.128 19720.12 0 0 0 8.21463 4.43317 1 0 1
0 7349.81 -2037.128 18842.16 0 0 0 7.8269 3.36789 1 0 1
d01_04_wall
0 15060.66 -2037.128 16080.63 0 0 0 6.60732 7.78395 1 0 1
0 15060.66 2200.362 16080.63 0 0 0 6.0963 6.89884 1 0 1
0 15899.25 2200.362 12441.13 0 0 0 5 7.22642 1 0 1
d01_04_wall
0 15899.25 2200.362 12441.13 0 0 0 5 7.22642 1 0 1
0 15899.25 -2037.128 12441.13 0 0 0 5 8.26422 1 0 1
0 15060.66 -2037.128 16080.63 0 0 0 6.60732 7.78395 1 0 1
d01_04_wall
0 15899.25 2200.362 12441.13 0 0 0 5 7.22642 1 0 1
0 14245.03 4269.072 12441.13 0 0 0 5 6.73578 1 0 1
0 13649.82 4269.072 9857.93 0 0 0 4.1453 6.48039 1 0 1
d01_04_wall
0 13649.82 4269.072 9857.93 0 0 0 4.1453 6.48039 1 0 1
0 15060.66 2200.362 8801.63 0 0 0 3.9037 6.89884 1 0 1
0 15899.25 2200.362 12441.13 0 0 0 5 7.22642 1 0 1
d01_04_wall
0 15060.66 2200.362 8801.63 0 0 0 3.9037 6.89884 1 0 1
0 13649.82 4269.072 9857.93 0 0 0 4.1453 6.48039 1 0 1
0 12222.33 4269.072 7897.88 0 0 0 3.49677 5.86789 1 0 1
d01_04_wall
0 12222.33 4269.072 7897.88 0 0 0 3.49677 5.86789 1 0 1
0 13049.44 2200.362 6040.09 0 0 0 3.07187 6.11321 1 0 1
0 15060.66 2200.362 8801.63 0 0 0 3.9037 6.89884 1 0 1
d01_04_wall
0 13049.44 2200.362 6040.09 0 0 0 3.07187 6.11321 1 0 1
0 12222.33 4269.072 7897.88 0 0 0 3.49677 5.86789 1 0 1
0 10199.63 4269.072 7274.74 0 0 0 3.29059 5 1 0 1
d01_04_wall
0 10199.63 4269.072 7274.74 0 0 0 3.29059 5 1 0 1
0 10199.63 2200.362 5162.13 0 0 0 2.80741 5 1 0 1
0 13049.44 2200.362 6040.09 0 0 0 3.07187 6.11321 1 0 1
d01_04_wall
0 10199.63 2200.362 5162.13 0 0 0 2.80741 5 1 0 1
0 10199.63 4269.072 7274.74 0 0 0 3.29059 5 1 0 1
0 8176.93 4269.072 7897.88 0 0 0 3.49677 4.13211 1 0 1
d01_04_wall
0 8176.93 4269.072 7897.88 0 0 0 3.49677 4.13211 1 0 1
0 7349.82 2200.362 6040.09 0 0 0 3.07187 3.88679 1 0 1
0 10199.63 2200.362 5162.13 0 0 0 2.80741 5 1 0 1
d01_04_wall
0 7349.82 2200.362 6040.09 0 0 0 3.07187 3.88679 1 0 1
0 8176.93 4269.072 7897.88 0 0 0 3.49677 4.13211 1 0 1
0 6749.43 4269.072 9857.93 0 0 0 4.1453 3.51961 1 0 1
d01_04_wall
0 6749.43 4269.072 9857.93 0 0 0 4.1453 3.51961 1 0 1
0 5338.6 2200.362 8801.63 0 0 0 3.9037 3.10116 1 0 1
0 7349.82 2200.362 6040.09 0 0 0 3.07187 3.88679 1 0 1
d01_04_wall
0 5338.6 2200.362 8801.63 0 0 0 3.9037 3.10116 1 0 1
0 6749.43 4269.072 9857.93 0 0 0 4.1453 3.51961 1 0 1
0 6154.23 4269.072 12441.12 0 0 0 5 3.26422 1 0 1
d01_04_wall
0 6154.23 4269.072 12441.12 0 0 0 5 3.26422 1 0 1
0 4500 2200.362 12441.12 0 0 0 5 2.77358 1 0 1
0 5338.6 2200.362 8801.63 0 0 0 3.9037 3.10116 1 0 1
d01_04_wall
0 4500 2200.362 12441.12 0 0 0 5 2.77358 1 0 1
0 6154.23 4269.072 12441.12 0 0 0 5 3.26422 1 0 1
0 6749.43 4269.072 15024.32 0 0 0 5.8547 3.51961 1 0 1
d01_04_wall
0 6749.43 4269.072 15024.32 0 0 0 5.8547 3.51961 1 0 1
0 5338.6 2200.362 16080.62 0 0 0 6.09629 3.10116 1 0 1
0 4500 2200.362 12441.12 0 0 0 5 2.77358 1 0 1
d01_04_wall
0 5338.6 2200.362 16080.62 0 0 0 6.09629 3.10116 1 0 1
0 6749.43 4269.072 15024.32 0 0 0 5.8547 3.51961 1 0 1
0 8176.93 4269.072 16984.37 0 0 0 6.50323 4.13211 1 0 1
d01_04_wall
0 8176.93 4269.072 16984.37 0 0 0 6.50323 4.13211 1 0 1
0 7349.81 2200.362 18842.16 0 0 0 6.92813 3.88679 1 0 1
0 5338.6 2200.362 16080.62 0 0 0 6.09629 3.10116 1 0 1
d01_04_wall
0 7349.81 2200.362 18842.16 0 0 0 6.92813 3.88679 1 0 1
0 8176.93 4269.072 16984.37 0 0 0 6.50323 4.13211 1 0 1
0 9497.15 4269.072 17607.51 0 0 0 6.70941 4.69858 1 0 1
d01_04_wall
0 9497.15 4269.072 17607.51 0 0 0 6.70941 4.69858 1 0 1
0 9209.896 2200.362 19720.12 0 0 0 7.19259 4.61339 1 0 1
0 7349.81 2200.362 18842.16 0 0 0 6.92813 3.88679 1 0 1
d01_04_wall
0 9209.896 2200.362 19720.12 0 0 0 7.19259 4.61339 1 0 1
0 9497.15 4269.072 17607.51 0 0 0 6.70941 4.69858 1 0 1
0 10902.1 4269.072 17607.51 0 0 0 6.70941 5.30141 1 0 1
d01_04_wall
0 10902.1 4269.072 17607.51 0 0 0 6.70941 5.30141 1 0 1
0 11189.36 2200.362 19720.12 0 0 0 7.19259 5.38661 1 0 1
0 9209.896 2200.362 19720.12 0 0 0 7.19259 4.61339 1 0 1
d01_04_wall
0 11189.36 2200.362 19720.12 0 0 0 7.19259 5.38661 1 0 1
0 10902.1 4269.072 17607.51 0 0 0 6.70941 5.30141 1 0 1
0 12222.33 4269.072 16984.37 0 0 0 6.50323 5.86789 1 0 1
d01_04_wall
0 12222.33 4269.072 16984.37 0 0 0 6.50323 5.86789 1 0 1
0 13049.44 2200.362 18842.17 0 0 0 6.92813 6.11321 1 0 1
0 11189.36 2200.362 19720.12 0 0 0 7.19259 5.38661 1 0 1
d01_04_wall
0 13049.44 2200.362 18842.17 0 0 0 6.92813 6.11321 1 0 1
0 12222.33 4269.072 16984.37 0 0 0 6.50323 5.86789 1 0 1
0 13649.82 4269.072 15024.32 0 0 0 5.8547 6.48039 1 0 1
d01_04_wall
0 13649.82 4269.072 15024.32 0 0 0 5.8547 6.48039 1 0 1
0 15060.66 2200.362 16080.63 0 0 0 6.0963 6.89884 1 0 1
0 13049.44 2200.362 18842.17 0 0 0 6.92813 6.11321 1 0 1
d01_04_wall
0 15060.66 2200.362 16080.63 0 0 0 6.0963 6.89884 1 0 1
0 13649.82 4269.072 15024.32 0 0 0 5.8547 6.48039 1 0 1
0 14245.03 4269.072 12441.13 0 0 0 5 6.73578 1 0 1
d01_04_wall
0 14245.03 4269.072 12441.13 0 0 0 5 6.73578 1 0 1
0 15899.25 2200.362 12441.13 0 0 0 5 7.22642 1 0 1
0 15060.66 2200.362 16080.63 0 0 0 6.0963 6.89884 1 0 1
d01_04_wall
0 15060.66 -2037.128 16080.63 0 0 0 6.60732 7.78395 1 0 1
0 15899.25 -2037.128 12441.13 0 0 0 5 8.26422 1 0 1
0 15060.66 -2037.128 8801.63 0 0 0 3.39268 7.78395 1 0 1
d01_04_wall
0 15060.66 -2037.128 8801.63 0 0 0 3.39268 7.78395 1 0 1
0 13049.44 -2037.128 6040.09 0 0 0 2.1731 6.63211 1 0 1
0 10199.63 -2037.128 5162.13 0 0 0 1.78537 5 1 0 1
d01_04_wall
0 15060.66 -2037.128 16080.63 0 0 0 6.60732 7.78395 1 0 1
0 15060.66 -2037.128 8801.63 0 0 0 3.39268 7.78395 1 0 1
0 10199.63 -2037.128 5162.13 0 0 0 1.78537 5 1 0 1
d01_04_wall
0 15060.66 -2037.128 16080.63 0 0 0 6.60732 7.78395 1 0 1
0 10199.63 -2037.128 5162.13 0 0 0 1.78537 5 1 0 1
0 11189.36 -2037.128 19720.12 0 0 0 8.21463 5.56682 1 0 1
d01_04_wall
0 15060.66 -2037.128 16080.63 0 0 0 6.60732 7.78395 1 0 1
0 11189.36 -2037.128 19720.12 0 0 0 8.21463 5.56682 1 0 1
0 13049.44 -2037.128 18842.17 0 0 0 7.8269 6.63211 1 0 1
d01_04_wall
0 5338.6 -2037.128 8801.63 0 0 0 3.39268 2.21605 1 0 1
0 4500 -2037.128 12441.12 0 0 0 5 1.73578 1 0 1
0 5338.6 -2037.128 16080.62 0 0 0 6.60731 2.21605 1 0 1
d01_04_wall
0 7349.81 -2037.128 18842.16 0 0 0 7.8269 3.36789 1 0 1
0 9209.896 -2037.128 19720.12 0 0 0 8.21463 4.43317 1 0 1
0 11189.36 -2037.128 19720.12 0 0 0 8.21463 5.56682 1 0 1
d01_04_wall
0 5338.6 -2037.128 16080.62 0 0 0 6.60731 2.21605 1 0 1
0 7349.81 -2037.128 18842.16 0 0 0 7.8269 3.36789 1 0 1
0 11189.36 -2037.128 19720.12 0 0 0 8.21463 5.56682 1 0 1
d01_04_wall
0 5338.6 -2037.128 8801.63 0 0 0 3.39268 2.21605 1 0 1
0 5338.6 -2037.128 16080.62 0 0 0 6.60731 2.21605 1 0 1
0 11189.36 -2037.128 19720.12 0 0 0 8.21463 5.56682 1 0 1
d01_04_wall
0 7349.82 -2037.128 6040.09 0 0 0 2.1731 3.36789 1 0 1
0 5338.6 -2037.128 8801.63 0 0 0 3.39268 2.21605 1 0 1
0 11189.36 -2037.128 19720.12 0 0 0 8.21463 5.56682 1 0 1
d01_04_wall
0 10199.63 -2037.128 5162.13 0 0 0 1.78537 5 1 0 1
0 7349.82 -2037.128 6040.09 0 0 0 2.1731 3.36789 1 0 1
0 11189.36 -2037.128 19720.12 0 0 0 8.21463 5.56682 1 0 1
d01_04_wall
0 12222.33 4269.072 16984.37 0 0 0 6.50323 5.86789 1 0 1
0 10902.1 4269.072 17607.51 0 0 0 6.70941 5.30141 1 0 1
0 9497.15 4269.072 17607.51 0 0 0 6.70941 4.69858 1 0 1
d01_04_wall
0 9497.15 4269.072 17607.51 0 0 0 6.70941 4.69858 1 0 1
0 8176.93 4269.072 16984.37 0 0 0 6.50323 4.13211 1 0 1
0 6749.43 4269.072 15024.32 0 0 0 5.8547 3.51961 1 0 1
d01_04_wall
0 12222.33 4269.072 16984.37 0 0 0 6.50323 5.86789 1 0 1
0 9497.15 4269.072 17607.51 0 0 0 6.70941 4.69858 1 0 1
0 6749.43 4269.072 15024.32 0 0 0 5.8547 3.51961 1 0 1
d01_04_wall
0 6749.43 4269.072 15024.32 0 0 0 5.8547 3.51961 1 0 1
0 6154.23 4269.072 12441.12 0 0 0 5 3.26422 1 0 1
0 6749.43 4269.072 9857.93 0 0 0 4.1453 3.51961 1 0 1
d01_04_wall
0 6749.43 4269.072 9857.93 0 0 0 4.1453 3.51961 1 0 1
0 8176.93 4269.072 7897.88 0 0 0 3.49677 4.13211 1 0 1
0 10199.63 4269.072 7274.74 0 0 0 3.29059 5 1 0 1
d01_04_wall
0 6749.43 4269.072 9857.93 0 0 0 4.1453 3.51961 1 0 1
0 10199.63 4269.072 7274.74 0 0 0 3.29059 5 1 0 1
0 12222.33 4269.072 7897.88 0 0 0 3.49677 5.86789 1 0 1
d01_04_wall
0 6749.43 4269.072 15024.32 0 0 0 5.8547 3.51961 1 0 1
0 6749.43 4269.072 9857.93 0 0 0 4.1453 3.51961 1 0 1
0 12222.33 4269.072 7897.88 0 0 0 3.49677 5.86789 1 0 1
d01_04_wall
0 12222.33 4269.072 16984.37 0 0 0 6.50323 5.86789 1 0 1
0 6749.43 4269.072 15024.32 0 0 0 5.8547 3.51961 1 0 1
0 12222.33 4269.072 7897.88 0 0 0 3.49677 5.86789 1 0 1
d01_04_wall
0 12222.33 4269.072 16984.37 0 0 0 6.50323 5.86789 1 0 1
0 12222.33 4269.072 7897.88 0 0 0 3.49677 5.86789 1 0 1
0 13649.82 4269.072 9857.93 0 0 0 4.1453 6.48039 1 0 1
d01_04_wall
0 13649.82 4269.072 15024.32 0 0 0 5.8547 6.48039 1 0 1
0 12222.33 4269.072 16984.37 0 0 0 6.50323 5.86789 1 0 1
0 13649.82 4269.072 9857.93 0 0 0 4.1453 6.48039 1 0 1
d01_04_wall
0 14245.03 4269.072 12441.13 0 0 0 5 6.73578 1 0 1
0 13649.82 4269.072 15024.32 0 0 0 5.8547 6.48039 1 0 1
0 13649.82 4269.072 9857.93 0 0 0 4.1453 6.48039 1 0 1
d01_04_wall
0 13049.44 2200.362 18842.17 0 0 0 6.92813 6.11321 1 0 1
0 15060.66 2200.362 16080.63 0 0 0 6.0963 6.89884 1 0 1
0 15060.66 -2037.128 16080.63 0 0 0 6.60732 7.78395 1 0 1
d01_04_wall
0 15060.66 -2037.128 16080.63 0 0 0 6.60732 7.78395 1 0 1
0 13049.44 -2037.128 18842.17 0 0 0 7.8269 6.63211 1 0 1
0 13049.44 2200.362 18842.17 0 0 0 6.92813 6.11321 1 0 1
d01_04_wall
0 13049.44 2200.362 18842.17 0 0 0 6.92813 6.11321 1 0 1
0 13049.44 -2037.128 18842.17 0 0 0 7.8269 6.63211 1 0 1
0 11189.36 -2037.128 19720.12 0 0 0 8.21463 5.56682 1 0 1
d01_04_wall
0 11189.36 -2037.128 19720.12 0 0 0 8.21463 5.56682 1 0 1
0 11189.36 2200.362 19720.12 0 0 0 7.19259 5.38661 1 0 1
0 13049.44 2200.362 18842.17 0 0 0 6.92813 6.11321 1 0 1
d01_04_wall
0 11189.36 2200.362 19720.12 0 0 0 7.19259 5.38661 1 0 1
0 11189.36 -2037.128 19720.12 0 0 0 8.21463 5.56682 1 0 1
0 9209.896 -2037.128 19720.12 0 0 0 8.21463 4.43317 1 0 1
d01_04_wall
0 9209.896 -2037.128 19720.12 0 0 0 8.21463 4.43317 1 0 1
0 9209.896 2200.362 19720.12 0 0 0 7.19259 4.61339 1 0 1
0 11189.36 2200.362 19720.12 0 0 0 7.19259 5.38661 1 0 1
d01_04_wall
0 7349.81 -2037.128 18842.16 0 0 0 7.8269 3.36789 1 0 1
0 5338.6 -2037.128 16080.62 0 0 0 6.60731 2.21605 1 0 1
0 5338.6 2200.362 16080.62 0 0 0 6.09629 3.10116 1 0 1
d01_04_wall
0 5338.6 2200.362 16080.62 0 0 0 6.09629 3.10116 1 0 1
0 7349.81 2200.362 18842.16 0 0 0 6.92813 3.88679 1 0 1
0 7349.81 -2037.128 18842.16 0 0 0 7.8269 3.36789 1 0 1
end
