# Blender 4.2.0
# www.blender.org
mtllib Crying_Alice.mtl
o Crying_Alice
v -13.875000 -160.734375 -129.250000
v -8.140625 -152.093750 -132.093750
v -6.421875 -167.000000 -133.203125
v -36.062500 -154.171875 -184.296875
v -0.359375 -158.250000 -136.203125
v -34.843750 -163.734375 -185.078125
v -34.140625 -153.843750 -185.296875
v -32.921875 -163.406250 -186.062500
v -34.140625 -153.843750 -185.296875
v -36.062500 -154.171875 -184.296875
v -38.984375 -152.859375 -196.015625
v -13.875000 -160.734375 -129.250000
v -6.421875 -167.000000 -133.203125
v -0.359375 -158.250000 -136.203125
v -8.140625 -152.093750 -132.093750
v -34.843750 -163.734375 -185.078125
v -32.921875 -163.406250 -186.062500
v -37.562500 -164.000000 -196.906250
v -41.125000 -164.593750 -195.062500
v -55.531250 -167.484375 -232.937500
v -59.093750 -168.078125 -231.093750
v -82.718750 -163.750000 -275.500000
v -79.156250 -163.140625 -277.343750
v -34.140625 -153.843750 -185.296875
v -38.984375 -152.859375 -196.015625
v -108.234375 -170.531250 -332.078125
v -82.718750 -163.750000 -275.500000
v -34.843750 -163.734375 -185.078125
v -41.125000 -164.593750 -195.062500
v -59.093750 -168.078125 -231.093750
v -37.562500 -164.000000 -196.906250
v -55.531250 -167.484375 -232.937500
v -44.453125 -139.390625 -198.140625
v -127.156250 63.765625 -171.468750
v -153.687500 66.078125 -169.906250
v -136.015625 86.906250 -170.781250
v -140.468750 73.437500 -180.890625
v -127.328125 54.109375 -163.437500
v -115.640625 70.406250 -134.953125
v -122.656250 77.140625 -143.968750
v -105.437500 84.312500 -102.953125
v -106.031250 89.109375 -102.234375
v -111.265625 75.609375 -121.843750
v -170.453125 109.343750 -97.078125
v -167.578125 115.906250 -91.515625
v -154.187500 114.796875 -76.828125
v -125.187500 62.187500 -113.640625
v -130.968750 61.046875 -112.375000
v -136.812500 60.718750 -113.843750
v -131.156250 64.312500 -105.468750
v -124.765625 66.468750 -106.046875
v -139.718750 63.984375 -111.000000
v -137.531250 65.125000 -106.000000
v -123.562500 65.734375 -109.703125
v -124.453125 60.359375 -114.515625
v -136.812500 60.718750 -113.843750
v -123.906250 59.734375 -115.625000
v -130.968750 61.046875 -112.375000
v -125.187500 62.187500 -113.640625
v -124.765625 66.468750 -106.046875
v -125.218750 67.796875 -103.296875
v -131.156250 64.312500 -105.468750
v -137.531250 65.125000 -106.000000
v -132.328125 87.781250 -92.875000
v -126.109375 71.875000 -101.656250
v -129.437500 84.484375 -99.765625
v -137.531250 107.312500 -76.125000
v -123.921875 118.015625 -74.828125
v -129.078125 96.656250 -85.171875
v -108.453125 109.828125 -86.859375
v -132.328125 87.781250 -92.875000
v -129.437500 84.484375 -99.765625
v -106.031250 89.109375 -102.234375
v -105.437500 84.312500 -102.953125
v -105.203125 98.593750 -97.781250
v -107.765625 105.703125 -90.515625
v -125.218750 67.796875 -103.296875
v -126.109375 71.875000 -101.656250
v -124.765625 66.468750 -106.046875
v -123.562500 65.734375 -109.703125
v -111.265625 75.609375 -121.843750
v -123.906250 59.734375 -115.625000
v -124.937500 56.296875 -120.078125
v -115.640625 70.406250 -134.953125
v -124.500000 55.265625 -124.859375
v -124.453125 60.359375 -114.515625
v -125.187500 62.187500 -113.640625
v -139.718750 63.984375 -111.000000
v -138.953125 118.390625 -73.156250
v -124.500000 55.265625 -124.859375
v -115.640625 70.406250 -134.953125
v -122.656250 77.140625 -143.968750
v -138.453125 71.234375 -139.109375
v -127.328125 54.109375 -163.437500
v -133.562500 47.562500 -160.484375
v -129.078125 96.656250 -85.171875
v -124.500000 55.265625 -124.859375
v -148.703125 65.750000 -133.781250
v -154.375000 78.062500 -141.593750
v -154.015625 78.312500 -141.453125
v -163.828125 87.390625 -128.125000
v -168.968750 98.828125 -114.000000
v -124.937500 56.296875 -120.078125
v -149.640625 90.593750 -146.906250
v -149.828125 48.765625 -160.000000
v -154.890625 56.578125 -162.750000
v -153.687500 66.078125 -169.906250
v -91.640625 -171.843750 -258.203125
v -58.140625 -169.828125 -226.937500
v -23.421875 -167.312500 -118.750000
v -37.000000 -176.296875 -71.953125
v -137.015625 -174.515625 2.656250
v -47.703125 -169.250000 -8.781250
v -116.687500 -58.515625 -181.546875
v -91.390625 -77.000000 -203.421875
v -108.203125 -87.812500 -231.093750
v -84.562500 -123.140625 -243.187500
v -58.140625 -169.828125 -226.937500
v -23.421875 -167.312500 -118.750000
v -47.703125 -169.250000 -8.781250
v -37.000000 -176.296875 -71.953125
v -84.562500 -123.140625 -243.187500
v -66.421875 -120.078125 -230.359375
v -139.562500 -122.390625 -274.312500
v -91.640625 -171.843750 -258.203125
v -66.421875 -120.078125 -230.359375
v -145.187500 -66.703125 -151.781250
v -142.546875 -57.015625 -177.781250
v -135.671875 -176.687500 -305.953125
v -139.562500 -122.390625 -274.312500
v -175.234375 -90.921875 -231.703125
v -141.812500 -88.453125 -233.968750
v -135.671875 -176.687500 -305.953125
v -250.937500 -173.843750 -262.687500
v -261.250000 -176.531250 -103.437500
v -271.812500 -162.000000 -164.078125
v -282.437500 -170.609375 -225.046875
v -174.296875 -164.171875 -8.187500
v -248.125000 -172.453125 -29.562500
v -250.937500 -173.843750 -262.687500
v -143.484375 -78.203125 -113.562500
v -193.312500 -82.359375 -204.843750
v -171.390625 -60.218750 -182.000000
v -248.125000 -172.453125 -29.562500
v -271.812500 -162.000000 -164.078125
v -282.437500 -170.609375 -225.046875
v -261.250000 -176.531250 -103.437500
v -137.015625 -174.515625 2.656250
v -174.296875 -164.171875 -8.187500
v -108.203125 -87.812500 -231.093750
v -141.812500 -88.453125 -233.968750
v -175.234375 -90.921875 -231.703125
v -145.187500 -66.703125 -151.781250
v -91.703125 51.671875 -172.468750
v -85.140625 35.843750 -191.546875
v -91.312500 57.062500 -198.546875
v -201.171875 48.859375 -184.453125
v -190.984375 60.921875 -169.015625
v -188.375000 65.062500 -199.453125
v -85.140625 35.843750 -191.546875
v -130.484375 -30.265625 -184.218750
v -91.312500 57.062500 -198.546875
v -146.296875 -13.828125 -169.609375
v -188.375000 65.062500 -199.453125
v -193.312500 -82.359375 -204.843750
v -183.906250 -58.468750 -211.500000
v -181.125000 -18.937500 -207.578125
v -193.859375 30.609375 -207.625000
v -201.171875 48.859375 -184.453125
v -193.312500 -82.359375 -204.843750
v -171.390625 -60.218750 -182.000000
v -142.546875 -57.015625 -177.781250
v -127.250000 -42.828125 -185.125000
v -127.046875 54.843750 -164.531250
v -91.703125 51.671875 -172.468750
v -127.578125 64.062500 -171.343750
v -133.468750 47.812500 -160.828125
v -140.546875 74.234375 -181.968750
v -127.578125 64.062500 -171.343750
v -91.703125 51.671875 -172.468750
v -91.390625 -77.000000 -203.421875
v -104.906250 -54.687500 -210.703125
v -91.390625 -77.000000 -203.421875
v -127.250000 -42.828125 -185.125000
v -116.687500 -58.515625 -181.546875
v -130.484375 -30.265625 -184.218750
v -154.734375 56.812500 -163.218750
v -190.984375 60.921875 -169.015625
v -153.593750 66.312500 -169.687500
v -143.359375 19.578125 -158.703125
v -148.984375 49.062500 -160.312500
v -133.468750 47.812500 -160.828125
v -153.593750 66.312500 -169.687500
v -190.984375 60.921875 -169.015625
v -193.859375 30.609375 -207.625000
v -39.796875 -130.843750 -142.171875
v -99.640625 5.859375 -167.093750
v -166.609375 -30.171875 -183.265625
v -116.234375 -18.687500 -209.546875
v -227.078125 -102.703125 -220.593750
v -140.265625 -111.375000 -265.187500
v -181.281250 -68.656250 -154.500000
v -179.125000 -107.750000 -248.078125
v -203.390625 -100.765625 -199.859375
v -61.031250 -123.390625 -26.203125
v -245.187500 -122.625000 -49.140625
v -52.906250 -112.187500 -187.890625
v -132.046875 67.562500 -118.703125
v -186.640625 -0.625000 -166.375000
v -256.000000 -125.281250 -232.000000
v -126.859375 -4.625000 -230.734375
v -94.640625 40.234375 -216.937500
v -106.078125 -109.562500 -244.437500
v -105.218750 -65.296875 -153.968750
v -87.546875 -97.062500 -198.296875
v -161.625000 81.671875 -103.390625
v -117.000000 2.140625 -156.968750
v -141.562500 -124.734375 -20.171875
v -135.640625 70.953125 -94.125000
v -26.109375 -157.750000 -183.453125
v -37.937500 -159.953125 -177.359375
v -129.281250 72.000000 -93.703125
v -190.843750 45.890625 -215.281250
v -171.453125 -8.000000 -159.656250
v -119.359375 -11.687500 -162.437500
v -42.546875 -153.468750 -194.171875
v -97.000000 15.328125 -182.296875
v -134.562500 53.828125 -124.734375
v -136.203125 -176.984375 -97.703125
v -171.250000 5.984375 -154.078125
v -154.625000 97.937500 -84.859375
v -140.734375 89.656250 -97.234375
v -164.734375 -45.968750 -184.687500
v -171.984375 -4.812500 -229.375000
v -125.718750 -42.562500 -229.656250
v -115.000000 -39.437500 -212.593750
v -141.421875 -106.953125 -252.343750
v -104.046875 18.218750 -162.062500
v -132.140625 69.984375 -116.187500
v -167.531250 -45.859375 -229.390625
v -203.171875 -83.000000 -129.093750
v -178.375000 -44.437500 -212.187500
v -104.375000 -6.953125 -169.906250
v -136.703125 87.281250 -93.078125
v -32.781250 -152.171875 -179.921875
v -31.250000 -165.531250 -180.906250
v -138.359375 69.734375 -101.390625
v -182.578125 24.546875 -158.562500
v -188.843750 12.750000 -162.953125
v -126.640625 -16.750000 -173.109375
v -108.031250 -10.625000 -181.531250
v -166.437500 -13.937500 -171.000000
v -184.796875 -5.203125 -177.453125
v -165.843750 103.656250 -89.640625
v -118.031250 102.375000 -83.390625
v -122.921875 100.406250 -88.421875
v -96.578125 21.765625 -210.687500
v -145.281250 -8.640625 -160.875000
v -165.140625 -64.109375 -229.453125
v -142.593750 95.078125 -85.578125
v -137.265625 58.593750 -114.687500
v -130.937500 59.046875 -113.218750
v -191.968750 23.484375 -178.031250
v -224.953125 -122.984375 -235.843750
v -201.578125 -114.109375 -245.078125
v -153.453125 70.484375 -121.453125
v -149.015625 97.234375 -89.484375
v -160.015625 97.156250 -91.062500
v -131.546875 65.531250 -102.906250
v -144.843750 40.812500 -214.125000
v -112.140625 102.953125 -89.125000
v -116.406250 94.328125 -92.187500
v -189.500000 41.281250 -164.093750
v -138.062500 82.734375 -99.031250
v -132.140625 69.593750 -96.187500
v -128.531250 91.125000 -96.734375
v -245.531250 -125.359375 -166.140625
v -121.421875 -62.000000 -228.984375
v -153.609375 89.921875 -93.625000
v -148.953125 -3.328125 -232.187500
v -165.125000 92.031250 -100.421875
v -120.796875 86.906250 -99.156250
v -147.000000 83.734375 -100.203125
v -157.250000 83.750000 -101.437500
v -137.765625 66.250000 -103.609375
v -144.234375 4.109375 -158.203125
v -143.140625 -65.421875 -232.140625
v -146.625000 -44.468750 -233.875000
v -153.765625 109.875000 -78.671875
v -135.281250 55.000000 -120.515625
v -130.968750 77.890625 -94.531250
v -96.859375 34.437500 -169.109375
v -121.984375 113.656250 -77.593750
v -135.500000 77.390625 -94.765625
v -92.046875 -78.312500 -117.812500
v -164.328125 98.750000 -92.562500
v -110.796875 89.390625 -99.203125
v -99.734375 -150.468750 -308.984375
v -137.687500 57.750000 -116.281250
v -142.812500 60.140625 -201.765625
v -60.875000 -145.781250 -232.109375
v -83.640625 -156.796875 -275.015625
v -190.796875 12.875000 -180.015625
v -80.078125 -156.203125 -276.843750
v -99.843750 6.453125 -184.843750
v -81.625000 -143.312500 -271.546875
v -61.468750 -157.921875 -232.343750
v -57.906250 -157.312500 -234.171875
v -122.218750 67.078125 -115.375000
v -126.937500 61.062500 -114.500000
v -126.890625 62.468750 -111.703125
v -135.187500 61.765625 -112.046875
v -140.890625 66.046875 -116.765625
v -134.671875 60.421875 -114.781250
v -122.812500 67.734375 -110.750000
v -127.859375 65.218750 -108.140625
v -127.953125 67.046875 -104.937500
v -135.796875 66.187500 -105.218750
v -141.468750 66.484375 -112.343750
v -135.343750 64.437500 -108.546875
v -148.921875 117.953125 -36.109375
v -166.875000 102.953125 0.906250
v -141.656250 138.718750 -63.296875
v -200.812500 114.078125 12.062500
v -167.703125 125.468750 -21.765625
v -174.875000 131.000000 -23.218750
v -242.625000 27.781250 -70.468750
v -198.406250 46.468750 -115.453125
v -198.171875 39.437500 -114.218750
v -183.484375 50.484375 -135.281250
v -242.625000 27.781250 -70.468750
v -198.406250 46.468750 -115.453125
v -185.515625 63.312500 -135.656250
v -149.640625 90.593750 -146.906250
v -153.687500 66.078125 -169.906250
v -136.015625 86.906250 -170.781250
v -109.125000 103.343750 -71.531250
v -124.046875 37.953125 -65.062500
v -111.921875 62.671875 -87.718750
v -94.718750 88.812500 -104.625000
v -101.453125 54.234375 -126.296875
v -127.328125 54.109375 -163.437500
v -127.156250 63.765625 -171.468750
v -198.171875 39.437500 -114.218750
v -183.484375 50.484375 -135.281250
v -115.546875 72.953125 -72.937500
v -137.046875 100.000000 -36.296875
v -111.921875 62.671875 -87.718750
v -105.437500 84.312500 -102.953125
v -127.328125 54.109375 -163.437500
v -111.265625 75.609375 -121.843750
v -115.640625 70.406250 -134.953125
v -101.453125 54.234375 -126.296875
v -108.609375 37.234375 -109.625000
v -105.109375 43.953125 -94.890625
v -101.203125 3.312500 -95.062500
v -141.656250 138.718750 -63.296875
v -148.921875 117.953125 -36.109375
v -141.703125 124.812500 -63.828125
v -110.281250 19.937500 -137.921875
v -108.609375 37.234375 -109.625000
v -105.437500 84.312500 -102.953125
v -105.109375 43.953125 -94.890625
v -101.203125 3.312500 -95.062500
v -285.546875 103.359375 -11.046875
v -249.875000 116.703125 -41.140625
v -255.765625 116.406250 -43.937500
v -194.234375 120.812500 -75.328125
v -207.484375 125.750000 -86.812500
v -225.203125 108.687500 -78.234375
v -153.687500 66.078125 -169.906250
v -197.343750 104.046875 -121.625000
v -188.843750 87.343750 -131.406250
v -205.562500 76.140625 -106.390625
v -209.421875 87.015625 -104.234375
v -223.906250 78.453125 -80.875000
v -185.515625 63.312500 -135.656250
v -177.578125 80.546875 -144.281250
v -201.125000 71.546875 -118.031250
v -181.859375 100.437500 -108.546875
v -188.843750 87.343750 -131.406250
v -205.562500 76.140625 -106.390625
v -223.906250 78.453125 -80.875000
v -246.187500 96.578125 -61.125000
v -255.765625 116.406250 -43.937500
v -285.546875 103.359375 -11.046875
v -225.203125 108.687500 -78.234375
v -249.875000 116.703125 -41.140625
v -172.625000 134.187500 -67.921875
v -182.484375 141.437500 -91.015625
v -228.218750 119.093750 -35.921875
v -110.281250 19.937500 -137.921875
v -177.578125 80.546875 -144.281250
v -177.578125 80.546875 -144.281250
v -149.640625 90.593750 -146.906250
v -201.125000 71.546875 -118.031250
v -205.609375 126.593750 -37.984375
v -108.453125 109.828125 -86.859375
v -107.765625 105.703125 -90.515625
v -115.546875 72.953125 -72.937500
v -108.453125 109.828125 -86.859375
v -114.406250 103.125000 -76.031250
v -137.046875 100.000000 -36.296875
v -109.125000 103.343750 -71.531250
v -209.421875 87.015625 -104.234375
v -197.343750 104.046875 -121.625000
v -207.484375 125.750000 -86.812500
v -228.218750 119.093750 -35.921875
v -194.234375 120.812500 -75.328125
v -167.578125 115.906250 -91.515625
v -182.484375 141.437500 -91.015625
v -141.656250 138.718750 -63.296875
v -141.703125 124.812500 -63.828125
v -167.703125 125.468750 -21.765625
v -200.812500 114.078125 12.062500
v -154.187500 114.796875 -76.828125
v -172.625000 134.187500 -67.921875
v -174.875000 131.000000 -23.218750
v -105.437500 84.312500 -102.953125
v -124.046875 37.953125 -65.062500
v -111.921875 62.671875 -87.718750
v -105.203125 98.593750 -97.781250
v -123.921875 118.015625 -74.828125
v -108.453125 109.828125 -86.859375
v -114.406250 103.125000 -76.031250
v -166.875000 102.953125 0.906250
v -137.046875 100.000000 -36.296875
v -138.953125 118.390625 -73.156250
v -114.406250 103.125000 -76.031250
v -123.921875 118.015625 -74.828125
v -163.828125 87.390625 -128.125000
v -168.968750 98.828125 -114.000000
v -197.343750 104.046875 -121.625000
v -246.187500 96.578125 -61.125000
v -181.859375 100.437500 -108.546875
v -168.968750 98.828125 -114.000000
v -181.000000 133.296875 -120.218750
v -170.453125 109.343750 -97.078125
v -194.234375 120.812500 -75.328125
v -167.578125 115.906250 -91.515625
v -182.484375 141.437500 -91.015625
v -167.578125 115.906250 -91.515625
v -205.609375 126.593750 -37.984375
v -172.625000 134.187500 -67.921875
v -154.187500 114.796875 -76.828125
v -138.953125 118.390625 -73.156250
v -148.703125 65.750000 -133.781250
v -154.375000 78.062500 -141.593750
v -154.015625 78.312500 -141.453125
v -126.671875 -43.656250 -221.781250
v -131.390625 -65.984375 -225.718750
v -138.031250 -70.765625 -249.906250
v -131.609375 -35.953125 -229.203125
v -131.390625 -65.984375 -225.718750
v -154.640625 -67.109375 -225.968750
v -147.093750 -71.203125 -250.000000
v -161.656250 -44.625000 -222.015625
v -154.640625 -67.109375 -225.968750
v -159.171875 -44.640625 -243.625000
v -144.531250 -33.625000 -232.546875
v -157.234375 -37.187500 -229.484375
v -144.531250 -33.625000 -232.546875
v -159.171875 -44.640625 -243.625000
v -138.031250 -70.765625 -249.906250
v -143.671875 -48.671875 -244.078125
v -137.109375 -53.625000 -246.953125
v -137.109375 -53.625000 -246.953125
v -143.671875 -48.671875 -244.078125
v -143.390625 -70.562500 -234.078125
v -133.781250 -69.156250 -232.000000
v -135.531250 -101.703125 -251.281250
v -122.859375 -98.421875 -250.359375
v -130.921875 -122.093750 -275.593750
v -116.593750 -117.812500 -269.484375
v -129.484375 -139.390625 -284.031250
v -109.453125 -134.375000 -273.265625
v -90.859375 -172.750000 -303.078125
v -115.562500 -175.078125 -328.000000
v -141.015625 -70.531250 -234.187500
v -150.796875 -70.109375 -232.484375
v -146.750000 -105.921875 -257.468750
v -159.484375 -103.921875 -254.921875
v -152.250000 -119.812500 -270.640625
v -168.140625 -117.078125 -266.734375
v -154.906250 -139.125000 -279.218750
v -173.609375 -135.046875 -274.921875
v -187.578125 -174.671875 -309.968750
v -159.859375 -175.687500 -329.031250
v -139.234375 -59.718750 -233.250000
v -86.781250 -91.156250 -240.062500
v -96.828125 -83.281250 -233.468750
v -86.781250 -91.156250 -240.062500
v -96.828125 -83.281250 -233.468750
v -139.234375 -59.718750 -233.250000
v -148.703125 -60.156250 -233.015625
v -184.515625 -92.578125 -230.640625
v -192.250000 -102.656250 -228.968750
v -192.250000 -102.656250 -228.968750
v -184.515625 -92.578125 -230.640625
v -148.703125 -60.156250 -233.015625
v -6.609375 -161.453125 -165.015625
v -12.953125 -171.328125 -159.203125
v -6.609375 -155.703125 -166.359375
v -4.109375 -158.781250 -158.453125
v -6.609375 -161.453125 -165.015625
v -4.734375 -154.750000 -158.578125
v -6.609375 -155.703125 -166.359375
v -6.609375 -161.453125 -165.015625
v -31.734375 -167.328125 -169.468750
v -6.609375 -161.453125 -165.015625
v -17.796875 -168.875000 -158.765625
v -12.953125 -171.328125 -159.203125
v -29.656250 -166.515625 -146.203125
v -24.812500 -166.156250 -145.265625
v -24.343750 -163.234375 -149.031250
v -21.609375 -150.609375 -150.796875
v -25.734375 -168.218750 -151.765625
v -9.921875 -169.312500 -154.296875
v -4.109375 -158.781250 -158.453125
v -4.734375 -154.750000 -158.578125
v -29.937500 -140.968750 -150.109375
v -31.140625 -124.859375 -157.265625
v -21.609375 -150.609375 -150.796875
v -29.937500 -140.968750 -150.109375
v -29.656250 -166.515625 -146.203125
v -24.343750 -163.234375 -149.031250
v -23.437500 -167.125000 -148.187500
v -25.734375 -168.218750 -151.765625
v -9.921875 -169.312500 -154.296875
v -23.437500 -167.125000 -148.187500
v -28.765625 -162.250000 -153.218750
v -17.796875 -168.875000 -158.765625
v -28.765625 -162.250000 -153.218750
v -24.812500 -166.156250 -145.265625
v -31.140625 -124.859375 -157.265625
v -61.531250 -81.734375 -172.359375
v -77.125000 -52.421875 -187.328125
v -74.156250 -57.875000 -184.765625
v -85.281250 28.000000 -193.625000
v -61.531250 -81.734375 -172.359375
v -77.125000 -52.421875 -187.328125
v -74.156250 -57.875000 -184.765625
v -71.343750 27.171875 -183.531250
v -76.562500 22.765625 -166.859375
v -77.781250 -46.359375 -184.984375
v -86.265625 -12.625000 -173.890625
v -91.437500 20.078125 -166.421875
v -77.781250 -46.359375 -184.984375
v -98.015625 23.828125 -182.656250
v -91.437500 20.078125 -166.421875
v -86.265625 -12.625000 -173.890625
v -169.531250 97.093750 -77.812500
v -150.718750 113.281250 -69.828125
v -169.593750 92.140625 -79.718750
v -175.453125 97.187500 -83.703125
v -170.015625 96.250000 -78.328125
v -175.234375 93.875000 -85.203125
v -154.015625 70.703125 -111.546875
v -169.593750 92.140625 -79.718750
v -170.015625 96.250000 -78.328125
v -170.093750 108.921875 -76.578125
v -169.531250 97.093750 -77.812500
v -167.468750 109.156250 -75.406250
v -167.109375 122.968750 -79.640625
v -170.093750 108.921875 -76.578125
v -180.937500 105.250000 -96.437500
v -176.578125 103.812500 -97.156250
v -170.875000 92.875000 -98.828125
v -170.875000 92.875000 -98.828125
v -175.453125 97.187500 -83.703125
v -175.234375 93.875000 -85.203125
v -180.156250 106.765625 -100.640625
v -168.453125 85.421875 -109.968750
v -168.453125 85.421875 -109.968750
v -180.156250 106.765625 -100.640625
v -176.578125 103.812500 -97.156250
v -170.640625 123.234375 -82.234375
v -174.750000 108.828125 -80.625000
v -174.750000 108.828125 -80.625000
v -167.109375 122.968750 -79.640625
v -170.640625 123.234375 -82.234375
v -162.812500 124.031250 -76.312500
v -167.468750 109.156250 -75.406250
v -162.812500 124.031250 -76.312500
v -180.937500 105.250000 -96.437500
v -194.500000 -8.250000 -106.671875
v -154.015625 70.703125 -111.546875
v -189.859375 -23.859375 -106.296875
v -181.375000 -26.468750 -112.625000
v -166.890625 16.671875 -122.859375
v -183.734375 11.500000 -120.015625
v -175.000000 -2.953125 -123.484375
v -166.890625 16.671875 -122.859375
v -178.937500 -10.843750 -122.781250
v -175.000000 -2.953125 -123.484375
v -194.500000 -8.250000 -106.671875
v -196.421875 -18.390625 -117.875000
v -176.734375 16.140625 -142.656250
v -175.000000 -2.953125 -123.484375
v -183.734375 11.500000 -120.015625
v -195.500000 31.734375 -173.468750
v -175.000000 -2.953125 -123.484375
v -178.937500 -10.843750 -122.781250
v -194.500000 -8.250000 -106.671875
v -207.453125 45.140625 -153.468750
v -211.000000 33.984375 -166.109375
v -189.906250 49.203125 -154.125000
v -176.734375 16.140625 -142.656250
v -182.921875 41.109375 -164.828125
v -182.921875 41.109375 -164.828125
v -176.734375 16.140625 -142.656250
v -109.265625 159.328125 -137.546875
v -59.781250 -47.953125 -201.234375
v -90.484375 11.343750 -155.609375
v -46.687500 54.328125 -174.234375
v -109.062500 69.109375 -176.328125
v -75.687500 73.750000 -155.453125
v -102.750000 47.171875 -143.937500
v -169.968750 42.218750 -157.671875
v -233.875000 44.156250 -152.750000
v -202.781250 93.296875 -181.093750
v -200.000000 49.765625 -132.937500
v -220.046875 80.875000 -147.140625
v -100.031250 72.765625 -161.031250
v -55.828125 15.765625 -174.343750
v -118.203125 30.546875 -176.421875
v -89.203125 11.140625 -195.218750
v -74.421875 73.546875 -195.062500
v -62.140625 37.718750 -206.734375
v -64.203125 38.031250 -142.640625
v -100.687500 46.843750 -208.031250
v -180.531250 79.656250 -150.171875
v -171.437500 68.671875 -187.156250
v -202.921875 20.265625 -159.250000
v -185.265625 31.953125 -192.765625
v -224.765625 33.140625 -189.718750
v -205.312500 63.046875 -206.968750
v -235.343750 70.593750 -182.234375
v -143.015625 67.671875 -102.437500
v -37.531250 -128.421875 -170.265625
v -18.203125 -161.703125 -181.484375
v -138.218750 169.328125 -131.187500
v -161.390625 67.359375 -107.718750
v -182.500000 64.703125 -128.812500
v -129.406250 120.453125 -170.671875
v -98.328125 38.890625 -105.140625
v -9.812500 -157.062500 -155.953125
v -215.375000 102.453125 -70.828125
v -208.937500 -45.531250 -234.953125
v -185.062500 -91.734375 -242.687500
v -97.031250 141.453125 -104.734375
v -63.875000 -48.250000 -187.531250
v -181.343750 84.796875 -120.828125
v -110.781250 55.000000 -125.484375
v -22.250000 -120.250000 -159.656250
v -147.640625 65.125000 -96.750000
v -116.750000 164.562500 -106.968750
v -128.656250 -43.171875 -243.296875
v -70.937500 -53.703125 -209.156250
v -79.234375 -55.296875 -201.796875
v -81.984375 -34.328125 -237.906250
v -249.578125 110.765625 -43.843750
v -24.656250 -166.734375 -175.937500
v -151.687500 91.984375 -71.734375
v -30.187500 -126.062500 -174.718750
v -109.750000 64.250000 -76.703125
v -167.046875 96.265625 -82.859375
v -10.953125 -158.390625 -163.718750
v -171.468750 124.859375 -28.250000
v -159.921875 10.109375 -107.140625
v -11.265625 -166.265625 -154.281250
v -133.640625 150.609375 -155.265625
v -154.859375 155.031250 -140.906250
v -197.343750 -51.265625 -241.484375
v -128.828125 -49.437500 -240.484375
v -42.906250 -75.703125 -192.078125
v -92.531250 -41.953125 -243.984375
v -97.125000 -82.437500 -245.484375
v -148.890625 -50.515625 -232.296875
v -140.125000 -50.109375 -232.546875
v -24.671875 -169.859375 -175.390625
v -172.546875 108.687500 -84.062500
v -14.328125 -168.171875 -158.843750
v -18.406250 -165.500000 -159.343750
v -22.890625 -158.890625 -179.093750
v -90.062500 95.234375 -136.906250
v -198.328125 45.921875 -110.312500
v -112.796875 151.421875 -87.343750
v -66.625000 -88.796875 -188.578125
v -196.812500 -52.109375 -229.437500
v -143.656250 164.640625 -104.296875
v -23.718750 -139.296875 -149.218750
v -181.156250 -10.812500 -99.890625
v -92.250000 -42.828125 -231.968750
v -158.453125 -51.046875 -240.828125
v -150.046875 101.875000 -72.937500
v -161.156250 122.859375 -78.812500
v -149.609375 112.375000 -72.765625
v -185.375000 18.750000 -102.203125
v -27.078125 -160.437500 -155.265625
v -149.734375 -54.109375 -247.062500
v -166.312500 122.000000 -82.343750
v -207.046875 9.046875 -148.265625
v -169.390625 82.125000 -104.437500
v -115.234375 89.531250 -169.828125
v -24.781250 -165.406250 -152.140625
v -23.250000 -164.921875 -149.250000
v -169.125000 122.468750 -84.000000
v -82.859375 -1.265625 -203.218750
v -203.359375 87.562500 -98.171875
v -150.109375 84.218750 -171.750000
v -105.187500 134.531250 -149.218750
v -135.937500 112.781250 -39.609375
v -28.156250 -163.468750 -150.171875
v -172.093750 97.734375 -88.828125
v -157.359375 130.187500 -153.828125
v -53.968750 -84.984375 -199.828125
v -168.062500 109.000000 -80.281250
v -175.953125 104.984375 -100.484375
v -167.265625 150.640625 -106.578125
v -29.687500 -165.250000 -170.906250
v -69.546875 -10.812500 -172.718750
v -172.046875 12.562500 -94.937500
v -27.750000 -150.562500 -152.296875
v -190.828125 7.546875 -154.031250
v -148.906250 92.843750 -76.625000
v -90.640625 118.296875 -123.000000
v -181.000000 133.296875 -120.218750
v -169.046875 94.468750 -105.406250
v -165.093750 109.687500 -78.984375
v -94.203125 -6.125000 -191.109375
v -133.390625 148.718750 -76.468750
v -183.062500 24.640625 -130.734375
v -173.250000 -12.593750 -108.671875
v -151.859375 101.953125 -69.421875
v -65.656250 -4.562500 -190.671875
v -150.718750 89.781250 -73.843750
v -105.515625 115.078125 -157.000000
v -47.031250 -73.359375 -176.125000
v -160.593750 107.156250 -156.843750
v -201.609375 21.250000 -131.390625
v -186.093750 -19.296875 -122.531250
v -63.890625 -44.281250 -185.125000
v -19.500000 -157.062500 -181.453125
v -73.625000 -42.296875 -207.875000
v -61.359375 -52.109375 -184.953125
v -56.453125 -54.609375 -198.640625
v -180.781250 19.312500 -119.203125
v -81.640625 -44.812500 -200.218750
v -66.484375 -63.562500 -206.015625
v -60.968750 -40.234375 -199.000000
v -75.093750 -65.671875 -197.984375
v -41.828125 -174.656250 -39.093750
v -37.671875 -175.562500 -61.078125
v -53.812500 -131.359375 -41.812500
v -43.937500 -140.453125 -62.796875
v -55.703125 -124.328125 -43.843750
v -51.109375 -125.234375 -65.828125
v -67.484375 -113.375000 -44.984375
v -74.875000 -103.406250 -64.671875
v -120.875000 -84.437500 -98.187500
v -110.281250 -82.984375 -103.875000
v -121.546875 86.921875 -100.296875
v -120.875000 -84.437500 -98.187500
v -110.203125 89.125000 -101.734375
v -174.828125 -163.781250 -7.859375
v -162.156250 -166.718750 -4.484375
v -208.484375 -167.593750 -17.765625
v -161.906250 -148.593750 -12.421875
v -202.093750 -150.312500 -24.671875
v -164.015625 -133.859375 -21.562500
v -187.812500 -122.859375 -31.828125
v -163.265625 -122.859375 -25.515625
v -152.046875 -83.578125 -102.468750
v -141.921875 -84.703125 -99.562500
v -141.921875 63.312500 -99.562500
v -150.750000 70.843750 -99.562500
v -152.156250 49.640625 -99.562500
v -153.765625 81.656250 -100.875000
v -142.796875 82.609375 -99.562500
vn -0.6973 0.2379 -0.6762
vn -0.7534 0.1898 -0.6296
vn -0.7453 0.2379 -0.6228
vn -0.4249 0.2617 -0.8666
vn -0.4878 0.2617 -0.8328
vn -0.4322 0.1897 -0.8816
vn -0.4502 -0.3669 -0.8141
vn -0.3395 -0.4124 -0.8454
vn -0.2729 -0.4347 -0.8582
vn -0.6346 0.4236 -0.6464
vn -0.6318 0.5106 -0.5831
vn -0.6364 0.5317 -0.5589
vn -0.6320 0.3785 -0.6763
vn -0.6234 0.2619 -0.7368
vn -0.6320 0.3784 -0.6763
vn -0.6905 -0.2736 -0.6696
vn -0.6687 -0.2019 -0.7156
vn -0.5986 -0.2973 -0.7439
vn -0.5950 -0.2019 -0.7780
vn -0.6195 -0.1534 -0.7699
vn -0.5331 -0.2260 -0.8153
vn -0.5610 -0.1534 -0.8135
vn -0.4994 -0.1533 -0.8527
vn -0.5053 -0.0062 -0.8629
vn -0.5257 -0.0554 -0.8489
vn -0.4372 0.1167 -0.8918
vn -0.5048 0.0431 -0.8621
vn -0.5032 0.0922 -0.8593
vn -0.5467 0.0431 -0.8362
vn -0.5638 0.1167 -0.8176
vn -0.6268 0.0185 -0.7790
vn -0.6976 0.0923 -0.7105
vn -0.6999 0.0431 -0.7130
vn -0.7666 0.0431 -0.6407
vn -0.7003 -0.0308 -0.7132
vn -0.7510 -0.0308 -0.6596
vn -0.7168 -0.0555 -0.6950
vn -0.7673 0.0184 -0.6411
vn -0.7513 -0.0062 -0.6599
vn -0.7496 0.0677 -0.6584
vn -0.6817 -0.0554 -0.7295
vn -0.6957 0.1169 -0.7087
vn -0.6455 0.2380 -0.7257
vn -0.5169 0.1897 -0.8347
vn -0.4323 0.1899 -0.8815
vn -0.4322 0.1898 -0.8816
vn -0.5677 -0.0062 -0.8232
vn -0.6269 -0.0062 -0.7791
vn -0.6566 -0.1535 -0.7384
vn -0.6967 -0.1045 -0.7097
vn -0.6893 -0.1777 -0.7023
vn -0.6025 -0.1291 -0.7876
vn -0.5784 -0.1777 -0.7961
vn -0.6817 -0.0554 -0.7296
vn -0.6260 -0.0554 -0.7779
vn -0.6259 -0.0554 -0.7779
vn -0.5470 -0.0309 -0.8366
vn -0.6714 0.2855 -0.6839
vn -0.6144 0.3091 -0.7260
vn -0.7453 0.2380 -0.6228
vn -0.6973 0.2379 -0.6761
vn -0.5901 0.2379 -0.7715
vn -0.5797 0.1655 -0.7979
vn -0.4249 0.2619 -0.8666
vn -0.7811 0.0677 -0.6207
vn -0.7776 0.1167 -0.6178
vn -0.7481 0.0922 -0.6571
vn -0.7722 0.1654 -0.6135
vn -0.7534 0.1898 -0.6295
vn -0.6733 0.1656 -0.7206
vn -0.6958 0.1168 -0.7087
vn -0.5470 -0.0308 -0.8366
vn -0.6025 -0.1290 -0.7876
vn -0.6994 -0.2260 -0.6781
vn -0.6293 -0.2259 -0.7436
vn -0.6905 -0.2738 -0.6695
vn -0.6292 -0.2260 -0.7437
vn -0.6994 -0.2259 -0.6781
vn -0.6855 -0.2973 -0.6646
vn -0.7531 -0.2737 -0.5983
vn -0.6905 -0.2737 -0.6696
vn -0.6960 -0.3207 -0.6425
vn -0.5754 -0.3207 -0.7524
vn -0.7016 -0.2973 -0.6476
vn -0.6294 -0.3207 -0.7078
vn -0.6741 -0.3440 -0.6537
vn -0.4501 -0.3670 -0.8141
vn -0.3916 -0.4567 -0.7988
vn -0.3180 -0.5212 -0.7920
vn -0.2272 -0.5828 -0.7802
vn -0.8203 -0.3207 -0.4736
vn -0.7268 -0.3207 -0.6074
vn -0.7939 -0.3669 -0.4848
vn -0.7908 -0.4346 -0.4309
vn -0.8900 -0.4346 -0.1382
vn -0.8014 -0.5212 -0.2935
vn -0.8241 -0.5626 -0.0661
vn -0.7484 -0.3898 -0.5367
vn -0.7631 -0.6413 -0.0802
vn -0.7349 -0.6782 -0.0045
vn -0.7270 -0.4124 -0.5490
vn -0.6540 -0.4124 -0.6342
vn -0.4170 -0.3207 -0.8504
vn -0.4714 -0.2259 -0.8525
vn -0.5497 -0.2499 -0.7971
vn -0.5785 -0.1778 -0.7961
vn -0.4994 -0.1534 -0.8527
vn -0.4170 -0.3208 -0.8504
vn -0.4378 -0.3207 -0.8399
vn -0.4922 -0.2260 -0.8406
vn -0.5225 -0.2973 -0.7991
vn -0.6293 -0.2260 -0.7436
vn -0.5567 -0.3208 -0.7663
vn -0.5746 -0.4568 -0.6791
vn -0.2662 -0.4784 -0.8368
vn -0.2279 -0.6599 -0.7160
vn -0.3395 -0.4123 -0.8454
vn -0.4502 -0.8751 -0.1777
vn -0.2763 -0.9601 -0.0428
vn -0.6254 -0.7791 0.0424
vn -0.4944 -0.3440 -0.7983
vn -0.5224 -0.2972 -0.7992
vn -0.6454 0.2379 -0.7258
vn -0.6805 0.2380 -0.6931
vn -0.1364 -0.8090 -0.5718
vn -0.2023 -0.9084 -0.3658
vn -0.4171 -0.3207 -0.8504
vn -0.4054 -0.3898 -0.8269
vn -0.4095 -0.3670 -0.8352
vn -0.4745 -0.3439 -0.8103
vn -0.6929 0.2618 -0.6718
vn -0.6732 0.4011 -0.6213
vn -0.7173 0.3555 -0.5993
vn -0.6973 0.2380 -0.6761
vn -0.6869 0.3555 -0.6339
vn -0.6454 0.2380 -0.7258
vn -0.6234 0.2618 -0.7368
vn -0.6929 0.2618 -0.6719
vn -0.6713 0.2855 -0.6840
vn -0.7237 0.3323 -0.6048
vn -0.7201 0.2855 -0.6324
vn -0.6989 0.3090 -0.6450
vn -0.7297 0.3090 -0.6099
vn -0.7087 0.3324 -0.6224
vn -0.7023 0.3555 -0.6168
vn -0.7172 0.3555 -0.5993
vn -0.7172 0.3556 -0.5993
vn -0.7103 0.3784 -0.5935
vn -0.7086 0.3324 -0.6224
vn -0.4877 0.2618 -0.8328
vn -0.5962 0.3090 -0.7410
vn -0.7247 0.3784 -0.5759
vn -0.7310 0.4011 -0.5521
vn -0.7387 0.3784 -0.5578
vn -0.7522 0.3784 -0.5395
vn -0.7228 0.4236 -0.5460
vn -0.7653 0.3784 -0.5207
vn -0.7573 0.4011 -0.5154
vn -0.7698 0.4011 -0.4965
vn -0.7489 0.4235 -0.5097
vn -0.7523 0.4457 -0.4852
vn -0.7401 0.4458 -0.5035
vn -0.7428 0.4676 -0.4791
vn -0.7329 0.4893 -0.4727
vn -0.7549 0.5107 -0.4114
vn -0.7229 0.5316 -0.4414
vn -0.7293 0.5727 -0.3744
vn -0.7428 0.4677 -0.4791
vn -0.7658 0.4893 -0.4173
vn -0.7758 0.4893 -0.3985
vn -0.7863 0.4676 -0.4038
vn -0.7863 0.4676 -0.4037
vn -0.7860 0.4457 -0.4284
vn -0.7640 0.4457 -0.4666
vn -0.7933 0.4011 -0.4580
vn -0.7444 0.4011 -0.5339
vn -0.7596 0.3554 -0.5447
vn -0.7595 0.5523 -0.3437
vn -0.7119 0.6124 -0.3437
vn -0.7468 0.5728 -0.3380
vn -0.5963 0.3090 -0.7409
vn -0.4877 0.2617 -0.8328
vn -0.7183 0.4677 -0.5151
vn -0.7596 0.3555 -0.5446
vn -0.7652 0.3784 -0.5208
vn -0.7762 0.4676 -0.4230
vn -0.7731 0.4236 -0.4721
vn -0.6318 0.5107 -0.5832
vn -0.6159 0.5727 -0.5410
vn -0.6364 0.5317 -0.5588
vn -0.6499 0.5317 -0.5431
vn -0.6774 0.5524 -0.4858
vn -0.6960 0.4892 -0.5256
vn -0.7108 0.5107 -0.4838
vn -0.7183 0.4676 -0.5152
vn -0.7329 0.4893 -0.4728
vn -0.7228 0.5317 -0.4415
vn -0.6777 0.5728 -0.4612
vn -0.6427 0.5927 -0.4853
vn -0.6189 0.6124 -0.4918
vn -0.7535 0.5316 -0.3868
vn -0.7854 0.4893 -0.3791
vn -0.7759 0.4893 -0.3983
vn -0.7309 0.4012 -0.5521
vn -0.7229 0.4236 -0.5459
vn -0.7247 0.3785 -0.5758
vn -0.1595 -0.6413 -0.7505
vn -0.1816 -0.6222 -0.7615
vn -0.1628 -0.6221 -0.7658
vn -0.1851 -0.6026 -0.7762
vn -0.2312 -0.5626 -0.7937
vn -0.2349 -0.5421 -0.8068
vn -0.2661 -0.4785 -0.8368
vn -0.2697 -0.4568 -0.8477
vn -0.3150 -0.4346 -0.8437
vn -0.3186 -0.4124 -0.8535
vn -0.2867 -0.4786 -0.8299
vn -0.2940 -0.4347 -0.8512
vn -0.2422 -0.5000 -0.8315
vn -0.2868 -0.4786 -0.8299
vn -0.2350 -0.5421 -0.8068
vn -0.2041 -0.6027 -0.7715
vn -0.1817 -0.6221 -0.7615
vn -0.1816 -0.6221 -0.7616
vn -0.1780 -0.6411 -0.7465
vn -0.2115 -0.5625 -0.7993
vn -0.1851 -0.6027 -0.7762
vn -0.1628 -0.6220 -0.7659
vn -0.2867 -0.4785 -0.8299
vn -0.2311 -0.5626 -0.7938
vn -0.2312 -0.5626 -0.7938
vn -0.1596 -0.6412 -0.7506
vn -0.1780 -0.6412 -0.7464
vn -0.7526 0.3324 -0.5684
vn -0.7446 0.3090 -0.5917
vn -0.7385 0.3324 -0.5867
vn -0.7172 0.3555 -0.5994
vn -0.7527 0.3323 -0.5683
vn -0.7318 0.3555 -0.5815
vn -0.6319 0.3784 -0.6763
vn -0.6989 0.3090 -0.6451
vn -0.5979 0.3784 -0.7066
vn -0.6144 0.3090 -0.7260
vn -0.5962 0.3091 -0.7409
vn -0.0246 -0.7473 -0.6641
vn -0.0735 -0.7472 -0.6605
vn -0.0540 -0.7791 -0.6245
vn -0.0873 -0.7634 -0.6400
vn -0.6713 0.6317 -0.3876
vn -0.6768 0.5928 -0.4366
vn -0.6669 0.6506 -0.3633
vn -0.6186 0.6317 -0.4672
vn -0.7386 0.3784 -0.5579
vn -0.7104 0.3784 -0.5935
vn -0.7173 0.3554 -0.5993
vn -0.7527 0.3325 -0.5683
vn -0.7595 0.3556 -0.5447
vn -0.7595 0.3555 -0.5447
vn -0.1628 -0.6221 -0.7659
vn -0.1410 -0.6412 -0.7543
vn -0.1562 -0.6599 -0.7350
vn -0.0246 -0.7472 -0.6641
vn -0.0540 -0.7791 -0.6246
vn -0.1779 -0.6412 -0.7465
vn -0.1922 -0.6599 -0.7264
vn -0.0735 -0.7473 -0.6604
vn -0.8241 -0.5626 -0.0662
vn -0.5792 -0.7136 -0.3941
vn -0.7348 -0.6782 -0.0046
vn -0.6255 -0.7791 0.0424
vn -0.2762 -0.9601 -0.0429
vn -0.2023 -0.9085 -0.3657
vn -0.3181 -0.5212 -0.7919
vn -0.3917 -0.4568 -0.7987
vn -0.6541 -0.4124 -0.6341
vn -0.7908 -0.4347 -0.4309
vn -0.8014 -0.5212 -0.2936
vn -0.6295 -0.3207 -0.7077
vn -0.5560 -0.2018 -0.8063
vn -0.6167 -0.2972 -0.7289
vn -0.3991 -0.2972 -0.8674
vn -0.5360 -0.2018 -0.8197
vn -0.3530 -0.3207 -0.8789
vn -0.7238 0.3323 -0.6047
vn -0.6747 0.6124 -0.4120
vn -0.6668 0.6506 -0.3634
vn -0.5840 0.5524 -0.5948
vn -0.7362 0.4235 -0.5279
vn -0.8403 -0.0061 -0.5421
vn -0.7947 0.0923 -0.6000
vn -0.8515 0.0677 -0.5200
vn -0.7676 0.5524 -0.3249
vn -0.7918 0.5106 -0.3351
vn -0.7549 0.5727 -0.3195
vn -0.7998 0.5106 -0.3155
vn -0.8140 0.4677 -0.3445
vn -0.8155 0.4457 -0.3691
vn -0.8244 0.4457 -0.3489
vn -0.8049 0.3323 -0.4916
vn -0.7945 0.4893 -0.3596
vn -0.7977 0.3555 -0.4871
vn -0.7778 0.3783 -0.5018
vn -0.8876 0.0677 -0.4557
vn -0.8515 0.0678 -0.5200
vn -0.8892 -0.0308 -0.4566
vn -0.8647 -0.0555 -0.4993
vn -0.8847 -0.1044 -0.4542
vn -0.8613 -0.1045 -0.4972
vn -0.8753 -0.0799 -0.4769
vn -0.8507 -0.0800 -0.5195
vn -0.8395 0.0431 -0.5416
vn -0.7973 0.0431 -0.6021
vn -0.8045 0.1412 -0.5769
vn -0.7596 0.1413 -0.6348
vn -0.8892 -0.0307 -0.4565
vn -0.1420 -0.7306 -0.6679
vn -0.1319 -0.6961 -0.7057
vn -0.1382 -0.7473 -0.6499
vn -0.1381 -0.6599 -0.7385
vn -0.0442 -0.6961 -0.7166
vn -0.1493 -0.5828 -0.7988
vn -0.0633 -0.6782 -0.7321
vn -0.1037 -0.6412 -0.7603
vn -0.1015 -0.6599 -0.7445
vn -0.1198 -0.6598 -0.7418
vn -0.1351 -0.6782 -0.7223
vn -0.1117 -0.7136 -0.6916
vn -0.1492 -0.6962 -0.7022
vn -0.1625 -0.7136 -0.6814
vn -0.5018 0.1168 -0.8570
vn -0.4832 -0.0554 -0.8738
vn -0.4839 -0.0061 -0.8751
vn -0.4358 0.1412 -0.8889
vn -0.4179 0.0185 -0.9083
vn -0.3914 0.1412 -0.9093
vn -0.3497 -0.0062 -0.9369
vn -0.4173 -0.0554 -0.9071
vn -0.5019 0.1168 -0.8570
vn -0.4093 -0.2020 -0.8897
vn -0.4093 -0.2018 -0.8898
vn -0.3668 -0.1777 -0.9132
vn -0.3213 -0.1777 -0.9302
vn -0.3425 -0.2019 -0.9176
vn -0.4094 -0.2019 -0.8897
vn -0.4047 -0.2499 -0.8796
vn -0.3852 -0.2259 -0.8948
vn -0.3407 -0.2259 -0.9126
vn -0.3198 -0.2020 -0.9257
vn -0.2936 -0.2499 -0.9227
vn -0.3387 -0.2499 -0.9071
vn -0.4047 -0.2499 -0.8797
vn -0.3803 -0.2737 -0.8834
vn -0.3804 -0.2737 -0.8834
vn -0.3364 -0.2737 -0.9011
vn -0.2820 -0.3670 -0.8865
vn -0.2403 -0.3439 -0.9077
vn -0.1719 -0.5626 -0.8087
vn -0.8032 0.4893 -0.3399
vn -0.7715 0.5317 -0.3493
vn -0.7800 0.5316 -0.3301
vn -0.7879 0.5316 -0.3108
vn -0.8053 0.4676 -0.3645
vn -0.7727 0.3555 -0.5259
vn -0.7960 0.4677 -0.3841
vn -0.7861 0.4457 -0.4283
vn -0.7879 0.5317 -0.3108
vn -0.7800 0.5316 -0.3302
vn -0.7468 0.5728 -0.3379
vn -0.8404 -0.0061 -0.5420
vn -0.8232 0.0923 -0.5601
vn -0.8498 0.0923 -0.5190
vn -0.8858 0.0922 -0.4548
vn -0.7568 0.1655 -0.6323
vn -0.7946 0.0923 -0.6001
vn -0.8404 -0.0062 -0.5420
vn -0.8400 -0.0308 -0.5418
vn -0.8117 0.1898 -0.5524
vn -0.8892 -0.0308 -0.4565
vn -0.7795 0.2140 -0.5887
vn -0.8346 0.1168 -0.5383
vn -0.7549 0.5727 -0.3196
vn -0.7961 0.4677 -0.3841
vn -0.7933 0.4011 -0.4581
vn -0.7863 0.4677 -0.4037
vn -0.7818 0.4012 -0.4774
vn -0.7727 0.3555 -0.5258
vn -0.8403 -0.0062 -0.5421
vn -0.8233 0.0923 -0.5601
vn -0.2821 -0.3670 -0.8864
vn -0.3432 -0.3898 -0.8545
vn -0.7568 0.1656 -0.6324
vn -0.1584 -0.7307 -0.6641
vn -0.1743 -0.6599 -0.7309
vn -0.1851 -0.6026 -0.7763
vn -0.0618 -0.6961 -0.7152
vn -0.0812 -0.6782 -0.7303
vn -0.0000 -0.9738 0.2276
vn -0.0619 -0.6962 -0.7152
vn -0.2079 -0.5827 -0.7856
vn -0.3432 -0.3898 -0.8546
vn -0.8140 0.4676 -0.3446
vn -0.8244 0.4457 -0.3490
vn -0.4985 -0.4123 -0.7625
vn -0.5280 -0.3670 -0.7659
vn -0.4211 -0.4123 -0.8079
vn -0.4847 -0.3898 -0.7830
vn -0.5330 -0.3439 -0.7731
vn -0.4943 -0.3439 -0.7984
vn -0.5376 -0.3207 -0.7798
vn -0.4986 -0.3207 -0.8053
vn -0.5530 -0.2260 -0.8019
vn -0.7918 0.5107 -0.3351
vn -0.7833 0.5107 -0.3545
vn -0.7677 0.5524 -0.3249
vn -0.7595 0.5524 -0.3437
vn -0.7594 0.5524 -0.3437
vn -0.5646 -0.1045 -0.8188
vn -0.5629 -0.1290 -0.8164
vn -0.5829 -0.1290 -0.8022
vn -0.5809 -0.1534 -0.7994
vn -0.5726 -0.2259 -0.7881
vn -0.5331 -0.2259 -0.8154
vn -0.5407 -0.1534 -0.8271
vn -0.5385 -0.1777 -0.8237
vn -0.5181 -0.1777 -0.8367
vn -0.4923 -0.2259 -0.8406
vn -0.7535 0.5317 -0.3868
vn -0.8144 0.5106 -0.2757
vn -0.8713 0.4235 -0.2478
vn -0.8983 0.4236 -0.1168
vn -0.9084 0.4011 -0.1183
vn -0.9347 0.3555 -0.0057
vn -0.8983 0.4235 -0.1169
vn -0.7361 0.4235 -0.5280
vn -0.6189 0.6125 -0.4918
vn -0.7553 0.4893 -0.4360
vn -0.6186 0.6317 -0.4671
vn -0.8692 0.2618 -0.4195
vn -0.8369 0.5317 -0.1298
vn -0.7628 0.5928 -0.2584
vn -0.7468 0.5727 -0.3381
vn -0.6846 0.6124 -0.3953
vn -0.6005 0.6872 -0.4087
vn -0.5584 0.6691 -0.4904
vn -0.5308 0.7222 -0.4435
vn -0.4692 0.6872 -0.5546
vn -0.4969 0.7049 -0.5062
vn -0.4803 0.6124 -0.6279
vn -0.4957 0.6123 -0.6160
vn -0.5055 0.5105 -0.6956
vn -0.6928 0.2618 -0.6719
vn -0.7298 0.3090 -0.6098
vn -0.7506 0.0432 -0.6593
vn -0.6318 0.5106 -0.5832
vn -0.6616 0.6318 -0.4040
vn -0.6731 0.4010 -0.6213
vn -0.8351 0.3090 -0.4550
vn -0.7914 0.3816 -0.4775
vn -0.7640 0.4457 -0.4665
vn -0.7629 0.5927 -0.2583
vn -0.8369 0.5316 -0.1300
vn -0.7469 0.5727 -0.3380
vn -0.7534 0.5317 -0.3869
vn -0.7468 0.5727 -0.3380
vn -0.8189 0.4894 -0.2999
vn -0.8765 0.4676 -0.1140
vn -0.7535 0.5316 -0.3869
vn -0.8351 0.3090 -0.4551
vn -0.7854 0.3555 -0.5067
vn -0.7527 0.3323 -0.5684
vn -0.6578 0.4457 -0.6071
vn -0.7845 0.4235 -0.4530
vn -0.6066 0.6124 -0.5069
vn -0.5499 0.5928 -0.5884
vn -0.5391 0.5106 -0.6698
vn -0.4978 0.5317 -0.6852
vn -0.5385 0.4010 -0.7411
vn -0.5255 0.3784 -0.7620
vn -0.6234 0.2617 -0.7368
vn -0.7228 0.5317 -0.4414
vn -0.8649 0.4236 -0.2693
vn -0.9066 0.3784 -0.1869
vn -0.6382 0.3555 -0.6829
vn -0.7923 0.2855 -0.5392
vn -0.6093 0.3324 -0.7200
vn -0.6415 0.1167 -0.7582
vn -0.7855 0.3554 -0.5066
vn -0.8494 0.3324 -0.4100
vn -0.8433 0.3784 -0.3817
vn -0.9005 0.3324 -0.2803
vn -0.8515 0.3555 -0.3854
vn -0.7845 0.4236 -0.4529
vn -0.9005 0.3324 -0.2804
vn -0.8494 0.3323 -0.4100
vn -0.6912 0.6692 -0.2727
vn -0.7880 0.6124 -0.0632
vn -0.7211 0.6317 -0.2845
vn -0.7120 0.6124 -0.3436
vn -0.8462 0.5316 0.0365
vn -0.7743 0.6124 -0.1596
vn -0.7846 0.5927 -0.1819
vn -0.6913 0.6692 -0.2727
vn -0.8144 0.5107 -0.2758
vn -0.8189 0.4893 -0.3000
vn -0.8983 0.4236 -0.1169
vn -0.9346 0.3555 -0.0058
vn -0.8649 0.4236 -0.2694
vn -0.8649 0.4235 -0.2693
vn -0.9065 0.3785 -0.1869
vn -0.8713 0.4235 -0.2479
vn -0.7859 0.4458 -0.4284
vn -0.7758 0.4894 -0.3982
vn -0.7758 0.4893 -0.3983
vn -0.7628 0.5928 -0.2583
vn -0.7862 0.6125 -0.0826
vn -0.7986 0.5928 -0.1040
vn -0.8561 0.5106 0.0794
vn -0.7138 0.2380 -0.6587
vn -0.6668 0.6507 -0.3633
vn -0.7119 0.6124 -0.3436
vn -0.7846 0.5927 -0.1820
vn -0.6616 0.6317 -0.4040
vn -0.7552 0.4893 -0.4361
vn -0.7459 0.3556 -0.5632
vn -0.7029 0.4012 -0.5873
vn -0.7459 0.3555 -0.5632
vn -0.7384 0.3324 -0.5867
vn -0.7172 0.3554 -0.5994
vn -0.6955 0.3784 -0.6109
vn -0.1255 -0.7306 -0.6711
vn -0.1419 -0.7307 -0.6678
vn -0.0755 -0.7306 -0.6786
vn -0.0618 -0.6962 -0.7152
vn -0.0441 -0.6961 -0.7166
vn -0.0619 -0.6961 -0.7152
vn -0.2866 -0.4785 -0.8300
vn -0.3357 -0.4347 -0.8357
vn -0.3603 -0.4123 -0.8368
vn -0.4095 -0.3669 -0.8353
vn -0.4299 -0.3669 -0.8249
vn -0.4583 -0.3207 -0.8289
vn -0.4787 -0.3207 -0.8173
vn -0.5330 -0.2260 -0.8154
vn -0.5097 -0.2499 -0.8233
vn -0.5128 -0.2259 -0.8282
vn -0.7506 0.0431 -0.6593
vn -0.7298 0.3091 -0.6098
vn -0.7137 0.2379 -0.6588
vn -0.6319 0.5106 -0.5831
vn -0.6440 0.3323 -0.6891
vn -0.6092 0.3324 -0.7200
vn -0.6415 0.1168 -0.7582
vn -0.6714 0.2854 -0.6839
vn -0.8030 0.2379 -0.5464
vn -0.8734 0.1898 -0.4484
vn -0.8562 0.5106 0.0793
vn -0.7880 0.6124 -0.0633
vn -0.7862 0.6124 -0.0826
vn -0.6310 0.7049 -0.3239
vn -0.7506 0.6317 -0.1938
vn -0.5475 0.7391 -0.3926
vn -0.7845 0.5928 -0.1819
vn -0.8578 0.2139 -0.4674
vn -0.9617 0.1168 -0.2481
vn -0.1381 -0.7473 -0.6500
vn -0.1743 -0.6599 -0.7308
vn -0.1419 -0.7306 -0.6678
vn -0.1493 -0.6962 -0.7022
vn -0.7961 0.4676 -0.3842
vn -0.7818 0.4011 -0.4774
vn -0.7752 0.4458 -0.4475
vn -0.7864 0.4676 -0.4037
vn -0.0442 -0.6961 -0.7165
vn -0.0795 -0.6961 -0.7135
vn -0.0442 -0.6962 -0.7165
vn -0.0755 -0.7307 -0.6785
vn -0.0756 -0.7307 -0.6786
vn -0.1255 -0.7307 -0.6711
vn -0.0947 -0.7136 -0.6941
vn -0.1419 -0.7306 -0.6679
vn -0.5560 -0.2019 -0.8063
vn -0.6747 -0.1534 -0.7220
vn -0.6167 -0.2973 -0.7289
vn -0.6294 -0.3208 -0.7078
vn -0.6771 -0.1290 -0.7245
vn -0.6030 -0.2736 -0.7493
vn -0.6567 -0.1535 -0.7384
vn -0.5586 -0.1777 -0.8102
vn -0.3531 -0.3207 -0.8789
vn -0.3907 -0.1534 -0.9076
vn -0.3990 -0.2972 -0.8674
vn -0.5360 -0.2019 -0.8197
vn -0.5386 -0.1777 -0.8236
vn -0.3775 -0.2973 -0.8770
vn -0.3909 -0.1534 -0.9076
vn -0.3469 -0.1290 -0.9290
vn -0.1528 -0.6782 -0.7188
vn -0.1665 -0.6962 -0.6983
vn -0.1350 -0.6783 -0.7223
vn -0.5627 -0.1292 -0.8165
vn -0.5645 -0.1045 -0.8188
vn -0.4993 -0.1534 -0.8527
vn -0.5220 -0.1290 -0.8431
vn -0.5407 -0.1535 -0.8271
vn -0.4973 -0.1776 -0.8492
vn -0.5203 -0.1535 -0.8401
vn -0.5128 -0.2259 -0.8283
vn -0.5180 -0.1777 -0.8367
vn -0.4922 -0.2261 -0.8406
vn -0.6731 0.4011 -0.6213
vn -0.8054 0.2854 -0.5195
vn -0.6714 0.2856 -0.6839
vn -0.8030 0.2379 -0.5465
vn -0.8690 0.2139 -0.4461
vn -0.8734 0.1899 -0.4485
vn -0.8577 0.2139 -0.4675
vn -0.7776 0.1168 -0.6179
vn -0.7893 0.2379 -0.5660
vn -0.7179 0.2139 -0.6625
vn -0.7237 0.3324 -0.6047
vn -0.8116 0.3091 -0.4957
vn -0.8337 0.2139 -0.5091
vn -0.7377 0.1898 -0.6479
vn -0.8092 0.0923 -0.5802
vn -0.7107 0.1412 -0.6891
vn -0.6761 0.2618 -0.6888
vn -0.8417 0.1655 -0.5139
vn -0.4515 0.2139 -0.8662
vn -0.5160 0.3324 -0.7895
vn -0.3730 0.3324 -0.8663
vn -0.4233 0.4011 -0.8123
vn -0.5863 0.2618 -0.7666
vn -0.4276 0.2379 -0.8721
vn -0.5253 0.0678 -0.8482
vn -0.3483 0.0922 -0.9328
vn -0.4391 0.0677 -0.8959
vn -0.3206 0.1898 -0.9280
vn -0.5797 0.1656 -0.7978
vn -0.2883 0.3090 -0.9063
vn -0.7004 -0.7136 0.0129
vn -0.7509 -0.6600 -0.0231
vn -0.7817 -0.6221 -0.0433
vn -0.7786 -0.6221 -0.0818
vn -0.8101 -0.5827 -0.0650
vn -0.8058 -0.5828 -0.1049
vn -0.8463 -0.5212 -0.1101
vn -0.7568 -0.4347 -0.4882
vn -0.7775 -0.4124 -0.4748
vn -0.8179 0.2855 -0.4995
vn -0.7522 0.4458 -0.4853
vn -0.7899 0.3784 -0.4825
vn -0.7731 0.4235 -0.4722
vn -0.7099 -0.4567 -0.5361
vn -0.5016 -0.8090 -0.3064
vn -0.6598 -0.4784 -0.5795
vn -0.5485 -0.7136 -0.4358
vn -0.4106 -0.8629 -0.2945
vn -0.3667 -0.8233 -0.4333
vn -0.3756 -0.8868 -0.2694
vn -0.2939 -0.8752 -0.3843
vn -0.2454 -0.9452 -0.2155
vn -0.2165 -0.9185 -0.3310
vn -0.7099 -0.4568 -0.5361
vn -0.6363 0.5317 -0.5589
vn -0.6597 -0.4786 -0.5794
vt 0.734375 0.824219
vt 0.695312 0.812500
vt 0.710938 0.890625
vt 0.257812 0.882812
vt 0.375000 0.921875
vt 0.375000 0.964844
vt 0.406250 0.457031
vt 0.445312 0.460938
vt 0.386719 0.527344
vt 0.339844 0.457031
vt 0.292969 0.332031
vt 0.375000 0.425781
vt 0.671875 0.304688
vt 0.683594 0.414062
vt 0.746094 0.300781
vt 0.750000 0.398438
vt 0.757812 0.468750
vt 0.832031 0.390625
vt 0.828125 0.464844
vt 0.777344 0.613281
vt 0.699219 0.609375
vt 0.683594 0.750000
vt 0.621094 0.683594
vt 0.628906 0.750000
vt 0.589844 0.710938
vt 0.562500 0.769531
vt 0.523438 0.718750
vt 0.453125 0.765625
vt 0.453125 0.710938
vt 0.453125 0.679688
vt 0.539062 0.675781
vt 0.535156 0.644531
vt 0.574219 0.679688
vt 0.593750 0.632812
vt 0.484375 0.859375
vt 0.601562 0.828125
vt 0.660156 0.800781
vt 0.722656 0.792969
vt 0.847656 0.617188
vt 0.687500 0.488281
vt 0.585938 0.503906
vt 0.585938 0.441406
vt 0.476562 0.523438
vt 0.476562 0.449219
vt 0.453125 0.640625
vt 0.832031 0.921875
vt 0.871094 0.894531
vt 0.730469 0.917969
vt 0.726562 0.847656
vt 0.863281 0.835938
vt 0.859375 0.781250
vt 0.617188 0.886719
vt 0.578125 0.339844
vt 0.503906 0.375000
vt 0.671875 0.308594
vt 0.437500 0.589844
vt 0.394531 0.601562
vt 0.433594 0.503906
vt 0.328125 0.515625
vt 0.375000 0.660156
vt 0.316406 0.644531
vt 0.332031 0.777344
vt 0.250000 0.707031
vt 0.285156 0.796875
vt 0.234375 0.812500
vt 0.421875 0.886719
vt 0.421875 1.000000
vt 0.207031 0.804688
vt 0.203125 0.941406
vt 0.042969 0.800781
vt 0.296875 0.437500
vt 0.152344 0.742188
vt 0.183594 0.542969
vt 0.105469 0.542969
vt 0.195312 0.207031
vt 0.039062 0.343750
vt 0.132812 0.089844
vt 0.429688 0.394531
vt 0.421875 0.117188
vt 0.316406 0.011719
vt 0.003906 0.726562
vt 0.109375 0.914062
vt 0.835938 0.308594
vt 0.433594 0.507812
vt 0.332031 0.511719
vt 0.304688 0.406250
vt 0.261719 0.605469
vt 0.203125 0.476562
vt 0.257812 0.773438
vt 0.242188 0.136719
vt 0.183594 0.015625
vt 0.421875 0.003906
vt 0.359375 0.730469
vt 0.417969 0.800781
vt 0.414062 0.734375
vt 0.355469 0.730469
vt 0.425781 0.859375
vt 0.113281 0.437500
vt 0.082031 0.238281
vt 0.320312 0.644531
vt 0.417969 0.839844
vt 0.511719 0.285156
vt 0.496094 0.242188
vt 0.621094 0.285156
vt 0.613281 0.234375
vt 0.476562 0.183594
vt 0.527344 0.050781
vt 0.460938 0.109375
vt 0.570312 0.199219
vt 0.511719 0.882812
vt 0.527344 0.917969
vt 0.609375 0.164062
vt 0.578125 0.097656
vt 0.574219 0.023438
vt 0.609375 0.101562
vt 0.609375 0.019531
vt 0.632812 0.011719
vt 0.660156 0.093750
vt 0.640625 0.109375
vt 0.667969 0.101562
vt 0.664062 0.179688
vt 0.632812 0.109375
vt 0.679688 0.007812
vt 0.695312 0.003906
vt 0.683594 0.054688
vt 0.699219 0.058594
vt 0.714844 0.007812
vt 0.714844 0.105469
vt 0.730469 0.062500
vt 0.742188 0.078125
vt 0.742188 0.046875
vt 0.757812 0.074219
vt 0.757812 0.050781
vt 0.792969 0.074219
vt 0.792969 0.042969
vt 0.843750 0.109375
vt 0.843750 0.007812
vt 0.910156 0.058594
vt 0.761719 0.097656
vt 0.792969 0.105469
vt 0.843750 0.140625
vt 0.863281 0.164062
vt 0.843750 0.191406
vt 0.843750 0.214844
vt 0.800781 0.218750
vt 0.781250 0.296875
vt 0.757812 0.210938
vt 0.699219 0.277344
vt 0.628906 0.226562
vt 0.917969 0.152344
vt 0.957031 0.058594
vt 0.945312 0.148438
vt 0.761719 0.011719
vt 0.687500 0.093750
vt 0.699219 0.105469
vt 0.765625 0.140625
vt 0.808594 0.167969
vt 0.765625 0.187500
vt 0.906250 0.246094
vt 0.867188 0.214844
vt 0.867188 0.261719
vt 0.917969 0.523438
vt 0.914062 0.585938
vt 0.949219 0.519531
vt 0.949219 0.582031
vt 0.902344 0.695312
vt 0.937500 0.699219
vt 0.917969 0.832031
vt 0.941406 0.828125
vt 0.894531 0.996094
vt 0.957031 0.925781
vt 0.980469 0.812500
vt 0.972656 0.691406
vt 0.992188 0.589844
vt 0.968750 0.558594
vt 0.968750 0.519531
vt 0.898438 0.828125
vt 0.886719 0.691406
vt 0.898438 0.582031
vt 0.902344 0.523438
vt 0.644531 0.058594
vt 0.640625 0.015625
vt 0.656250 0.058594
vt 0.656250 0.011719
vt 0.875000 0.992188
vt 0.738281 0.957031
vt 0.769531 0.984375
vt 0.769531 0.925781
vt 0.804688 0.957031
vt 0.742188 0.437500
vt 0.730469 0.371094
vt 0.683594 0.433594
vt 0.656250 0.363281
vt 0.730469 0.335938
vt 0.679688 0.277344
vt 0.746094 0.273438
vt 0.785156 0.945312
vt 0.765625 0.960938
vt 0.789062 0.988281
vt 0.761719 0.996094
vt 0.527344 0.964844
vt 0.531250 0.992188
vt 0.781250 0.976562
vt 0.781250 0.953125
vt 0.761719 0.937500
vt 0.527344 0.929688
vt 0.085938 0.625000
vt 0.214844 0.691406
vt 0.171875 0.605469
vt 0.210938 0.593750
vt 0.312500 0.605469
vt 0.324219 0.664062
vt 0.339844 0.710938
vt 0.300781 0.812500
vt 0.265625 0.843750
vt 0.214844 0.886719
vt 0.085938 0.847656
vt 0.046875 0.812500
vt 0.062500 0.753906
vt 0.074219 0.695312
vt 0.519531 0.011719
vt 0.593750 0.203125
vt 0.550781 0.042969
vt 0.167969 0.718750
vt 0.109375 0.726562
vt 0.082031 0.710938
vt 0.968750 0.214844
vt 0.976562 0.109375
vt 0.925781 0.179688
vt 0.910156 0.671875
vt 0.910156 0.632812
vt 0.898438 0.671875
vt 0.894531 0.636719
vt 0.914062 0.601562
vt 0.894531 0.605469
vt 0.894531 0.585938
vt 0.898438 0.476562
vt 0.843750 0.566406
vt 0.851562 0.476562
vt 0.820312 0.476562
vt 0.843750 0.363281
vt 0.808594 0.359375
vt 0.839844 0.308594
vt 0.804688 0.312500
vt 0.839844 0.250000
vt 0.804688 0.253906
vt 0.839844 0.210938
vt 0.804688 0.218750
vt 0.835938 0.113281
vt 0.796875 0.113281
vt 0.835938 0.003906
vt 0.800781 0.003906
vt 0.875000 0.257812
vt 0.953125 0.585938
vt 0.945312 0.550781
vt 0.968750 0.589844
vt 0.945312 0.519531
vt 0.843750 0.582031
vt 0.835938 0.570312
vt 0.835938 0.597656
vt 0.796875 0.617188
vt 0.800781 0.648438
vt 0.789062 0.625000
vt 0.792969 0.660156
vt 0.753906 0.007812
vt 0.796875 0.007812
vt 0.753906 0.113281
vt 0.792969 0.113281
vt 0.835938 0.007812
vt 0.832031 0.113281
vt 0.878906 0.003906
vt 0.875000 0.117188
vt 0.929688 0.007812
vt 0.929688 0.117188
vt 0.972656 0.007812
vt 0.972656 0.109375
vt 0.757812 0.222656
vt 0.835938 0.210938
vt 0.875000 0.222656
vt 0.917969 0.222656
vt 0.968750 0.222656
vt 0.757812 0.238281
vt 0.800781 0.234375
vt 0.835938 0.230469
vt 0.875000 0.238281
vt 0.871094 0.253906
vt 0.917969 0.238281
vt 0.917969 0.253906
vt 0.968750 0.238281
vt 0.964844 0.253906
vt 0.757812 0.257812
vt 0.800781 0.257812
vt 0.839844 0.253906
vt 0.839844 0.316406
vt 0.875000 0.316406
vt 0.890625 0.605469
vt 0.785156 0.582031
vt 0.773438 0.476562
vt 0.765625 0.574219
vt 0.750000 0.550781
vt 0.750000 0.578125
vt 0.890625 0.636719
vt 0.847656 0.609375
vt 0.835938 0.625000
vt 0.960938 0.332031
vt 0.921875 0.367188
vt 0.964844 0.355469
vt 0.921875 0.386719
vt 0.878906 0.363281
vt 0.750000 0.207031
vt 0.761719 0.226562
vt 0.882812 0.003906
vt 0.878906 0.117188
vt 0.929688 0.003906
vt 0.882812 0.671875
vt 0.847656 0.640625
vt 0.976562 0.578125
vt 0.960938 0.511719
vt 0.941406 0.472656
vt 0.761719 0.308594
vt 0.757812 0.324219
vt 0.753906 0.363281
vt 0.917969 0.324219
vt 0.964844 0.324219
vt 0.972656 0.003906
vt 0.789062 0.601562
vt 0.785156 0.593750
vt 0.785156 0.601562
vt 0.753906 0.320312
vt 0.875000 0.308594
vt 0.011719 0.121094
vt 0.183594 0.089844
vt 0.027344 0.007812
vt 0.179688 0.011719
vt 0.257812 0.082031
vt 0.257812 0.015625
vt 0.351562 0.062500
vt 0.355469 0.007812
vt 0.496094 0.046875
vt 0.503906 0.007812
vt 0.777344 0.617188
vt 0.761719 0.613281
vt 0.750000 0.621094
vt 0.753906 0.660156
vt 0.777344 0.652344
vt 0.761719 0.652344
vt 0.667969 0.996094
vt 0.605469 0.953125
vt 0.589844 0.992188
vt 0.550781 0.953125
vt 0.605469 0.925781
vt 0.585938 0.855469
vt 0.648438 0.835938
vt 0.667969 0.933594
vt 0.640625 0.910156
vt 0.695312 0.910156
vt 0.687500 0.835938
vt 0.476562 0.476562
vt 0.488281 0.382812
vt 0.417969 0.484375
vt 0.363281 0.347656
vt 0.507812 0.222656
vt 0.453125 0.230469
vt 0.492188 0.109375
vt 0.406250 0.191406
vt 0.507812 0.437500
vt 0.441406 0.574219
vt 0.496094 0.546875
vt 0.632812 0.457031
vt 0.535156 0.566406
vt 0.660156 0.351562
vt 0.328125 0.316406
vt 0.324219 0.421875
vt 0.378906 0.445312
vt 0.378906 0.500000
vt 0.328125 0.519531
vt 0.363281 0.585938
vt 0.281250 0.578125
vt 0.316406 0.671875
vt 0.238281 0.644531
vt 0.328125 0.738281
vt 0.257812 0.730469
vt 0.253906 0.789062
vt 0.125000 0.835938
vt 0.093750 0.796875
vt 0.011719 0.953125
vt 0.082031 0.664062
vt 0.140625 0.597656
vt 0.093750 0.617188
vt 0.113281 0.339844
vt 0.179688 0.445312
vt 0.156250 0.261719
vt 0.199219 0.375000
vt 0.199219 0.421875
vt 0.253906 0.437500
vt 0.195312 0.363281
vt 0.242188 0.210938
vt 0.261719 0.500000
vt 0.328125 0.460938
vt 0.371094 0.343750
vt 0.292969 0.527344
vt 0.191406 0.460938
vt 0.175781 0.269531
vt 0.117188 0.410156
vt 0.148438 0.480469
vt 0.671875 0.558594
vt 0.578125 0.589844
vt 0.574219 0.656250
vt 0.480469 0.667969
vt 0.523438 0.531250
vt 0.437500 0.652344
vt 0.410156 0.593750
vt 0.394531 0.675781
vt 0.410156 0.738281
vt 0.343750 0.781250
vt 0.378906 0.843750
vt 0.339844 0.890625
vt 0.429688 0.910156
vt 0.402344 0.996094
vt 0.457031 0.511719
vt 0.484375 0.382812
vt 0.652344 0.378906
vt 0.515625 0.781250
vt 0.621094 0.675781
vt 0.199219 0.851562
vt 0.257812 0.957031
vt 0.195312 0.292969
vt 0.214844 0.273438
vt 0.253906 0.304688
vt 0.242188 0.207031
vt 0.289062 0.261719
vt 0.289062 0.316406
vt 0.277344 0.394531
vt 0.675781 0.429688
vt 0.585938 0.500000
vt 0.636719 0.527344
vt 0.246094 0.296875
vt 0.328125 0.378906
vt 0.273438 0.433594
vt 0.371094 0.488281
vt 0.441406 0.472656
vt 0.500000 0.140625
vt 0.496094 0.300781
vt 0.386719 0.273438
vt 0.492188 0.347656
vt 0.324219 0.308594
vt 0.738281 0.589844
vt 0.367188 0.343750
vt 0.421875 0.406250
vt 0.437500 0.238281
vt 0.488281 0.238281
vt 0.464844 0.082031
vt 0.332031 0.292969
vt 0.226562 0.222656
vt 0.324219 0.449219
vt 0.230469 0.390625
vt 0.367188 0.480469
vt 0.480469 0.265625
vt 0.386719 0.351562
vt 0.382812 0.375000
vt 0.359375 0.242188
vt 0.367188 0.250000
vt 0.125000 0.882812
vt 0.300781 0.382812
vt 0.382812 0.398438
vt 0.441406 0.398438
vt 0.597656 0.667969
vt 0.582031 0.593750
vt 0.644531 0.578125
vt 0.738281 0.269531
vt 0.683594 0.257812
vt 0.683594 0.187500
vt 0.621094 0.183594
vt 0.617188 0.257812
vt 0.562500 0.269531
vt 0.003906 0.679688
vt 0.464844 0.800781
vt 0.628906 0.765625
vt 0.718750 0.765625
vt 0.500000 0.121094
vt 0.507812 0.308594
vt 0.417969 0.269531
vt 0.375000 0.355469
vt 0.386719 0.281250
vt 0.328125 0.152344
vt 0.539062 0.839844
vt 0.660156 0.726562
vt 0.734375 0.703125
vt 0.230469 0.144531
vt 0.234375 0.339844
vt 0.265625 0.308594
vt 0.253906 0.468750
vt 0.175781 0.460938
vt 0.242188 0.562500
vt 0.144531 0.468750
vt 0.171875 0.238281
vt 0.222656 0.417969
vt 0.710938 0.671875
vt 0.906250 0.707031
vt 0.714844 0.585938
vt 0.707031 0.574219
vt 0.718750 0.566406
vt 0.734375 0.511719
vt 0.722656 0.574219
vt 0.738281 0.531250
vt 0.625000 0.195312
vt 0.675781 0.039062
vt 0.734375 0.007812
vt 0.730469 0.953125
vt 0.156250 0.621094
vt 0.125000 0.511719
vt 0.054688 0.578125
vt 0.054688 0.472656
vt 0.089844 0.367188
vt 0.050781 0.367188
vt 0.093750 0.167969
vt 0.128906 0.332031
vt 0.144531 0.484375
vt 0.160156 0.515625
vt 0.792969 0.984375
vt 0.765625 0.875000
vt 0.847656 0.925781
vt 0.851562 0.812500
vt 0.796875 0.742188
vt 0.910156 0.746094
vt 0.941406 0.871094
vt 0.906250 0.988281
vt 0.996094 0.871094
vt 0.722656 0.875000
vt 0.968750 0.015625
vt 0.984375 0.101562
vt 0.546875 0.015625
vt 0.000000 0.000000
vt 0.984375 0.140625
vt 0.000000 0.078125
vt 0.984375 0.203125
vt 0.000000 0.203125
vt 0.968750 0.414062
vt 0.000000 0.429688
vt 0.968750 0.921875
vt 0.000000 0.867188
vt 0.984375 0.953125
vt 0.000000 0.992188
vt 0.984375 1.000000
vt 0.000000 0.507812
vt 0.000000 0.328125
vt 0.984375 0.507812
vt 0.968750 0.328125
vt 0.015625 0.210938
vt 0.968750 0.210938
vt 0.000000 0.140625
vt 0.953125 0.156250
vt 0.015625 0.015625
vt 0.734375 1.000000
vt 0.984375 0.992188
s 1
usemtl crying_alice1
f 159/1/1 157/2/2 158/3/3
f 156/1/4 154/3/5 155/2/6
f 124/4/7 122/5/8 123/6/9
f 43/7/10 41/8/11 42/9/12
f 40/10/13 38/11/14 39/12/15
f 165/13/16 166/14/17 152/15/18
f 166/14/17 259/16/19 152/15/18
f 166/14/17 240/17/20 259/16/19
f 240/17/20 287/18/21 259/16/19
f 240/17/20 288/19/22 287/18/21
f 288/19/22 235/17/23 287/18/21
f 288/19/22 211/20/24 235/17/23
f 211/20/24 199/21/25 235/17/23
f 211/20/24 257/22/26 199/21/25
f 257/22/26 305/23/27 199/21/25
f 257/22/26 227/24/28 305/23/27
f 227/24/28 197/25/29 305/23/27
f 227/24/28 238/26/30 197/25/29
f 238/26/30 217/27/31 197/25/29
f 238/26/30 190/28/32 217/27/31
f 190/28/32 286/29/33 217/27/31
f 190/28/32 230/27/34 286/29/33
f 230/27/34 258/30/35 286/29/33
f 230/27/34 224/31/36 258/30/35
f 224/31/36 252/32/37 258/30/35
f 224/31/36 209/33/38 252/32/37
f 209/33/38 253/34/39 252/32/37
f 209/33/38 303/23/40 253/34/39
f 303/23/40 167/21/41 253/34/39
f 303/23/40 195/22/42 167/21/41
f 190/28/32 238/26/30 177/35/43
f 238/26/30 292/36/44 177/35/43
f 238/26/30 227/24/28 292/36/44
f 227/24/28 160/37/45 292/36/44
f 227/24/28 257/22/26 160/37/45
f 257/22/26 212/38/46 160/37/45
f 257/22/26 211/20/24 212/38/46
f 211/20/24 280/39/47 212/38/46
f 211/20/24 288/19/22 280/39/47
f 288/19/22 234/20/48 280/39/47
f 288/19/22 240/17/20 234/20/48
f 240/17/20 167/21/41 234/20/48
f 240/17/20 242/40/49 167/21/41
f 242/40/49 198/41/50 167/21/41
f 242/40/49 233/42/51 198/41/50
f 233/42/51 186/43/52 198/41/50
f 233/42/51 173/44/53 186/43/52
f 167/21/41 198/41/50 253/34/39
f 198/41/50 252/32/37 253/34/39
f 198/41/50 163/45/54 252/32/37
f 163/45/54 258/30/35 252/32/37
f 163/45/54 250/32/55 258/30/35
f 250/32/55 225/31/56 258/30/35
f 250/32/55 243/33/57 225/31/56
f 243/33/57 217/27/31 225/31/56
f 243/33/57 197/25/29 217/27/31
f 198/41/50 186/43/52 163/45/54
f 193/46/58 178/47/59 194/48/60
f 178/47/59 164/49/61 194/48/60
f 178/47/59 300/50/62 164/49/61
f 300/50/62 270/51/63 164/49/61
f 300/50/62 162/49/64 270/51/63
f 162/49/64 212/38/46 270/51/63
f 162/49/64 160/37/45 212/38/46
f 224/31/36 230/27/34 209/33/38
f 230/27/34 249/25/65 209/33/38
f 230/27/34 248/26/66 249/25/65
f 248/26/66 263/24/67 249/25/65
f 248/26/66 273/36/68 263/24/67
f 273/36/68 169/37/69 263/24/67
f 273/36/68 188/52/60 169/37/69
f 212/38/46 280/39/47 270/51/63
f 280/39/47 223/38/70 270/51/63
f 280/39/47 234/20/48 223/38/70
f 234/20/48 168/22/71 223/38/70
f 234/20/48 167/21/41 168/22/71
f 197/25/29 243/33/57 305/23/27
f 243/33/57 251/34/72 305/23/27
f 243/33/57 250/32/55 251/34/72
f 250/32/55 161/41/73 251/34/72
f 250/32/55 163/45/54 161/41/73
f 240/17/20 166/14/17 242/40/49
f 166/14/17 233/42/51 242/40/49
f 166/14/17 171/53/74 233/42/51
f 171/53/74 172/54/75 233/42/51
f 172/54/75 173/44/53 233/42/51
f 166/14/17 170/55/76 171/53/74
f 270/51/63 223/38/70 164/49/61
f 223/38/70 169/37/69 164/49/61
f 223/38/70 168/22/71 169/37/69
f 128/56/77 143/57/78 153/58/79
f 143/57/78 202/59/80 153/58/79
f 143/57/78 142/60/81 202/59/80
f 142/60/81 204/61/82 202/59/80
f 142/60/81 203/62/83 204/61/82
f 203/62/83 200/63/84 204/61/82
f 203/62/83 265/64/85 200/63/84
f 265/64/85 264/65/86 200/63/84
f 265/64/85 130/66/87 264/65/86
f 130/66/87 129/67/88 264/65/86
f 130/66/87 126/68/9 129/67/88
f 126/68/9 125/69/89 129/67/88
f 126/68/9 118/70/90 125/69/89
f 204/61/82 200/63/84 202/59/80
f 200/63/84 241/71/91 202/59/80
f 200/63/84 210/72/92 241/71/91
f 210/72/92 277/73/93 241/71/91
f 210/72/92 145/74/94 277/73/93
f 145/74/94 206/75/95 277/73/93
f 145/74/94 147/76/96 206/75/95
f 147/76/96 144/77/97 206/75/95
f 202/59/80 241/71/91 153/58/79
f 241/71/91 141/78/98 153/58/79
f 241/71/91 206/75/95 141/78/98
f 206/75/95 218/79/99 141/78/98
f 206/75/95 144/77/97 218/79/99
f 144/77/97 149/80/100 218/79/99
f 241/71/91 277/73/93 206/75/95
f 145/74/94 210/72/92 146/81/101
f 210/72/92 140/82/102 146/81/101
f 210/72/92 264/65/86 140/82/102
f 264/65/86 129/67/88 140/82/102
f 210/72/92 200/63/84 264/65/86
f 183/55/103 182/14/104 185/53/105
f 182/14/104 184/42/106 185/53/105
f 182/14/104 236/40/107 184/42/106
f 236/40/107 161/41/73 184/42/106
f 236/40/107 199/21/25 161/41/73
f 199/21/25 251/34/72 161/41/73
f 199/21/25 305/23/27 251/34/72
f 184/42/106 172/54/75 185/53/105
f 181/13/108 150/15/109 182/14/104
f 150/15/109 278/16/110 182/14/104
f 150/15/109 151/83/111 278/16/110
f 151/83/111 287/18/21 278/16/110
f 151/83/111 259/16/19 287/18/21
f 151/83/111 152/15/18 259/16/19
f 128/56/112 127/84/79 114/57/105
f 127/84/79 214/85/113 114/57/105
f 127/84/79 295/86/114 214/85/113
f 295/86/114 207/87/115 214/85/113
f 295/86/114 196/88/116 207/87/115
f 196/88/116 117/89/117 207/87/115
f 196/88/116 126/68/9 117/89/117
f 127/84/79 141/78/98 295/86/114
f 141/78/98 205/90/118 295/86/114
f 141/78/98 218/79/99 205/90/118
f 218/79/99 120/91/119 205/90/118
f 218/79/99 148/92/120 120/91/119
f 218/79/99 149/80/100 148/92/120
f 142/60/81 131/93/18 203/62/83
f 131/93/18 237/94/121 203/62/83
f 131/93/18 132/95/122 237/94/121
f 132/95/122 116/96/109 237/94/121
f 192/97/123 191/35/124 190/28/32
f 191/35/124 248/26/66 190/28/32
f 191/35/124 273/36/68 248/26/66
f 248/26/66 230/27/34 190/28/32
f 126/68/9 196/88/116 118/70/90
f 196/88/116 119/98/125 118/70/90
f 196/88/116 205/90/118 119/98/125
f 205/90/118 121/99/126 119/98/125
f 205/90/118 120/91/119 121/99/126
f 196/88/116 295/86/114 205/90/118
f 114/57/105 214/85/113 115/60/127
f 214/85/113 215/100/128 115/60/127
f 214/85/113 207/87/115 215/100/128
f 207/87/115 213/62/129 215/100/128
f 207/87/115 117/89/117 213/62/129
f 117/89/117 201/101/130 213/62/129
f 117/89/117 130/66/87 201/101/130
f 130/66/87 265/64/85 201/101/130
f 107/102/58 106/103/131 104/104/132
f 106/103/131 100/105/133 104/104/132
f 106/103/131 105/106/134 100/105/133
f 105/106/134 93/107/135 100/105/133
f 105/106/134 95/108/136 93/107/135
f 95/108/136 92/109/15 93/107/135
f 95/108/136 94/106/137 92/109/15
f 191/35/124 187/110/138 273/36/68
f 187/110/138 188/52/60 273/36/68
f 187/110/138 189/111/139 188/52/60
f 100/105/133 93/107/135 98/112/140
f 93/107/135 228/113/141 98/112/140
f 93/107/135 97/114/142 228/113/141
f 97/114/142 290/115/143 228/113/141
f 97/114/142 103/116/144 290/115/143
f 103/116/144 57/117/145 290/115/143
f 87/118/146 86/119/147 80/120/148
f 86/119/147 81/121/10 80/120/148
f 86/119/147 82/122/145 81/121/10
f 82/122/145 83/115/149 81/121/10
f 300/50/62 178/47/59 162/49/64
f 178/47/59 180/48/150 162/49/64
f 178/47/59 179/46/151 180/48/150
f 60/123/152 61/124/153 62/125/154
f 61/124/153 269/126/155 62/125/154
f 61/124/153 65/127/156 269/126/155
f 65/127/156 247/128/157 269/126/155
f 65/127/156 275/129/158 247/128/157
f 275/129/158 219/130/159 247/128/157
f 275/129/158 222/131/160 219/130/159
f 222/131/160 294/132/161 219/130/159
f 222/131/160 291/133/162 294/132/161
f 291/133/162 244/134/163 294/132/161
f 291/133/162 64/135/164 244/134/163
f 64/135/164 260/136/165 244/134/163
f 64/135/164 96/137/166 260/136/165
f 96/137/166 67/138/167 260/136/165
f 219/130/159 294/132/161 247/128/157
f 294/132/161 274/139/162 247/128/157
f 294/132/161 244/134/163 274/139/162
f 244/134/163 232/140/168 274/139/162
f 244/134/163 260/136/165 232/140/168
f 260/136/165 267/141/169 232/140/168
f 260/136/165 231/142/170 267/141/169
f 231/142/170 268/143/171 267/141/169
f 231/142/170 296/144/172 268/143/171
f 296/144/172 281/145/173 268/143/171
f 296/144/172 102/146/174 281/145/173
f 102/146/174 216/147/175 281/145/173
f 102/146/174 101/148/176 216/147/175
f 101/148/176 266/121/177 216/147/175
f 101/148/176 99/149/146 266/121/177
f 99/149/146 98/112/140 266/121/177
f 260/136/165 67/138/167 231/142/170
f 67/138/167 289/150/178 231/142/170
f 67/138/167 89/151/179 289/150/178
f 89/151/179 46/152/180 289/150/178
f 176/111/181 174/110/137 175/52/182
f 174/110/137 292/36/44 175/52/182
f 174/110/137 177/35/43 292/36/44
f 292/36/44 160/37/45 175/52/182
f 275/129/158 65/127/156 222/131/160
f 65/127/156 291/133/162 222/131/160
f 65/127/156 66/153/183 291/133/162
f 66/153/183 64/135/164 291/133/162
f 62/125/154 269/126/155 63/154/184
f 269/126/155 285/155/185 63/154/184
f 269/126/155 247/128/157 285/155/185
f 247/128/157 216/147/175 285/155/185
f 247/128/157 274/139/162 216/147/175
f 274/139/162 283/156/161 216/147/175
f 274/139/162 232/140/168 283/156/161
f 232/140/168 279/157/186 283/156/161
f 232/140/168 267/141/169 279/157/186
f 267/141/169 268/143/171 279/157/186
f 268/143/171 281/145/173 279/157/186
f 281/145/173 284/158/187 279/157/186
f 281/145/173 216/147/175 284/158/187
f 216/147/175 283/156/161 284/158/187
f 283/156/161 279/157/186 284/158/187
f 287/18/21 235/17/23 278/16/110
f 235/17/23 182/14/104 278/16/110
f 235/17/23 236/40/107 182/14/104
f 235/17/23 199/21/25 236/40/107
f 215/100/128 213/62/129 115/60/127
f 213/62/129 116/96/109 115/60/127
f 213/62/129 237/94/121 116/96/109
f 213/62/129 201/101/130 237/94/121
f 201/101/130 203/62/83 237/94/121
f 201/101/130 265/64/85 203/62/83
f 74/146/188 75/145/189 73/147/190
f 75/145/189 297/158/191 73/147/190
f 75/145/189 272/157/192 297/158/191
f 272/157/192 282/156/193 297/158/191
f 272/157/192 276/140/194 282/156/193
f 276/140/194 72/139/195 282/156/193
f 276/140/194 71/134/196 72/139/195
f 71/134/196 276/140/194 69/136/197
f 276/140/194 256/141/198 69/136/197
f 276/140/194 272/157/192 256/141/198
f 272/157/192 271/143/199 256/141/198
f 272/157/192 75/145/189 271/143/199
f 75/145/189 76/144/200 271/143/199
f 46/152/180 45/159/201 289/150/178
f 45/159/201 254/160/202 289/150/178
f 45/159/201 44/161/203 254/160/202
f 44/161/203 102/146/174 254/160/202
f 289/150/178 254/160/202 231/142/170
f 254/160/202 296/144/172 231/142/170
f 254/160/202 102/146/174 296/144/172
f 81/121/10 73/147/190 80/120/148
f 73/147/190 77/155/204 80/120/148
f 73/147/190 78/128/205 77/155/204
f 77/155/204 79/154/206 80/120/148
f 78/128/205 73/147/190 72/139/195
f 73/147/190 282/156/193 72/139/195
f 73/147/190 297/158/191 282/156/193
f 209/33/38 249/25/65 303/23/40
f 249/25/65 263/24/67 303/23/40
f 303/23/40 263/24/67 195/22/42
f 263/24/67 169/37/69 195/22/42
f 17/162/207 31/163/208 24/164/209
f 31/163/208 25/165/210 24/164/209
f 31/163/208 32/166/211 25/165/210
f 32/166/211 308/167/212 25/165/210
f 32/166/211 23/168/213 308/167/212
f 23/168/213 304/169/214 308/167/212
f 23/168/213 26/170/215 304/169/214
f 26/170/215 298/171/216 304/169/214
f 26/170/215 302/169/217 298/171/216
f 302/169/217 306/172/218 298/171/216
f 302/169/217 301/173/219 306/172/218
f 301/173/219 304/169/214 306/172/218
f 301/173/219 308/167/212 304/169/214
f 304/169/214 298/171/216 306/172/218
f 26/170/215 27/168/220 302/169/217
f 27/168/220 307/167/221 302/169/217
f 27/168/220 30/166/211 307/167/221
f 30/166/211 226/165/222 307/167/221
f 30/166/211 29/163/223 226/165/222
f 29/163/223 10/164/224 226/165/222
f 29/163/223 28/162/225 10/164/224
f 302/169/217 307/167/221 301/173/219
f 307/167/221 33/174/226 301/173/219
f 307/167/221 226/165/222 33/174/226
f 226/165/222 11/175/227 33/174/226
f 226/165/222 10/164/224 11/175/227
f 10/164/224 9/176/228 11/175/227
f 26/170/215 23/168/213 22/177/229
f 23/168/213 21/178/230 22/177/229
f 23/168/213 20/166/231 21/178/230
f 20/166/231 19/179/224 21/178/230
f 20/166/231 18/163/224 19/179/224
f 18/163/224 17/162/232 19/179/224
f 17/162/232 16/180/233 19/179/224
f 225/31/56 217/27/31 258/30/35
f 217/27/31 286/29/33 258/30/35
f 99/149/146 101/148/176 100/105/133
f 101/148/176 104/104/132 100/105/133
f 98/112/140 228/113/141 266/121/177
f 228/113/141 290/115/143 266/121/177
f 63/154/184 285/155/185 88/120/177
f 285/155/185 216/147/175 88/120/177
f 216/147/175 266/121/177 88/120/177
f 266/121/177 261/119/234 88/120/177
f 266/121/177 299/122/235 261/119/234
f 299/122/235 262/181/236 261/119/234
f 299/122/235 57/117/145 262/181/236
f 57/117/145 55/182/237 262/181/236
f 88/120/177 261/119/234 56/118/238
f 261/119/234 58/183/239 56/118/238
f 261/119/234 262/181/236 58/183/239
f 262/181/236 59/184/146 58/183/239
f 262/181/236 55/182/237 59/184/146
f 266/121/177 290/115/143 299/122/235
f 290/115/143 57/117/145 299/122/235
f 92/109/15 91/105/240 93/107/135
f 91/105/240 90/112/241 93/107/135
f 83/115/149 85/113/142 81/121/10
f 85/113/142 84/112/15 81/121/10
f 35/46/58 36/185/242 37/47/243
f 36/185/242 34/46/244 37/47/243
f 25/165/210 308/167/212 33/174/226
f 308/167/212 301/173/219 33/174/226
f 14/186/245 15/187/246 13/188/247
f 15/187/246 12/189/248 13/188/247
f 89/151/179 67/138/167 293/150/249
f 67/138/167 255/142/250 293/150/249
f 67/138/167 69/136/197 255/142/250
f 69/136/197 256/141/198 255/142/250
f 89/151/179 293/150/249 68/152/251
f 293/150/249 70/160/252 68/152/251
f 293/150/249 255/142/250 70/160/252
f 255/142/250 76/144/200 70/160/252
f 255/142/250 271/143/199 76/144/200
f 255/142/250 256/141/198 271/143/199
f 50/190/253 239/191/148 51/192/152
f 239/191/148 54/193/148 51/192/152
f 239/191/148 208/194/254 54/193/148
f 208/194/254 47/195/255 54/193/148
f 208/194/254 48/196/239 47/195/255
f 48/196/239 208/194/254 49/195/256
f 208/194/254 52/193/257 49/195/256
f 208/194/254 239/191/148 52/193/257
f 239/191/148 53/192/258 52/193/257
f 239/191/148 50/190/253 53/192/258
f 7/197/259 220/198/260 8/199/232
f 220/198/260 246/200/261 8/199/232
f 220/198/260 5/201/262 246/200/261
f 5/201/262 3/202/263 246/200/261
f 8/199/232 246/200/261 6/203/264
f 246/200/261 221/198/265 6/203/264
f 246/200/261 3/202/263 221/198/265
f 3/202/263 1/201/248 221/198/265
f 6/203/264 221/198/265 4/204/224
f 221/198/265 245/205/259 4/204/224
f 221/198/265 2/206/266 245/205/259
f 2/206/266 5/201/262 245/205/259
f 221/198/265 1/201/248 2/206/266
f 4/204/224 245/205/259 7/197/259
f 245/205/259 220/198/260 7/197/259
f 245/205/259 5/201/262 220/198/260
f 139/207/267 229/208/268 138/209/269
f 229/208/268 112/210/270 138/209/269
f 229/208/268 113/211/271 112/210/270
f 113/211/271 229/208/268 111/212/272
f 229/208/268 110/213/125 111/212/272
f 229/208/268 109/214/90 110/213/125
f 109/214/90 229/208/268 108/215/273
f 229/208/268 133/216/274 108/215/273
f 229/208/268 134/217/275 133/216/274
f 134/217/275 229/208/268 137/218/101
f 229/208/268 136/219/276 137/218/101
f 229/208/268 135/220/277 136/219/276
f 229/208/268 139/207/267 135/220/277
usemtl crying_alice2
f 497/221/278 495/222/279 496/223/280
f 491/223/281 489/222/282 490/221/283
f 449/105/133 447/112/284 448/149/255
f 425/159/285 423/152/286 424/160/252
f 340/224/287 348/225/288 349/226/11
f 599/227/289 598/228/290 600/229/291
f 581/230/292 579/231/293 580/232/294
f 579/231/293 565/233/295 580/232/294
f 579/231/293 555/234/296 565/233/295
f 555/234/296 556/235/296 565/233/295
f 555/234/296 557/163/297 556/235/296
f 557/163/297 554/236/298 556/235/296
f 557/163/297 643/237/299 554/236/298
f 643/237/299 737/238/300 554/236/298
f 643/237/299 656/239/301 737/238/300
f 656/239/301 639/240/302 737/238/300
f 656/239/301 723/241/303 639/240/302
f 723/241/303 670/242/304 639/240/302
f 723/241/303 693/243/305 670/242/304
f 693/243/305 734/244/306 670/242/304
f 693/243/305 588/245/307 734/244/306
f 588/245/307 589/246/308 734/244/306
f 588/245/307 597/247/309 589/246/308
f 597/247/309 742/248/310 589/246/308
f 597/247/309 703/249/311 742/248/310
f 703/249/311 725/250/312 742/248/310
f 703/249/311 606/251/313 725/250/312
f 606/251/313 601/252/314 725/250/312
f 588/245/307 596/253/315 597/247/309
f 515/254/316 516/255/317 514/256/318
f 516/255/317 692/257/319 514/256/318
f 516/255/317 506/163/320 692/257/319
f 506/163/320 655/237/321 692/257/319
f 506/163/320 507/236/322 655/237/321
f 507/236/322 744/238/323 655/237/321
f 507/236/322 641/258/324 744/238/323
f 641/258/324 685/259/325 744/238/323
f 641/258/324 663/260/326 685/259/325
f 663/260/326 684/261/327 685/259/325
f 663/260/326 700/262/328 684/261/327
f 700/262/328 511/263/327 684/261/327
f 700/262/328 533/264/329 511/263/327
f 550/265/330 549/266/330 551/267/331
f 549/266/330 731/268/332 551/267/331
f 549/266/330 539/269/333 731/268/332
f 539/269/333 709/270/334 731/268/332
f 539/269/333 543/271/335 709/270/334
f 543/271/335 736/272/336 709/270/334
f 543/271/335 544/273/333 736/272/336
f 544/273/333 722/274/337 736/272/336
f 544/273/333 547/275/338 722/274/337
f 547/275/338 546/276/331 722/274/337
f 551/267/331 731/268/332 548/277/339
f 731/268/332 749/145/340 548/277/339
f 731/268/332 709/270/334 749/145/340
f 709/270/334 745/278/341 749/145/340
f 709/270/334 736/272/336 745/278/341
f 736/272/336 751/279/342 745/278/341
f 736/272/336 722/274/337 751/279/342
f 722/274/337 743/280/343 751/279/342
f 722/274/337 546/276/331 743/280/343
f 546/276/331 545/281/344 743/280/343
f 548/277/339 749/145/340 541/282/345
f 749/145/340 660/283/346 541/282/345
f 749/145/340 745/278/341 660/283/346
f 745/278/341 659/284/347 660/283/346
f 745/278/341 613/285/348 659/284/347
f 613/285/348 747/286/349 659/284/347
f 613/285/348 652/287/347 747/286/349
f 652/287/347 746/288/350 747/286/349
f 652/287/347 537/289/351 746/288/350
f 537/289/351 538/290/352 746/288/350
f 541/282/345 660/283/346 542/291/353
f 660/283/346 752/292/352 542/291/353
f 660/283/346 659/284/347 752/292/352
f 659/284/347 750/293/354 752/292/352
f 659/284/347 747/286/349 750/293/354
f 747/286/349 717/294/355 750/293/354
f 747/286/349 676/295/356 717/294/355
f 676/295/356 665/239/357 717/294/355
f 676/295/356 655/237/321 665/239/357
f 655/237/321 744/238/323 665/239/357
f 554/236/298 737/238/300 552/296/296
f 737/238/300 664/258/358 552/296/296
f 737/238/300 726/259/202 664/258/358
f 726/259/202 696/260/359 664/258/358
f 726/259/202 730/261/360 696/260/359
f 730/261/360 697/262/180 696/260/359
f 730/261/360 563/263/361 697/262/180
f 563/263/361 584/264/294 697/262/180
f 737/238/300 639/240/302 726/259/202
f 639/240/302 667/297/362 726/259/202
f 639/240/302 587/298/363 667/297/362
f 587/298/363 715/299/364 667/297/362
f 587/298/363 569/300/365 715/299/364
f 569/300/365 571/301/297 715/299/364
f 552/296/296 664/258/358 583/302/366
f 664/258/358 735/303/367 583/302/366
f 664/258/358 696/260/359 735/303/367
f 696/260/359 698/304/368 735/303/367
f 696/260/359 697/262/180 698/304/368
f 697/262/180 584/264/294 698/304/368
f 592/305/369 591/306/291 590/307/370
f 591/306/291 748/308/371 590/307/370
f 591/306/291 699/309/372 748/308/371
f 699/309/372 643/237/299 748/308/371
f 699/309/372 656/239/301 643/237/299
f 537/289/351 652/287/347 545/281/344
f 652/287/347 743/280/343 545/281/344
f 652/287/347 613/285/348 743/280/343
f 613/285/348 751/279/342 743/280/343
f 613/285/348 745/278/341 751/279/342
f 610/265/373 611/267/374 601/252/314
f 611/267/374 725/250/312 601/252/314
f 611/267/374 602/310/375 725/250/312
f 602/310/375 603/311/376 725/250/312
f 606/251/313 703/249/311 605/312/377
f 703/249/311 741/313/371 605/312/377
f 703/249/311 597/247/309 741/313/371
f 597/247/309 604/279/378 741/313/371
f 605/312/377 741/313/371 607/314/379
f 741/313/371 733/274/380 607/314/379
f 741/313/371 604/279/378 733/274/380
f 604/279/378 600/229/291 733/274/380
f 583/302/366 735/303/367 582/315/381
f 735/303/367 553/316/381 582/315/381
f 735/303/367 698/304/368 553/316/381
f 698/304/368 584/264/294 553/316/381
f 567/254/171 566/256/382 568/255/365
f 566/256/382 704/257/383 568/255/365
f 566/256/382 572/317/384 704/257/383
f 572/317/384 573/318/385 704/257/383
f 568/255/365 704/257/383 557/163/297
f 704/257/383 643/237/299 557/163/297
f 704/257/383 573/318/385 643/237/299
f 573/318/385 558/319/386 643/237/299
f 589/246/308 594/320/376 734/244/306
f 594/320/376 670/242/304 734/244/306
f 594/320/376 595/321/387 670/242/304
f 595/321/387 593/322/388 670/242/304
f 747/286/349 746/288/350 676/295/356
f 746/288/350 739/323/389 676/295/356
f 746/288/350 538/290/352 739/323/389
f 538/290/352 536/324/390 739/323/389
f 607/314/379 733/274/380 609/325/391
f 733/274/380 608/228/374 609/325/391
f 733/274/380 600/229/291 608/228/374
f 514/256/318 692/257/319 513/317/392
f 692/257/319 521/318/393 513/317/392
f 692/257/319 655/237/321 521/318/393
f 655/237/321 535/319/394 521/318/393
f 655/237/321 536/324/390 535/319/394
f 511/263/327 510/326/395 684/261/327
f 510/326/395 668/297/396 684/261/327
f 510/326/395 503/327/397 668/297/396
f 503/327/397 501/328/398 668/297/396
f 684/261/327 668/297/396 685/259/325
f 668/297/396 640/240/399 685/259/325
f 668/297/396 522/298/394 640/240/399
f 522/298/394 689/244/400 640/240/399
f 522/298/394 540/329/400 689/244/400
f 540/329/400 542/291/353 689/244/400
f 591/306/291 586/330/378 699/309/372
f 586/330/378 723/241/303 699/309/372
f 586/330/378 693/243/305 723/241/303
f 723/241/303 656/239/301 699/309/372
f 586/330/378 588/245/307 693/243/305
f 726/259/202 667/297/362 730/261/360
f 667/297/362 562/326/401 730/261/360
f 667/297/362 559/327/402 562/326/401
f 562/326/401 563/263/361 730/261/360
f 487/331/403 486/332/404 488/333/405
f 486/332/404 485/334/406 488/333/405
f 486/332/404 484/335/407 485/334/406
f 484/335/407 483/336/408 485/334/406
f 484/335/407 482/337/409 483/336/408
f 482/337/409 481/338/410 483/336/408
f 482/337/409 480/339/411 481/338/410
f 480/339/411 479/340/21 481/338/410
f 559/327/402 667/297/362 560/328/401
f 667/297/362 718/341/412 560/328/401
f 667/297/362 715/299/364 718/341/412
f 715/299/364 682/342/413 718/341/412
f 715/299/364 578/343/293 682/342/413
f 578/343/293 577/344/414 682/342/413
f 560/328/401 718/341/412 561/263/295
f 718/341/412 702/345/415 561/263/295
f 718/341/412 682/342/413 702/345/415
f 682/342/413 708/346/416 702/345/415
f 682/342/413 577/344/414 708/346/416
f 577/344/414 702/345/415 708/346/416
f 577/344/414 564/264/294 702/345/415
f 564/264/294 561/263/295 702/345/415
f 685/259/325 640/240/399 744/238/323
f 640/240/399 665/239/357 744/238/323
f 640/240/399 717/294/355 665/239/357
f 640/240/399 689/244/400 717/294/355
f 689/244/400 750/293/354 717/294/355
f 689/244/400 752/292/352 750/293/354
f 689/244/400 542/291/353 752/292/352
f 460/347/417 459/348/418 461/349/419
f 459/348/418 457/350/20 461/349/419
f 459/348/418 695/351/420 457/350/20
f 695/351/420 458/352/421 457/350/20
f 695/351/420 456/353/422 458/352/421
f 459/348/418 465/354/423 695/351/420
f 465/354/423 701/355/424 695/351/420
f 465/354/423 466/356/425 701/355/424
f 466/356/425 464/357/426 701/355/424
f 725/250/312 603/311/376 742/248/310
f 603/311/376 589/246/308 742/248/310
f 440/358/427 439/359/428 438/360/203
f 439/359/428 648/361/429 438/360/203
f 439/359/428 388/362/430 648/361/429
f 388/362/430 662/363/431 648/361/429
f 388/362/430 386/364/432 662/363/431
f 386/364/432 385/365/433 662/363/431
f 419/8/11 421/366/434 422/367/189
f 421/366/434 399/368/435 422/367/189
f 421/366/434 400/369/436 399/368/435
f 400/369/436 398/370/437 399/368/435
f 421/366/434 420/371/438 400/369/436
f 639/240/302 670/242/304 587/298/363
f 670/242/304 593/322/388 587/298/363
f 397/372/439 389/373/440 390/374/441
f 389/373/440 720/375/442 390/374/441
f 389/373/440 691/376/443 720/375/442
f 691/376/443 642/377/444 720/375/442
f 691/376/443 657/378/445 642/377/444
f 657/378/445 612/379/446 642/377/444
f 657/378/445 651/380/447 612/379/446
f 651/380/447 712/381/448 612/379/446
f 651/380/447 727/382/449 712/381/448
f 727/382/449 686/383/450 712/381/448
f 727/382/449 340/224/287 686/383/450
f 340/224/287 646/384/451 686/383/450
f 340/224/287 363/385/452 646/384/451
f 363/385/452 364/386/453 646/384/451
f 340/224/287 362/225/454 363/385/452
f 727/382/449 651/380/447 340/224/287
f 651/380/447 666/387/161 340/224/287
f 651/380/447 337/388/455 666/387/161
f 337/388/455 346/389/436 666/387/161
f 394/390/234 395/391/456 396/392/457
f 395/391/456 653/393/458 396/392/457
f 395/391/456 431/394/176 653/393/458
f 431/394/176 432/395/459 653/393/458
f 444/396/460 443/397/461 445/398/462
f 443/397/461 442/399/463 445/398/462
f 443/397/461 441/400/464 442/399/463
f 407/401/465 409/402/428 408/403/466
f 409/402/428 411/404/180 408/403/466
f 409/402/428 410/405/467 411/404/180
f 379/406/468 373/407/469 378/408/470
f 373/407/469 740/409/471 378/408/470
f 373/407/469 372/410/472 740/409/471
f 372/410/472 716/411/454 740/409/471
f 372/410/472 673/412/473 716/411/454
f 673/412/473 672/413/474 716/411/454
f 673/412/473 642/377/444 672/413/474
f 642/377/444 612/379/446 672/413/474
f 612/379/446 712/381/448 672/413/474
f 712/381/448 645/414/475 672/413/474
f 712/381/448 738/415/476 645/414/475
f 738/415/476 705/416/477 645/414/475
f 738/415/476 624/417/478 705/416/477
f 624/417/478 343/418/151 705/416/477
f 624/417/478 342/419/479 343/418/151
f 642/377/444 673/412/473 720/375/442
f 673/412/473 728/420/480 720/375/442
f 673/412/473 372/410/472 728/420/480
f 372/410/472 370/421/481 728/420/480
f 372/410/472 384/422/482 370/421/481
f 672/413/474 645/414/475 716/411/454
f 645/414/475 740/409/471 716/411/454
f 645/414/475 711/423/483 740/409/471
f 711/423/483 378/408/470 740/409/471
f 711/423/483 377/424/484 378/408/470
f 712/381/448 686/383/450 738/415/476
f 686/383/450 624/417/478 738/415/476
f 686/383/450 341/425/485 624/417/478
f 341/425/485 392/426/486 624/417/478
f 392/426/486 342/419/479 624/417/478
f 396/392/457 653/393/458 381/427/487
f 653/393/458 382/428/488 381/427/487
f 653/393/458 710/429/489 382/428/488
f 710/429/489 383/430/490 382/428/488
f 710/429/489 405/431/491 383/430/490
f 405/431/491 710/429/489 406/432/492
f 710/429/489 380/433/173 406/432/492
f 710/429/489 653/393/458 380/433/173
f 653/393/458 432/395/459 380/433/173
f 376/434/493 375/435/491 374/436/494
f 375/435/491 373/407/469 374/436/494
f 375/435/491 372/410/472 373/407/469
f 412/437/495 414/438/496 413/439/497
f 414/438/496 446/440/498 413/439/497
f 414/438/496 416/441/464 446/440/498
f 558/319/386 590/307/370 643/237/299
f 590/307/370 748/308/371 643/237/299
f 426/442/499 358/443/500 427/444/501
f 358/443/500 359/445/497 427/444/501
f 358/443/500 357/446/502 359/445/497
f 571/301/297 570/447/401 715/299/364
f 570/447/401 578/343/293 715/299/364
f 368/448/503 369/449/504 366/450/505
f 369/449/504 367/451/433 366/450/505
f 369/449/504 370/421/481 367/451/433
f 367/451/433 365/452/506 366/450/505
f 385/365/433 387/453/507 662/363/431
f 387/453/507 648/361/429 662/363/431
f 387/453/508 434/454/509 648/361/510
f 434/454/509 435/455/511 648/361/510
f 434/454/509 433/456/492 435/455/511
f 387/453/507 648/361/510 437/359/197
f 648/361/510 438/360/512 437/359/197
f 648/361/510 436/457/174 438/360/513
f 648/361/510 435/455/511 436/457/174
f 417/458/514 416/441/464 418/459/515
f 416/441/464 669/460/516 418/459/515
f 416/441/464 414/438/496 669/460/516
f 414/438/496 415/461/517 669/460/516
f 669/460/516 415/461/517 418/459/515
f 370/421/481 369/449/504 728/420/480
f 369/449/504 720/375/442 728/420/480
f 369/449/504 390/374/441 720/375/442
f 369/449/504 391/462/466 390/374/441
f 686/383/450 646/384/451 341/425/485
f 646/384/451 361/463/518 341/425/485
f 646/384/451 364/386/453 361/463/518
f 429/464/285 427/444/501 430/465/519
f 427/444/501 428/466/520 430/465/519
f 427/444/501 359/445/497 428/466/520
f 403/467/521 402/468/285 404/469/522
f 402/468/285 400/369/523 404/469/522
f 402/468/285 401/370/252 400/369/523
f 319/470/258 320/471/524 318/472/155
f 320/471/524 317/473/154 318/472/155
f 320/471/524 316/474/152 317/473/154
f 316/474/152 315/475/525 317/473/154
f 313/475/526 314/473/527 312/474/234
f 314/473/527 311/471/528 312/474/234
f 314/473/527 310/472/133 311/471/528
f 310/472/133 309/470/529 311/471/528
f 340/224/287 666/387/161 339/226/434
f 666/387/161 338/476/438 339/226/434
f 666/387/161 346/389/436 338/476/438
f 343/418/151 336/477/242 705/416/477
f 336/477/242 645/414/475 705/416/477
f 336/477/242 711/423/483 645/414/475
f 536/324/390 655/237/321 739/323/389
f 655/237/321 676/295/356 739/323/389
f 530/230/530 528/232/531 529/231/532
f 528/232/531 512/233/532 529/231/532
f 507/236/322 506/163/320 505/235/533
f 506/163/320 504/234/534 505/235/533
f 505/235/533 504/234/534 512/233/532
f 504/234/534 529/231/532 512/233/532
f 507/236/322 508/296/535 641/258/324
f 508/296/535 532/302/327 641/258/324
f 477/331/536 478/333/537 476/332/538
f 478/333/537 475/334/128 476/332/538
f 476/332/538 475/334/128 474/335/539
f 475/334/128 473/336/540 474/335/539
f 474/335/539 473/336/540 472/337/541
f 473/336/540 471/338/542 472/337/541
f 469/340/543 470/339/544 471/338/542
f 470/339/544 472/337/541 471/338/542
f 695/351/420 701/355/424 456/353/422
f 701/355/424 464/357/426 456/353/422
f 456/353/422 464/357/426 455/478/421
f 464/357/426 454/479/545 455/478/421
f 356/480/546 355/481/547 354/482/548
f 355/481/547 419/8/549 354/482/548
f 419/8/549 351/7/10 354/482/548
f 351/7/10 654/483/550 354/482/548
f 351/7/10 352/12/15 654/483/550
f 352/12/15 350/11/137 654/483/550
f 354/482/548 654/483/550 353/484/551
f 654/483/550 360/485/552 353/484/551
f 654/483/550 350/11/137 360/485/552
f 336/477/242 371/486/553 711/423/483
f 371/486/553 330/487/554 711/423/483
f 711/423/483 330/487/554 377/424/484
f 330/487/554 329/488/555 377/424/484
f 324/489/556 325/490/557 326/491/558
f 325/490/557 323/492/502 326/491/558
f 326/491/558 323/492/502 389/373/440
f 323/492/502 732/398/559 389/373/440
f 323/492/502 713/493/560 732/398/559
f 713/493/560 688/494/561 732/398/559
f 713/493/560 337/388/455 688/494/561
f 337/388/455 651/380/447 688/494/561
f 389/373/440 732/398/559 691/376/443
f 732/398/559 657/378/445 691/376/443
f 732/398/559 688/494/561 657/378/445
f 688/494/561 651/380/447 657/378/445
f 337/388/455 713/493/560 347/495/562
f 713/493/560 322/496/499 347/495/562
f 713/493/560 321/497/500 322/496/499
f 713/493/560 323/492/502 321/497/500
f 377/424/484 329/488/555 328/498/563
f 329/488/555 327/499/564 328/498/563
f 534/500/565 525/501/392 714/502/329
f 525/501/392 524/503/566 714/502/329
f 534/500/565 714/502/329 526/504/567
f 714/502/329 724/505/568 526/504/567
f 714/502/329 524/503/566 724/505/568
f 524/503/566 522/298/394 724/505/568
f 526/504/567 724/505/568 523/300/317
f 724/505/568 522/298/394 523/300/317
f 585/500/569 719/502/384 575/501/172
f 719/502/384 574/503/570 575/501/172
f 719/502/384 729/505/571 574/503/570
f 729/505/571 587/298/363 574/503/570
f 729/505/571 569/300/365 587/298/363
f 585/500/569 576/504/572 719/502/384
f 576/504/572 729/505/571 719/502/384
f 576/504/572 569/300/365 729/505/571
f 520/301/573 647/299/574 519/447/575
f 647/299/574 518/343/576 519/447/575
f 647/299/574 671/342/577 518/343/576
f 671/342/577 527/344/578 518/343/576
f 671/342/577 707/346/530 527/344/578
f 707/346/530 706/345/316 527/344/578
f 707/346/530 671/342/577 706/345/316
f 671/342/577 683/341/579 706/345/316
f 671/342/577 647/299/574 683/341/579
f 647/299/574 668/297/396 683/341/579
f 647/299/574 522/298/394 668/297/396
f 527/344/578 706/345/316 517/264/580
f 706/345/316 502/263/576 517/264/580
f 706/345/316 683/341/579 502/263/576
f 683/341/579 501/328/398 502/263/576
f 683/341/579 668/297/396 501/328/398
f 522/298/394 647/299/574 523/300/317
f 647/299/574 520/301/573 523/300/317
f 500/506/581 690/223/582 499/507/583
f 690/223/582 498/508/584 499/507/583
f 690/223/582 649/221/585 498/508/584
f 649/221/585 650/507/586 498/508/584
f 649/221/585 674/223/587 650/507/586
f 674/223/587 679/222/588 650/507/586
f 674/223/587 649/221/585 679/222/588
f 649/221/585 690/223/582 679/222/588
f 690/223/582 500/506/581 679/222/588
f 500/506/581 650/507/586 679/222/588
f 500/506/581 498/508/584 650/507/586
f 492/508/589 694/223/590 493/507/591
f 694/223/590 494/506/592 493/507/591
f 694/223/590 680/222/593 494/506/592
f 680/222/593 678/507/594 494/506/592
f 680/222/593 677/223/595 678/507/594
f 677/223/595 661/221/596 678/507/594
f 677/223/595 680/222/593 661/221/596
f 680/222/593 694/223/590 661/221/596
f 694/223/590 492/508/589 661/221/596
f 492/508/589 678/507/594 661/221/596
f 492/508/589 494/506/592 678/507/594
f 700/262/328 721/304/597 533/264/329
f 721/304/597 509/316/598 533/264/329
f 721/304/597 681/303/599 509/316/598
f 681/303/599 531/315/329 509/316/598
f 681/303/599 532/302/327 531/315/329
f 700/262/328 663/260/326 721/304/597
f 663/260/326 681/303/599 721/304/597
f 663/260/326 641/258/324 681/303/599
f 641/258/324 532/302/327 681/303/599
f 463/509/600 462/347/601 658/348/602
f 462/347/601 453/349/603 658/348/602
f 463/509/600 658/348/602 468/354/604
f 658/348/602 675/351/605 468/354/604
f 658/348/602 450/350/606 675/351/605
f 450/350/606 451/352/607 675/351/605
f 658/348/602 453/349/603 450/350/606
f 468/354/604 675/351/605 467/355/608
f 675/351/605 452/353/609 467/355/608
f 675/351/605 451/352/607 452/353/609
f 334/510/610 644/511/611 335/512/612
f 644/511/611 345/513/613 335/512/612
f 644/511/611 687/514/614 345/513/613
f 687/514/614 344/515/615 345/513/613
f 687/514/614 331/516/564 344/515/615
f 331/516/564 687/514/614 332/517/616
f 687/514/614 333/518/484 332/517/616
f 687/514/614 644/511/611 333/518/484
f 644/511/611 393/519/470 333/518/484
f 644/511/611 334/510/610 393/519/470
f 636/520/617 638/521/618 637/522/619
f 638/521/618 621/523/620 637/522/619
f 638/521/618 623/524/621 621/523/620
f 623/524/621 632/525/234 621/523/620
f 623/524/621 622/523/622 632/525/234
f 622/523/622 619/526/623 632/525/234
f 622/523/622 634/522/624 619/526/623
f 634/522/624 635/527/625 619/526/623
f 634/522/624 636/520/617 635/527/625
f 636/520/617 637/522/619 635/527/625
f 621/523/620 633/528/626 637/522/619
f 633/528/626 635/527/625 637/522/619
f 633/528/626 619/526/623 635/527/625
f 619/526/623 633/528/626 632/525/234
f 633/528/626 621/523/620 632/525/234
f 634/522/624 620/529/627 636/520/617
f 620/529/627 638/521/618 636/520/617
f 620/529/627 623/524/621 638/521/618
f 623/524/621 620/529/627 622/523/622
f 620/529/627 634/522/624 622/523/622
f 631/522/628 616/527/629 628/528/630
f 616/527/629 617/526/631 628/528/630
f 616/527/629 618/522/632 617/526/631
f 618/522/632 630/523/633 617/526/631
f 618/522/632 614/521/634 630/523/633
f 614/521/634 625/524/635 630/523/633
f 614/521/634 627/529/636 625/524/635
f 627/529/636 629/523/637 625/524/635
f 627/529/636 631/522/628 629/523/637
f 631/522/628 628/528/630 629/523/637
f 618/522/632 616/527/629 626/520/638
f 616/527/629 631/522/628 626/520/638
f 618/522/632 626/520/638 614/521/634
f 626/520/638 627/529/636 614/521/634
f 626/520/638 631/522/628 627/529/636
f 628/528/630 615/525/639 629/523/637
f 615/525/639 625/524/635 629/523/637
f 615/525/639 630/523/633 625/524/635
f 630/523/633 615/525/639 617/526/631
f 615/525/639 628/528/630 617/526/631
usemtl crying_alice3
f 767/530/640 769/531/641 766/532/100
f 769/531/641 768/533/642 766/532/100
f 769/531/641 771/534/643 768/533/642
f 771/534/643 770/535/644 768/533/642
f 771/534/643 773/536/645 770/535/644
f 773/536/645 772/537/646 770/535/644
f 773/536/645 775/538/647 772/537/646
f 775/538/647 774/539/648 772/537/646
f 775/538/647 776/540/469 774/539/648
f 776/540/469 778/541/649 774/539/648
f 776/540/469 780/542/650 778/541/649
f 780/542/650 777/543/651 778/541/649
f 780/542/650 779/544/652 777/543/651
f 761/545/653 759/546/654 762/547/655
f 759/546/654 760/548/656 762/547/655
f 759/546/654 757/549/657 760/548/656
f 757/549/657 758/550/658 760/548/656
f 757/549/657 755/551/659 758/550/658
f 755/551/659 756/552/660 758/550/658
f 755/551/659 753/553/661 756/552/660
f 753/553/661 754/530/662 756/552/660
f 763/554/193 764/545/663 765/555/664
f 764/545/663 762/547/665 765/555/664
